<?xml version="1.0" encoding="utf-8"?>
<!-- Generator: Adobe Illustrator 18.0.0, SVG Export Plug-In . SVG Version: 6.00 Build 0)  -->
<!DOCTYPE svg PUBLIC "-//W3C//DTD SVG 1.1//EN" "http://www.w3.org/Graphics/SVG/1.1/DTD/svg11.dtd">
<svg version="1.1" id="Calque_1" xmlns="http://www.w3.org/2000/svg" xmlns:xlink="http://www.w3.org/1999/xlink" x="0px" y="0px"
	 viewBox="0 0 320.9 361.8" enable-background="new 0 0 320.9 361.8" xml:space="preserve">
<path opacity="0.4" fill="#A54160" stroke="#FFFFFF" stroke-width="2.9586" stroke-miterlimit="10" d="M287.7,359.8H33.5
	c-17.5,0-31.9-14.3-31.9-31.9V32.8C1.6,15.3,16,0.9,33.5,0.9h254.2c17.5,0,31.9,14.3,31.9,31.9v295.1
	C319.6,345.5,305.3,359.8,287.7,359.8z"/>
<g>
	<g>
		<path fill="#FFFFFF" d="M64,284.4v-20.6h2.6V282h11.5v2.3H64z"/>
		<path fill="#FFFFFF" d="M85.2,284.6c-1.6,0-2.8-0.5-3.6-1.6c-0.8-1.1-1.2-2.6-1.2-4.8v-9.1H83v8.6c0,3.1,1.1,4.6,3.2,4.6
			c1,0,2-0.3,2.9-1c0.9-0.7,1.6-1.6,2-2.7v-9.5h2.6v12c0,0.6,0.3,0.9,0.8,0.9v2.2c-0.3,0-0.5,0.1-0.7,0.1c-0.2,0-0.3,0-0.5,0
			c-0.5,0-0.9-0.1-1.3-0.4c-0.3-0.3-0.5-0.7-0.5-1.1l-0.1-1.8c-0.7,1.1-1.6,2-2.7,2.6C87.8,284.3,86.6,284.6,85.2,284.6z"/>
		<path fill="#FFFFFF" d="M111.1,284.4h-2.6v-8.5c0-1.6-0.2-2.8-0.7-3.5c-0.5-0.7-1.2-1.1-2.2-1.1c-0.5,0-1,0.1-1.6,0.3
			s-1,0.5-1.5,0.8c-0.5,0.3-0.9,0.8-1.2,1.2c-0.3,0.5-0.6,1-0.8,1.6v9.1H98v-15.1h2.3v3.2c0.6-1.1,1.5-1.9,2.6-2.6
			c1.1-0.6,2.4-1,3.7-1c0.9,0,1.6,0.2,2.2,0.5c0.6,0.3,1,0.8,1.4,1.3c0.3,0.6,0.6,1.2,0.7,2s0.2,1.6,0.2,2.5V284.4z"/>
		<path fill="#FFFFFF" d="M119,284.6c-0.7,0-1.4-0.1-2-0.4s-1.2-0.6-1.6-1c-0.5-0.4-0.8-0.9-1.1-1.5c-0.3-0.6-0.4-1.2-0.4-1.9
			c0-0.7,0.2-1.3,0.5-1.9c0.3-0.6,0.7-1.1,1.3-1.5c0.6-0.4,1.2-0.7,2-1c0.8-0.2,1.6-0.3,2.6-0.3c0.7,0,1.5,0.1,2.2,0.2
			c0.8,0.1,1.4,0.3,2,0.6v-1.2c0-1.2-0.3-2.2-1-2.9c-0.7-0.7-1.7-1.1-3-1.1c-1.5,0-3.1,0.6-4.8,1.8l-0.8-1.7c2-1.3,3.9-2,5.9-2
			c2,0,3.5,0.5,4.7,1.6c1.1,1.1,1.7,2.6,1.7,4.5v6.2c0,0.6,0.3,0.9,0.8,0.9v2.2c-0.3,0-0.5,0.1-0.7,0.1c-0.2,0-0.4,0-0.6,0
			c-0.5,0-0.9-0.2-1.2-0.4c-0.3-0.3-0.5-0.7-0.5-1.1l-0.1-1.1c-0.7,0.9-1.5,1.6-2.6,2.1C121.3,284.4,120.2,284.6,119,284.6z
			 M119.7,282.7c0.9,0,1.8-0.2,2.5-0.5c0.8-0.3,1.4-0.8,1.8-1.3c0.4-0.4,0.6-0.7,0.6-1.1v-2.2c-1.2-0.5-2.5-0.7-3.9-0.7
			c-1.3,0-2.3,0.3-3.1,0.8s-1.2,1.2-1.2,2.1c0,0.4,0.1,0.8,0.2,1.2c0.2,0.4,0.4,0.7,0.7,1c0.3,0.3,0.7,0.5,1.1,0.6
			C118.8,282.7,119.2,282.7,119.7,282.7z"/>
		<path fill="#FFFFFF" d="M142.4,284.6c-0.7,0-1.4-0.1-2-0.4s-1.2-0.6-1.6-1c-0.5-0.4-0.8-0.9-1.1-1.5c-0.3-0.6-0.4-1.2-0.4-1.9
			c0-0.7,0.2-1.3,0.5-1.9c0.3-0.6,0.7-1.1,1.3-1.5c0.6-0.4,1.2-0.7,2-1c0.8-0.2,1.6-0.3,2.6-0.3c0.7,0,1.5,0.1,2.2,0.2
			c0.8,0.1,1.4,0.3,2,0.6v-1.2c0-1.2-0.3-2.2-1-2.9c-0.7-0.7-1.7-1.1-3-1.1c-1.5,0-3.1,0.6-4.8,1.8l-0.8-1.7c2-1.3,3.9-2,5.9-2
			c2,0,3.5,0.5,4.7,1.6c1.1,1.1,1.7,2.6,1.7,4.5v6.2c0,0.6,0.3,0.9,0.8,0.9v2.2c-0.3,0-0.5,0.1-0.7,0.1c-0.2,0-0.4,0-0.6,0
			c-0.5,0-0.9-0.2-1.2-0.4c-0.3-0.3-0.5-0.7-0.5-1.1l-0.1-1.1c-0.7,0.9-1.5,1.6-2.6,2.1C144.7,284.4,143.6,284.6,142.4,284.6z
			 M143.1,282.7c0.9,0,1.8-0.2,2.5-0.5c0.8-0.3,1.4-0.8,1.8-1.3c0.4-0.4,0.6-0.7,0.6-1.1v-2.2c-1.2-0.5-2.5-0.7-3.9-0.7
			c-1.3,0-2.3,0.3-3.1,0.8s-1.2,1.2-1.2,2.1c0,0.4,0.1,0.8,0.2,1.2c0.2,0.4,0.4,0.7,0.7,1c0.3,0.3,0.7,0.5,1.1,0.6
			C142.2,282.7,142.6,282.7,143.1,282.7z"/>
		<path fill="#FFFFFF" d="M154.6,266.4v-3.2h2.6v3.2H154.6z M154.6,284.4v-15.1h2.6v15.1H154.6z"/>
		<path fill="#FFFFFF" d="M167.5,284.6c-1,0-2-0.2-2.9-0.6c-0.9-0.4-1.7-1-2.3-1.7c-0.6-0.7-1.1-1.5-1.5-2.5c-0.4-0.9-0.5-1.9-0.5-3
			c0-1.1,0.2-2.1,0.5-3c0.3-1,0.8-1.8,1.4-2.5c0.6-0.7,1.3-1.3,2.2-1.7c0.8-0.4,1.8-0.6,2.8-0.6c1.2,0,2.3,0.3,3.3,1
			c1,0.6,1.7,1.4,2.3,2.3v-9h2.6v18c0,0.6,0.3,0.9,0.8,0.9v2.2c-0.3,0-0.5,0.1-0.7,0.1s-0.3,0-0.5,0c-0.5,0-0.9-0.2-1.3-0.5
			s-0.6-0.7-0.6-1.2v-1.3c-0.6,1-1.4,1.8-2.4,2.3S168.6,284.6,167.5,284.6z M168.1,282.4c0.5,0,0.9-0.1,1.4-0.3s1-0.4,1.4-0.7
			c0.4-0.3,0.8-0.7,1.1-1.1c0.3-0.4,0.5-0.9,0.6-1.3v-4.3c-0.2-0.5-0.4-0.9-0.8-1.4c-0.3-0.4-0.7-0.8-1.2-1.1
			c-0.4-0.3-0.9-0.6-1.4-0.8s-1-0.3-1.5-0.3c-0.8,0-1.4,0.2-2,0.5c-0.6,0.3-1.1,0.7-1.6,1.3c-0.4,0.5-0.8,1.1-1,1.8
			s-0.3,1.4-0.3,2.1c0,0.8,0.1,1.5,0.4,2.2c0.3,0.7,0.6,1.3,1.1,1.8c0.5,0.5,1,0.9,1.6,1.2S167.4,282.4,168.1,282.4z"/>
		<path fill="#FFFFFF" d="M186.2,284.6c-1.1,0-2.2-0.2-3.1-0.6c-0.9-0.4-1.8-1-2.4-1.7c-0.7-0.7-1.2-1.6-1.6-2.5s-0.6-2-0.6-3
			c0-1.1,0.2-2.1,0.6-3s0.9-1.8,1.6-2.5c0.7-0.7,1.5-1.3,2.5-1.7c0.9-0.4,2-0.6,3.1-0.6c1.1,0,2.2,0.2,3.1,0.6
			c0.9,0.4,1.7,1,2.4,1.7s1.2,1.5,1.5,2.5c0.4,0.9,0.5,1.9,0.5,2.9c0,0.2,0,0.4,0,0.6s0,0.3,0,0.4h-12.6c0.1,0.8,0.2,1.4,0.5,2.1
			s0.7,1.2,1.1,1.6s1,0.8,1.6,1c0.6,0.3,1.2,0.4,1.9,0.4c0.5,0,0.9-0.1,1.4-0.2c0.4-0.1,0.9-0.3,1.2-0.5c0.4-0.2,0.7-0.5,1-0.8
			c0.3-0.3,0.5-0.7,0.7-1l2.2,0.6c-0.3,0.6-0.6,1.1-1,1.5c-0.4,0.5-0.9,0.9-1.5,1.2c-0.6,0.3-1.2,0.6-1.9,0.8
			S186.9,284.6,186.2,284.6z M191.4,275.8c-0.1-0.7-0.2-1.4-0.5-2c-0.3-0.6-0.7-1.1-1.1-1.6c-0.5-0.4-1-0.8-1.6-1
			c-0.6-0.2-1.2-0.4-1.9-0.4c-0.7,0-1.3,0.1-1.9,0.4c-0.6,0.2-1.1,0.6-1.6,1s-0.8,1-1.1,1.6s-0.4,1.3-0.5,2H191.4z"/>
		<path fill="#FFFFFF" d="M218.3,266.1h-7.1v18.3h-2.6v-18.3h-7.1v-2.3h16.8V266.1z"/>
		<path fill="#FFFFFF" d="M220.9,266.4v-3.2h2.6v3.2H220.9z M220.9,284.4v-15.1h2.6v15.1H220.9z"/>
		<path fill="#FFFFFF" d="M250.4,284.4h-2.6v-8.5c0-1.6-0.3-2.8-0.8-3.5c-0.5-0.8-1.3-1.1-2.3-1.1c-1,0-2,0.4-2.8,1.1
			c-0.8,0.7-1.4,1.7-1.8,2.9v9.1h-2.6v-8.5c0-1.6-0.3-2.8-0.8-3.5s-1.3-1.1-2.3-1.1c-1,0-2,0.4-2.8,1.1c-0.8,0.7-1.4,1.7-1.8,2.9
			v9.1h-2.6v-15.1h2.3v3.2c0.6-1.1,1.4-2,2.4-2.6c1-0.6,2.1-0.9,3.3-0.9c1.3,0,2.3,0.3,3,1c0.7,0.7,1.2,1.6,1.4,2.7
			c1.4-2.5,3.3-3.7,5.8-3.7c0.9,0,1.6,0.2,2.2,0.5c0.6,0.3,1.1,0.8,1.4,1.3s0.6,1.2,0.8,2s0.2,1.6,0.2,2.5V284.4z"/>
		<path fill="#FFFFFF" d="M63,319.4c-0.7,0-1.4-0.1-2-0.4c-0.6-0.2-1.2-0.6-1.6-1c-0.5-0.4-0.8-0.9-1.1-1.5
			c-0.3-0.6-0.4-1.2-0.4-1.9c0-0.7,0.2-1.3,0.5-1.9c0.3-0.6,0.7-1.1,1.3-1.5s1.2-0.7,2-1c0.8-0.2,1.6-0.3,2.6-0.3
			c0.7,0,1.5,0.1,2.2,0.2c0.8,0.1,1.4,0.3,2,0.6v-1.2c0-1.2-0.3-2.2-1-2.9c-0.7-0.7-1.7-1.1-3-1.1c-1.5,0-3.1,0.6-4.8,1.8l-0.8-1.7
			c2-1.3,3.9-2,5.9-2c2,0,3.5,0.5,4.7,1.6c1.1,1.1,1.7,2.6,1.7,4.5v6.2c0,0.6,0.3,0.9,0.8,0.9v2.2c-0.3,0-0.5,0.1-0.7,0.1
			c-0.2,0-0.4,0-0.6,0c-0.5,0-0.9-0.1-1.2-0.5c-0.3-0.3-0.5-0.7-0.5-1.1l-0.1-1.1c-0.7,0.9-1.5,1.6-2.6,2.1
			C65.3,319.2,64.1,319.4,63,319.4z M63.6,317.5c0.9,0,1.8-0.2,2.5-0.5c0.8-0.3,1.4-0.8,1.8-1.3c0.4-0.4,0.6-0.7,0.6-1.1v-2.2
			c-1.2-0.5-2.5-0.7-3.9-0.7c-1.3,0-2.3,0.3-3.1,0.8c-0.8,0.5-1.2,1.2-1.2,2.1c0,0.4,0.1,0.8,0.2,1.2c0.2,0.4,0.4,0.7,0.7,1
			c0.3,0.3,0.7,0.5,1.1,0.6C62.7,317.5,63.2,317.5,63.6,317.5z"/>
		<path fill="#FFFFFF" d="M79,319.2l-6-15.1h2.6l4.8,12.9l4.8-12.9h2.4l-6,15.1H79z"/>
		<path fill="#FFFFFF" d="M96.4,319.4c-1.1,0-2.2-0.2-3.1-0.6c-0.9-0.4-1.8-1-2.4-1.7c-0.7-0.7-1.2-1.6-1.6-2.5s-0.6-2-0.6-3
			c0-1.1,0.2-2.1,0.6-3s0.9-1.8,1.6-2.5c0.7-0.7,1.5-1.3,2.5-1.7s2-0.6,3.1-0.6c1.1,0,2.2,0.2,3.1,0.6c0.9,0.4,1.7,1,2.4,1.7
			c0.7,0.7,1.2,1.5,1.5,2.5s0.5,1.9,0.5,2.9c0,0.2,0,0.4,0,0.6s0,0.3,0,0.4H91.4c0.1,0.8,0.2,1.4,0.5,2.1c0.3,0.6,0.7,1.2,1.1,1.6
			s1,0.8,1.6,1c0.6,0.3,1.2,0.4,1.9,0.4c0.5,0,0.9-0.1,1.4-0.2c0.4-0.1,0.9-0.3,1.2-0.5c0.4-0.2,0.7-0.5,1-0.8
			c0.3-0.3,0.5-0.7,0.7-1l2.2,0.6c-0.3,0.6-0.6,1.1-1,1.5s-0.9,0.9-1.5,1.2c-0.6,0.3-1.2,0.6-1.9,0.8
			C97.9,319.3,97.2,319.4,96.4,319.4z M101.6,310.6c-0.1-0.7-0.2-1.4-0.5-2c-0.3-0.6-0.7-1.1-1.1-1.6c-0.5-0.4-1-0.8-1.6-1
			c-0.6-0.2-1.2-0.4-1.9-0.4c-0.7,0-1.3,0.1-1.9,0.4c-0.6,0.2-1.1,0.6-1.6,1c-0.5,0.4-0.8,1-1.1,1.6c-0.3,0.6-0.4,1.3-0.5,2H101.6z"
			/>
		<path fill="#FFFFFF" d="M105.9,311.6c0-1.1,0.2-2.1,0.6-3c0.4-0.9,0.9-1.8,1.6-2.5c0.7-0.7,1.5-1.3,2.4-1.7c0.9-0.4,2-0.6,3.1-0.6
			c1.5,0,2.8,0.3,3.9,1s1.9,1.6,2.5,2.7l-2.5,0.8c-0.4-0.7-0.9-1.3-1.6-1.7c-0.7-0.4-1.5-0.6-2.3-0.6c-0.7,0-1.4,0.1-2,0.4
			c-0.6,0.3-1.2,0.7-1.6,1.2c-0.4,0.5-0.8,1.1-1.1,1.8c-0.3,0.7-0.4,1.4-0.4,2.2c0,0.8,0.1,1.5,0.4,2.2c0.3,0.7,0.6,1.3,1.1,1.8
			c0.5,0.5,1,0.9,1.6,1.2c0.6,0.3,1.3,0.4,2,0.4c0.4,0,0.9-0.1,1.3-0.2s0.8-0.3,1.2-0.5c0.4-0.2,0.7-0.5,0.9-0.7
			c0.3-0.3,0.5-0.6,0.6-0.9l2.5,0.8c-0.2,0.6-0.6,1.1-1,1.5c-0.4,0.5-0.9,0.9-1.5,1.2c-0.6,0.3-1.2,0.6-1.9,0.8
			c-0.7,0.2-1.4,0.3-2.2,0.3c-1.1,0-2.2-0.2-3.1-0.6c-0.9-0.4-1.8-1-2.4-1.7s-1.2-1.6-1.6-2.5S105.9,312.6,105.9,311.6z"/>
		<path fill="#FFFFFF" d="M135.6,319.4c-1.2,0-2.4-0.2-3.6-0.6c-1.2-0.4-2.2-0.9-3-1.6l1.1-1.7c0.9,0.7,1.8,1.2,2.7,1.5
			c0.9,0.3,1.8,0.5,2.8,0.5c1.1,0,2-0.2,2.6-0.7c0.6-0.4,1-1,1-1.8c0-0.4-0.1-0.7-0.3-0.9c-0.2-0.3-0.4-0.5-0.8-0.7
			c-0.3-0.2-0.8-0.4-1.3-0.5c-0.5-0.2-1.2-0.3-1.9-0.5c-0.9-0.2-1.7-0.5-2.3-0.7c-0.7-0.2-1.2-0.5-1.6-0.8c-0.4-0.3-0.7-0.6-0.9-1
			c-0.2-0.4-0.3-0.9-0.3-1.5c0-0.8,0.1-1.4,0.4-2s0.7-1.1,1.2-1.5s1.1-0.7,1.8-0.9c0.7-0.2,1.5-0.3,2.3-0.3c1.1,0,2.2,0.2,3.2,0.6
			s1.8,0.9,2.5,1.4l-1.2,1.5c-0.6-0.6-1.4-1-2.1-1.3c-0.8-0.3-1.6-0.4-2.4-0.4c-0.9,0-1.7,0.2-2.4,0.6c-0.6,0.4-1,1-1,1.9
			c0,0.3,0.1,0.6,0.2,0.9c0.1,0.2,0.3,0.4,0.6,0.6s0.7,0.3,1.1,0.5c0.5,0.1,1,0.3,1.6,0.4c1,0.2,1.9,0.5,2.6,0.7
			c0.7,0.2,1.4,0.5,1.9,0.9c0.5,0.3,0.9,0.7,1.1,1.2c0.2,0.4,0.4,1,0.4,1.6c0,1.4-0.5,2.5-1.6,3.4
			C138.9,319,137.4,319.4,135.6,319.4z"/>
		<path fill="#FFFFFF" d="M151.2,319.4c-1.1,0-2.2-0.2-3.1-0.6c-0.9-0.4-1.7-1-2.4-1.7s-1.2-1.5-1.6-2.5c-0.4-0.9-0.6-1.9-0.6-3
			c0-1.1,0.2-2.1,0.6-3c0.4-0.9,0.9-1.8,1.6-2.5s1.5-1.3,2.4-1.7c0.9-0.4,2-0.6,3.1-0.6c1.1,0,2.2,0.2,3.1,0.6
			c0.9,0.4,1.8,1,2.4,1.7s1.2,1.5,1.6,2.5c0.4,0.9,0.6,2,0.6,3c0,1-0.2,2-0.6,3s-0.9,1.8-1.6,2.5s-1.5,1.3-2.4,1.7
			C153.4,319.2,152.4,319.4,151.2,319.4z M146.2,311.6c0,0.8,0.1,1.5,0.4,2.2c0.3,0.7,0.6,1.3,1.1,1.8c0.5,0.5,1,0.9,1.6,1.2
			c0.6,0.3,1.3,0.4,2,0.4c0.7,0,1.3-0.1,2-0.4c0.6-0.3,1.1-0.7,1.6-1.2c0.5-0.5,0.8-1.1,1.1-1.8c0.3-0.7,0.4-1.4,0.4-2.2
			c0-0.8-0.1-1.5-0.4-2.2c-0.3-0.7-0.6-1.3-1.1-1.8c-0.5-0.5-1-0.9-1.6-1.2c-0.6-0.3-1.3-0.4-2-0.4c-0.7,0-1.3,0.2-2,0.4
			c-0.6,0.3-1.1,0.7-1.6,1.2c-0.5,0.5-0.8,1.1-1.1,1.8C146.3,310.1,146.2,310.9,146.2,311.6z"/>
		<path fill="#FFFFFF" d="M175.1,319.2h-2.6v-8.5c0-1.6-0.2-2.8-0.7-3.5c-0.5-0.7-1.2-1.1-2.2-1.1c-0.5,0-1,0.1-1.6,0.3
			c-0.5,0.2-1,0.5-1.5,0.8c-0.5,0.3-0.9,0.8-1.2,1.2c-0.3,0.5-0.6,1-0.8,1.6v9.1H162V304h2.3v3.2c0.6-1.1,1.5-1.9,2.6-2.6
			c1.1-0.6,2.4-1,3.7-1c0.9,0,1.6,0.2,2.2,0.5c0.6,0.3,1,0.8,1.4,1.3s0.6,1.2,0.7,2c0.1,0.8,0.2,1.6,0.2,2.5V319.2z"/>
		<path fill="#FFFFFF" d="M194.6,319.4c-1.3,0-2.4-0.3-3.3-0.9c-1-0.6-1.7-1.4-2.3-2.3v9.2h-2.6V304h2.3v2.8
			c0.6-0.9,1.4-1.7,2.3-2.2s2-0.9,3.2-0.9c1,0,2,0.2,2.9,0.6c0.9,0.4,1.6,1,2.3,1.7c0.6,0.7,1.1,1.6,1.5,2.5s0.5,1.9,0.5,3
			c0,1.1-0.2,2.1-0.5,3.1c-0.3,1-0.8,1.8-1.4,2.5c-0.6,0.7-1.3,1.3-2.1,1.7C196.5,319.2,195.6,319.4,194.6,319.4z M193.8,317.2
			c0.8,0,1.4-0.2,2-0.5c0.6-0.3,1.1-0.7,1.6-1.3c0.4-0.5,0.8-1.1,1-1.8c0.2-0.7,0.3-1.4,0.3-2.1c0-0.8-0.1-1.5-0.4-2.2
			s-0.6-1.3-1.1-1.8s-1-0.9-1.6-1.2c-0.6-0.3-1.3-0.4-2-0.4c-0.5,0-0.9,0.1-1.4,0.3c-0.5,0.2-1,0.4-1.4,0.7s-0.8,0.7-1.1,1.1
			s-0.5,0.9-0.6,1.3v4.3c0.2,0.5,0.5,1,0.8,1.4c0.3,0.4,0.7,0.8,1.1,1.1c0.4,0.3,0.9,0.6,1.4,0.8
			C192.8,317.1,193.3,317.2,193.8,317.2z"/>
		<path fill="#FFFFFF" d="M204.5,298h2.6v17.3c0,0.6,0.1,1,0.5,1.3c0.3,0.3,0.7,0.5,1.3,0.5c0.2,0,0.5,0,0.8-0.1
			c0.3-0.1,0.6-0.1,0.8-0.2l0.4,2.1c-0.4,0.2-0.9,0.3-1.5,0.4c-0.6,0.1-1.1,0.2-1.5,0.2c-1,0-1.8-0.3-2.3-0.8
			c-0.6-0.6-0.9-1.3-0.9-2.3V298z"/>
		<path fill="#FFFFFF" d="M216.7,319.4c-0.7,0-1.4-0.1-2-0.4c-0.6-0.2-1.2-0.6-1.6-1c-0.5-0.4-0.8-0.9-1.1-1.5
			c-0.3-0.6-0.4-1.2-0.4-1.9c0-0.7,0.2-1.3,0.5-1.9c0.3-0.6,0.7-1.1,1.3-1.5s1.2-0.7,2-1c0.8-0.2,1.6-0.3,2.6-0.3
			c0.7,0,1.5,0.1,2.2,0.2c0.8,0.1,1.4,0.3,2,0.6v-1.2c0-1.2-0.3-2.2-1-2.9c-0.7-0.7-1.7-1.1-3-1.1c-1.5,0-3.1,0.6-4.8,1.8l-0.8-1.7
			c2-1.3,3.9-2,5.9-2c2,0,3.5,0.5,4.7,1.6c1.1,1.1,1.7,2.6,1.7,4.5v6.2c0,0.6,0.3,0.9,0.8,0.9v2.2c-0.3,0-0.5,0.1-0.7,0.1
			c-0.2,0-0.4,0-0.6,0c-0.5,0-0.9-0.1-1.2-0.5c-0.3-0.3-0.5-0.7-0.5-1.1l-0.1-1.1c-0.7,0.9-1.5,1.6-2.6,2.1
			C218.9,319.2,217.8,319.4,216.7,319.4z M217.3,317.5c0.9,0,1.8-0.2,2.5-0.5c0.8-0.3,1.4-0.8,1.8-1.3c0.4-0.4,0.6-0.7,0.6-1.1v-2.2
			c-1.2-0.5-2.5-0.7-3.9-0.7c-1.3,0-2.3,0.3-3.1,0.8c-0.8,0.5-1.2,1.2-1.2,2.1c0,0.4,0.1,0.8,0.2,1.2c0.2,0.4,0.4,0.7,0.7,1
			c0.3,0.3,0.7,0.5,1.1,0.6C216.4,317.5,216.9,317.5,217.3,317.5z M214.6,300.6l2.9-2.6h1.9l2.9,2.6l-1.4,0.7l-2.5-1.8l-2.5,1.8
			L214.6,300.6z"/>
		<path fill="#FFFFFF" d="M236.6,318.4c-0.2,0.1-0.4,0.2-0.6,0.3c-0.3,0.1-0.5,0.2-0.9,0.3c-0.3,0.1-0.7,0.2-1,0.3
			c-0.4,0.1-0.8,0.1-1.2,0.1c-0.9,0-1.7-0.3-2.4-0.8s-1-1.3-1-2.4V306h-2.1v-2h2.1v-5h2.6v5h3.4v2H232v9.4c0,0.6,0.2,1,0.6,1.2
			c0.3,0.3,0.7,0.4,1.2,0.4c0.5,0,1-0.1,1.4-0.2c0.4-0.2,0.7-0.3,0.9-0.4L236.6,318.4z"/>
		<path fill="#FFFFFF" d="M246.9,306.3c-1.3,0-2.4,0.4-3.4,1c-1,0.6-1.7,1.5-2.1,2.6v9.3h-2.6V304h2.4v3.5c0.5-1,1.2-1.9,2.1-2.5
			c0.9-0.6,1.8-1,2.7-1.1c0.2,0,0.4,0,0.5,0c0.1,0,0.3,0,0.3,0V306.3z"/>
		<path fill="#FFFFFF" d="M255.8,319.4c-1.1,0-2.2-0.2-3.1-0.6c-0.9-0.4-1.8-1-2.4-1.7c-0.7-0.7-1.2-1.6-1.6-2.5s-0.6-2-0.6-3
			c0-1.1,0.2-2.1,0.6-3s0.9-1.8,1.6-2.5c0.7-0.7,1.5-1.3,2.5-1.7c0.9-0.4,2-0.6,3.1-0.6c1.1,0,2.2,0.2,3.1,0.6
			c0.9,0.4,1.7,1,2.4,1.7c0.7,0.7,1.2,1.5,1.5,2.5s0.5,1.9,0.5,2.9c0,0.2,0,0.4,0,0.6c0,0.2,0,0.3,0,0.4h-12.6
			c0.1,0.8,0.2,1.4,0.5,2.1c0.3,0.6,0.7,1.2,1.1,1.6c0.5,0.4,1,0.8,1.6,1s1.2,0.4,1.9,0.4c0.5,0,0.9-0.1,1.4-0.2
			c0.4-0.1,0.9-0.3,1.2-0.5s0.7-0.5,1-0.8c0.3-0.3,0.5-0.7,0.7-1l2.2,0.6c-0.3,0.6-0.6,1.1-1,1.5c-0.4,0.5-0.9,0.9-1.5,1.2
			c-0.6,0.3-1.2,0.6-1.9,0.8C257.3,319.3,256.6,319.4,255.8,319.4z M261,310.6c-0.1-0.7-0.2-1.4-0.5-2s-0.7-1.1-1.1-1.6
			c-0.5-0.4-1-0.8-1.6-1c-0.6-0.2-1.2-0.4-1.9-0.4c-0.7,0-1.3,0.1-1.9,0.4c-0.6,0.2-1.1,0.6-1.6,1c-0.5,0.4-0.8,1-1.1,1.6
			c-0.3,0.6-0.4,1.3-0.5,2H261z"/>
	</g>
</g>
<g>
	<g>
		<path fill="#845021" d="M160.6,231.9c-56.1,0-101.7-45.6-101.7-101.7S104.5,28.4,160.6,28.4s101.7,45.6,101.7,101.7
			S216.7,231.9,160.6,231.9z"/>
		<g>
			<path fill="#6B3D17" d="M160.6,30.7c55,0,99.5,44.5,99.5,99.5s-44.5,99.5-99.5,99.5s-99.5-44.5-99.5-99.5S105.7,30.7,160.6,30.7
				 M160.6,26.2c-57.3,0-103.9,46.6-103.9,103.9s46.6,103.9,103.9,103.9s103.9-46.6,103.9-103.9S217.9,26.2,160.6,26.2L160.6,26.2z"
				/>
		</g>
	</g>
	<path fill="#FCEEC8" d="M232.8,176.5c18.1-10.5,24.3-33.7,13.8-52.7h0c-10.5-18-33.9-23.6-52-13.1l-31.3,18.1l-52.8-84.7
		c-29.5,17.3-49.3,49.3-49.3,85.9c0,5.1,0.4,10.1,1.1,15l57.8,59.4c1.7,2.2,3.7,4.1,5.8,5.8c11.9,9.9,29.4,11.8,43.5,3.6
		L232.8,176.5z"/>
	<path fill="#E5CF9A" d="M108,49.3c-1.2,2.4-2.7,5.1-4.7,7.8c-1.9,2.7-4.3,5.5-6.9,8.2c-2.7,2.7-5.8,5.3-9.1,7.9
		c-3.3,2.5-7,4.8-10.8,7.1c-1,0.6-2,1.2-3.1,1.7c-0.8,1.4-1.5,2.9-2.3,4.3c2.3-1.2,4.5-2.4,6.6-3.6c3.9-2.3,7.6-4.8,11-7.5
		c3.4-2.7,6.5-5.5,9.1-8.4c2.7-2.9,4.9-5.9,6.8-8.8c1.8-2.9,3.2-5.7,4.3-8.3c0.6-1.6,1.1-3.1,1.5-4.5l-0.5-0.8
		C109.5,46,108.9,47.6,108,49.3z"/>
	<path fill="#E5CF9A" d="M127.4,74.5c-1.2,2.4-2.7,5.1-4.7,7.8c-1.9,2.7-4.3,5.5-6.9,8.2c-2.7,2.7-5.8,5.3-9.1,7.9
		c-3.3,2.5-7,4.8-10.8,7.1c-3.8,2.2-7.8,4.3-11.8,6.1c-4,1.9-8.5,3.6-12.6,5.2c-3.3,1.2-6.3,2.4-10,3.5c-0.1,0.9-0.2,1.9-0.2,2.8
		c3.9-1.1,7.5-2.3,11.2-3.6c4.2-1.6,8.5-3.3,12.7-5.2c4.1-1.9,8.2-4,12.1-6.4c3.9-2.3,7.5-4.8,10.9-7.5c3.4-2.7,6.4-5.5,9.1-8.4
		c2.7-2.9,4.9-5.9,6.8-8.8c1.8-2.9,3.2-5.7,4.3-8.3c0.1-0.2,0.2-0.4,0.3-0.7l-0.7-1.1C127.8,73.7,127.6,74.1,127.4,74.5z"/>
	<path fill="#E5CF9A" d="M148.6,106.2c-2.1,2.8-4.5,5.6-7.1,8.4c-2.9,3-6.1,5.9-9.5,8.7c-3.4,2.8-7,5.4-10.7,7.9
		c-3.7,2.5-7.5,4.9-11.3,7c-3.8,2.2-7.7,4.3-11.4,6.1c-7.5,3.8-14.7,7-21,9.5c-1.6,0.6-3.1,1.3-4.5,1.8l1.1,1.1
		c1.3-0.4,2.6-0.9,4-1.4c3.2-1.1,6.7-2.4,10.3-3.9c3.6-1.5,7.4-3.1,11.2-4.9c3.8-1.8,7.8-3.8,11.7-6c3.9-2.2,7.8-4.6,11.6-7.1
		c3.8-2.5,7.4-5.3,10.9-8.1c3.5-2.9,6.7-5.9,9.6-9.1c2.4-2.6,4.6-5.3,6.5-8.1L148.6,106.2z"/>
	<path fill="#E5CF9A" d="M163.6,129.5c-0.3,0.9-0.6,1.9-1,2.9c-0.9,2.4-1.9,4.9-3.2,7.5c-1.2,2.6-2.8,5.2-4.4,7.9
		c-1.7,2.6-3.5,5.3-5.6,7.9c-1,1.3-2.1,2.5-3.2,3.8c-1.1,1.2-2.3,2.4-3.4,3.6c-2.4,2.4-4.8,4.7-7.4,6.7c-2.5,2.1-5.1,4.1-7.7,5.9
		c-1.3,0.9-2.6,1.8-3.9,2.6c-1.3,0.8-2.6,1.6-3.8,2.3c-1.2,0.7-2.5,1.4-3.7,2.1c-0.6,0.3-1.2,0.7-1.8,1c-0.6,0.3-1.2,0.6-1.7,0.9
		c-1.1,0.6-2.2,1.1-3.2,1.7c-1,0.5-2,1-3,1.4c-0.7,0.3-1.3,0.6-1.9,0.9l0.8,0.8c0.5-0.2,1.1-0.4,1.6-0.6c1-0.3,2-0.7,3.1-1.1
		c1.1-0.4,2.2-0.9,3.4-1.4c0.6-0.2,1.2-0.5,1.8-0.8c0.6-0.3,1.2-0.6,1.9-0.9c1.3-0.6,2.6-1.2,3.9-1.9c1.3-0.7,2.6-1.4,4-2.2
		c1.4-0.7,2.7-1.6,4.1-2.5c1.4-0.8,2.7-1.8,4.1-2.8c1.4-0.9,2.7-2,4-3c2.7-2.1,5.2-4.5,7.7-6.9c1.2-1.3,2.4-2.5,3.5-3.8
		c1.1-1.3,2.2-2.6,3.2-4c0.5-0.7,1-1.4,1.5-2c0.5-0.7,0.9-1.4,1.4-2.1c1-1.4,1.8-2.8,2.6-4.2c1.6-2.8,3-5.6,4.1-8.4
		c0.6-1.4,1.1-2.7,1.6-4c0.4-1.3,0.9-2.6,1.2-3.9c0.5-1.6,0.8-3.2,1.1-4.6L163.6,129.5z"/>
	<path fill="#E5CF9A" d="M165.1,136.1c0.4,2.7,0.6,5.7,0.7,8.9c0.1,1.6,0,3.2,0,4.9c-0.1,1.7-0.1,3.3-0.3,5.1
		c-0.2,3.4-0.9,6.9-1.5,10.5c-0.4,1.8-0.8,3.5-1.2,5.3c-0.5,1.8-0.9,3.5-1.5,5.3c-0.6,1.7-1.1,3.5-1.8,5.2c-0.3,0.9-0.6,1.7-1,2.6
		c-0.4,0.8-0.7,1.7-1.1,2.5c-0.4,0.8-0.7,1.7-1.1,2.5c-0.4,0.8-0.8,1.6-1.2,2.4c-0.4,0.8-0.8,1.6-1.1,2.4c-0.4,0.8-0.8,1.5-1.2,2.3
		c-1.6,3.1-3.3,5.9-5,8.7c-1.8,2.7-3.3,5.2-5,7.5c-0.8,1.1-1.6,2.2-2.3,3.3c-0.6,0.7-1.1,1.4-1.6,2.1c0.5,0.2,1.1,0.3,1.6,0.5
		c0.4-0.5,0.9-1,1.4-1.5c0.8-1,1.7-2,2.6-3.1c1.8-2.1,3.6-4.6,5.5-7.3c1.8-2.7,3.8-5.5,5.5-8.6c0.4-0.8,0.9-1.5,1.3-2.3
		c0.4-0.8,0.8-1.6,1.3-2.4c0.4-0.8,0.8-1.6,1.3-2.5c0.4-0.8,0.8-1.7,1.1-2.5c0.4-0.9,0.8-1.7,1.1-2.6c0.3-0.9,0.7-1.8,1-2.6
		c0.7-1.8,1.3-3.6,1.9-5.4c0.6-1.8,1-3.7,1.5-5.5c0.5-1.8,0.8-3.7,1.2-5.5c0.3-1.9,0.6-3.7,0.8-5.5c0.1-0.9,0.2-1.8,0.3-2.7
		c0.1-0.9,0.1-1.8,0.2-2.7c0.1-0.9,0.1-1.8,0.1-2.7c0-0.9,0-1.7,0-2.6c-0.1-1.7-0.1-3.4-0.3-5c-0.2-3.3-0.8-6.3-1.4-9.1
		c-0.5-2.7-1.3-5.1-2-7.3l-1.3,0.7C164.4,131.3,164.8,133.6,165.1,136.1z"/>
	<path fill="#E5CF9A" d="M183.9,190.4c-0.1,1.5-0.1,2.9-0.3,4.3c-0.1,1.4-0.2,2.8-0.4,4.1c-0.4,2.7-0.6,5.2-1,7.6c0,0,0,0.1,0,0.1
		l2.1-1.2c0.4-1.9,0.8-4,1.2-6.2c0.4-2.7,0.9-5.6,1-8.6c0.1-0.8,0.1-1.5,0.2-2.3c0-0.8,0.1-1.5,0.1-2.3c0-0.8,0-1.6,0.1-2.3
		c0-0.8,0-1.6,0-2.4c0-0.8,0-1.6-0.1-2.4c0-0.8-0.1-1.6-0.2-2.4l-0.2-2.4l-0.3-2.4c-0.4-3.2-1.1-6.4-1.9-9.5c-0.8-3.1-1.8-6.1-3-8.9
		c-1.1-2.8-2.5-5.4-3.9-7.8c-1.4-2.4-2.9-4.6-4.4-6.5c-3-3.8-5.9-6.6-8.1-8.4c-0.6-0.4-1.1-0.8-1.5-1.2l-0.2,0.1l-0.2-0.4
		c-1.1-0.8-1.7-1.1-1.7-1.1s0.3,0.2,0.9,0.7c0.6,0.5,1.3,1.3,2.3,2.2c1,1,2.1,2.3,3.3,3.7c1.2,1.5,2.5,3.2,3.8,5.2
		c1.3,2,2.6,4.2,3.8,6.5c1.2,2.4,2.4,5,3.4,7.7c1.1,2.7,1.9,5.6,2.7,8.6c0.7,3,1.3,6,1.7,9.1l0.3,2.3l0.2,2.3
		c0.1,0.8,0.2,1.5,0.2,2.3c0,0.8,0.1,1.5,0.1,2.3c0.1,1.5,0.1,3.1,0.1,4.6c0,0.8,0,1.5,0,2.3C184,188.9,183.9,189.7,183.9,190.4z"/>
	<path fill="#E5CF9A" d="M204,189.8c-0.1,1.1-0.2,2.1-0.2,3.1c0,0.4-0.1,0.8-0.1,1.1l1.2-0.7c0-0.1,0-0.2,0.1-0.3
		c0.2-1,0.4-2,0.5-3.1c0.2-1.1,0.3-2.2,0.4-3.4c0.3-2.4,0.5-5,0.7-7.7c0.1-2.8,0.2-5.7,0.1-8.7c0-0.8-0.1-1.5-0.1-2.3
		c-0.1-0.8-0.1-1.5-0.2-2.3c-0.1-0.8-0.1-1.6-0.2-2.3c-0.1-0.8-0.2-1.6-0.3-2.3c-0.1-0.8-0.2-1.6-0.3-2.4c-0.1-0.8-0.3-1.6-0.4-2.4
		l-0.5-2.4l-0.6-2.4c-0.8-3.1-1.8-6.2-2.9-9.2c-1.2-3-2.5-5.8-4-8.4c-1.4-2.7-3.1-5.1-4.8-7.3c-1.6-2.2-3.4-4.2-5.1-5.9
		c-1.1-1.1-2.2-2.1-3.2-3l-1.2,0.7c1,1.1,2.1,2.2,3.2,3.5c1.5,1.8,3.1,3.8,4.5,6.1c1.5,2.2,2.9,4.7,4.2,7.3c1.4,2.6,2.5,5.4,3.6,8.2
		c1,2.9,2,5.8,2.7,8.9l0.6,2.3l0.5,2.3c0.1,0.8,0.3,1.5,0.5,2.3c0.1,0.8,0.2,1.5,0.4,2.3c0.3,1.5,0.4,3,0.6,4.5
		c0.1,0.8,0.2,1.5,0.3,2.2c0.1,0.7,0.1,1.5,0.2,2.2c0.1,1.5,0.2,2.9,0.2,4.3c0,1.4,0.1,2.8,0.1,4.2c0,2.7,0,5.3-0.2,7.6
		C204.1,187.6,204.1,188.8,204,189.8z"/>
	<path fill="#E5CF9A" d="M237.2,171.6c-0.4-2.4-1-4.9-1.6-7.6c-0.7-2.7-1.4-5.5-2.5-8.3c-0.2-0.7-0.5-1.4-0.7-2.2
		c-0.3-0.7-0.6-1.4-0.8-2.2c-0.3-0.7-0.6-1.4-0.9-2.2c-0.3-0.7-0.7-1.4-1-2.2c-0.3-0.7-0.7-1.4-1-2.2c-0.3-0.7-0.7-1.4-1.1-2.1
		l-1.1-2.1l-1.2-2.1c-1.7-2.8-3.6-5.4-5.5-7.9c-2-2.5-4.1-4.8-6.3-6.9c-2.2-2.1-4.4-4-6.7-5.6c-2.2-1.7-4.5-3-6.6-4.2
		c-1.9-1-3.7-1.9-5.3-2.5c-0.1,0.1-0.2,0.1-0.3,0.2l-1,0.6c0,0,0.1,0,0.1,0.1c1.7,0.9,3.6,2,5.5,3.3c2,1.3,4,2.8,6.1,4.5
		c2.1,1.7,4.2,3.6,6.2,5.7c2.1,2.1,4,4.4,5.9,6.8c1.8,2.5,3.6,5,5.2,7.7l1.2,2l1.1,2.1c0.4,0.7,0.8,1.4,1.1,2.1
		c0.3,0.7,0.7,1.4,1,2.1c0.7,1.4,1.3,2.8,1.9,4.2c0.3,0.7,0.6,1.4,0.9,2.1c0.3,0.7,0.5,1.4,0.8,2.1c0.5,1.4,1,2.7,1.5,4.1
		c0.4,1.3,0.9,2.6,1.3,3.9c0.7,2.6,1.5,5,2.1,7.3c0.3,1,0.5,2,0.8,2.9c0.5-0.3,0.9-0.7,1.4-1C237.4,173.1,237.3,172.3,237.2,171.6z"
		/>
</g>
<g>
</g>
<g>
</g>
<g>
</g>
<g>
</g>
<g>
</g>
<g>
</g>
<g>
</g>
<g>
</g>
<g>
</g>
<g>
</g>
<g>
</g>
<g>
</g>
<g>
</g>
<g>
</g>
<g>
</g>
</svg>
