<?xml version="1.0" encoding="utf-8"?>
<!-- Generator: Adobe Illustrator 18.0.0, SVG Export Plug-In . SVG Version: 6.00 Build 0)  -->
<!DOCTYPE svg PUBLIC "-//W3C//DTD SVG 1.1//EN" "http://www.w3.org/Graphics/SVG/1.1/DTD/svg11.dtd">
<svg version="1.1" id="Calque_1" xmlns="http://www.w3.org/2000/svg" xmlns:xlink="http://www.w3.org/1999/xlink" x="0px" y="0px"
	 viewBox="0 0 320.9 361.8" enable-background="new 0 0 320.9 361.8" xml:space="preserve">
<path opacity="0.4" fill="#A54160" stroke="#FFFFFF" stroke-width="2.9586" stroke-miterlimit="10" d="M287.7,359.8H33.5
	c-17.5,0-31.9-14.3-31.9-31.9V32.8C1.6,15.3,16,0.9,33.5,0.9h254.2c17.5,0,31.9,14.3,31.9,31.9v295.1
	C319.6,345.5,305.3,359.8,287.7,359.8z"/>
<g>
	<g>
		<path fill="#F7B9D5" d="M159.6,231.6c-55.9,0-101.4-45.5-101.4-101.4S103.7,28.7,159.6,28.7S261,74.2,261,130.2
			S215.5,231.6,159.6,231.6z"/>
		<g>
			<path fill="#D38DBC" d="M159.6,30.7c55,0,99.5,44.5,99.5,99.5s-44.5,99.5-99.5,99.5s-99.5-44.5-99.5-99.5S104.7,30.7,159.6,30.7
				 M159.6,26.8c-57,0-103.4,46.4-103.4,103.4s46.4,103.4,103.4,103.4S263,187.2,263,130.2S216.6,26.8,159.6,26.8L159.6,26.8z"/>
		</g>
	</g>
	<path fill="#5E3A26" d="M233.6,100.7c0.4,0.3,0.7,0.6,1,0.9c1.1,1.5,1.2,3.5,1.4,5.3c0.5,5.3,2.3,13.3,4.6,18.1
		c1.6,3.3,4.8,6,4.9,9.6c0.1,6.9-10.7,9.5-11.8,16.3c-0.7,4.7,2.3,8.5-0.5,12.7c-2.2,3.2-7.5,5.9-11.2,6.6c-1.4,0.2-2.8,0.3-4,1
		c-1.6,0.8-2.6,2.4-3.5,4c-2.5,4-5.5,8.3-10,9.6c-5.8,1.7-11.1-2-16.6-3.2c-5.8-1.3-10.3,0.1-15.5,2.5c-11.6,5.3-25.4,6-38.1,4.7
		c-4.5-0.5-9.6-1.6-11.9-5.6c-2-3.4-1.2-8.1-3.7-11.2c-2.7-3.3-7.7-3.2-11.9-3c-4.3,0.2-9.4-0.3-11.4-4c-1.3-2.4-0.8-5.3-0.7-8.1
		c0.1-3.6-0.8-7.2-2.4-10.4c-3-5.8-8.8-10.9-9.7-17.7c-1.1-8.2,8.5-12.5,7.8-20.7c-0.5-6.6,0.6-12.7,8.3-14.2c4.6-0.9,9.4,0.2,14,0
		c6.8-0.4,13.1-3.6,19.2-6.9c4.5-2.4,9-4.9,13.9-6.1c10.1-2.5,20.3,0.4,30.3,2.2c11.2,2,19.7,0.5,30.8-1.1c5.8-0.8,12.5,0,16.2,4.5
		c3.1,3.7,3.7,9.3,7.6,12.2C231.4,99.5,232.6,100,233.6,100.7z"/>
	<g>
		<path fill="#562E37" d="M203,160.3c-28.6,11.2-99.7,11.8-99.7-32.9c0-19.4,12.2-24.9,29.6-21c10.9,2.5,22.2,6.4,33.5,5.1
			c10-1.1,18.4-6.1,27.9-8.6c18.5-4.7,36.2,3.6,36.2,24.4C230.5,142.9,217.5,154.6,203,160.3z"/>
		<path fill="#EAB5D6" d="M203,160.3c0,0-0.3,0.1-0.9,0.3c-0.6,0.2-1.4,0.6-2.6,0.9c-2.3,0.8-5.6,1.7-10,2.6
			c-4.3,0.9-9.7,1.7-15.9,2.2c-6.2,0.5-13.2,0.6-20.8,0c-3.8-0.3-7.8-0.8-11.8-1.6c-4-0.8-8.2-1.9-12.3-3.4c-4.1-1.5-8.2-3.5-12-6.2
			c-3.8-2.7-7.2-6.1-9.7-10.3c-2.5-4.2-4-9-4.5-14c-0.1-1.3-0.2-2.5-0.2-3.8c0.1-1.2,0-2.5,0.2-3.7l0.2-1.9c0-0.3,0.1-0.6,0.1-1
			l0.2-0.9l0.4-1.9l0.7-1.8c1-2.4,2.3-4.8,4.3-6.5c1.9-1.8,4.3-3.2,6.8-4c5.1-1.5,10.4-1.3,15.5-0.3c5.1,1,9.9,2.4,14.8,3.6
			c4.9,1.2,9.8,2.1,14.7,2.3c2.5,0.1,4.9,0,7.3-0.4c2.4-0.3,4.7-0.9,7.1-1.6c4.6-1.4,9.1-3.3,13.6-4.8c2.3-0.8,4.5-1.5,6.9-1.9
			c1.1-0.2,2.3-0.5,3.5-0.6c1.2-0.1,2.3-0.3,3.5-0.3c4.6-0.2,9.2,0.5,13.3,2.2c4.1,1.7,7.7,4.4,10.1,7.7c2.5,3.4,3.8,7.3,4.4,11
			c0.1,0.5,0.2,0.9,0.2,1.4c0,0.5,0,0.9,0.1,1.4c0,0.9,0.1,1.9,0.1,2.8c-0.1,0.9-0.1,1.8-0.2,2.7c-0.1,0.9-0.3,1.8-0.4,2.6
			c-0.7,3.4-2.1,6.5-3.7,9.1c-1.6,2.6-3.5,4.9-5.4,6.8c-0.5,0.5-0.9,0.9-1.4,1.4c-0.5,0.4-1,0.8-1.4,1.3c-1,0.7-1.9,1.5-2.8,2.1
			c-3.6,2.6-6.7,4.2-8.9,5.2c-1.1,0.5-1.9,0.8-2.5,1.1C203.3,160.2,203,160.3,203,160.3z M203,160.3c0,0,0.3-0.1,0.9-0.4
			c0.6-0.3,1.4-0.6,2.5-1.1c2.2-1,5.3-2.6,8.9-5.2c0.9-0.6,1.8-1.4,2.8-2.1c0.5-0.4,0.9-0.8,1.4-1.3c0.5-0.4,1-0.9,1.4-1.4
			c1.9-1.9,3.7-4.1,5.3-6.8c1.6-2.6,2.9-5.7,3.7-9.1c0.1-0.9,0.3-1.7,0.4-2.6c0.1-0.9,0.1-1.8,0.1-2.7c0-0.9-0.1-1.8-0.1-2.7
			c0-0.5-0.1-0.9-0.1-1.4c-0.1-0.5-0.2-0.9-0.3-1.4c-0.6-3.7-2-7.5-4.5-10.7c-2.4-3.2-5.9-5.8-9.9-7.3c-4-1.6-8.5-2.1-13-1.9
			c-1.1,0-2.2,0.2-3.4,0.3c-1.1,0.1-2.3,0.4-3.4,0.6c-2.2,0.5-4.5,1.2-6.7,2c-4.5,1.6-8.9,3.6-13.6,5.1c-2.4,0.8-4.8,1.4-7.3,1.8
			c-2.5,0.4-5,0.5-7.6,0.4c-10.2-0.3-20-3.7-29.8-5.7c-4.9-1-10-1.2-14.6,0.2c-2.3,0.7-4.4,1.9-6.2,3.5c-1.8,1.6-3,3.7-3.9,5.9
			l-0.6,1.7l-0.4,1.8l-0.2,0.9c-0.1,0.3-0.1,0.6-0.1,0.9l-0.2,1.8c-0.1,1.2-0.1,2.5-0.2,3.7c0,1.1,0.1,2.4,0.1,3.6
			c0.4,4.8,1.7,9.4,4.1,13.5c2.3,4,5.6,7.4,9.2,10.1c3.6,2.7,7.6,4.7,11.7,6.3c4,1.6,8.1,2.8,12.1,3.6c4,0.8,7.9,1.4,11.7,1.8
			c7.6,0.8,14.6,0.6,20.7,0.2c6.2-0.4,11.5-1.2,15.9-2.1c4.4-0.9,7.7-1.8,10-2.6c1.1-0.3,2-0.7,2.6-0.9
			C202.7,160.4,203,160.3,203,160.3z"/>
	</g>
	<path fill="#EA8BA3" d="M205.5,161c-7-3-22-5-39.5-5c-18.2,0-33.9,2.2-40.4,5.4c23.3,10.7,59.1,7.8,77.4,0.7
		C203.8,161.7,204.7,161.4,205.5,161z"/>
	<ellipse fill="#724C33" cx="111" cy="73.7" rx="3" ry="1.2"/>
	<ellipse fill="#724C33" cx="204.6" cy="196.8" rx="4.7" ry="1.8"/>
	<ellipse fill="#724C33" cx="71.1" cy="143.7" rx="3" ry="1.7"/>
	<ellipse fill="#724C33" cx="245.4" cy="101.3" rx="3" ry="2.4"/>
	<ellipse fill="#724C33" cx="197.7" cy="55.2" rx="4.7" ry="2.7"/>
	<ellipse fill="#724C33" cx="100.2" cy="160.6" rx="2.2" ry="1.7"/>
	<path fill="#724C33" d="M101.6,185.1c0.1,0.3,0.1,0.6,0.2,0.9c1,4.4,2.6,8.1,5,11c0.2,0.3,0.5,0.5,0.7,0.8l3.4-9.3L101.6,185.1z"/>
	<path fill="#724C33" d="M113.7,189.6l-3.9,10.6c2.2,2,4.7,3.6,7.1,5.1c1.9,1.1,3.8,2.3,5.5,3.8l5.3-14.4L113.7,189.6z"/>
	
		<rect x="121.9" y="161.2" transform="matrix(0.938 0.3466 -0.3466 0.938 66.4541 -34.397)" fill="#724C33" width="14.9" height="14.8"/>
	
		<rect x="138.8" y="167.3" transform="matrix(0.938 0.3466 -0.3466 0.938 69.5842 -39.7276)" fill="#724C33" width="14.2" height="14.8"/>
	<path fill="#724C33" d="M166.8,182.7c-4.5-1.7-7.9-5.2-9.6-9.6l-4.5,12.1l13.8,5.1l-0.4,1l-13.8-5.1l-5.4,14.6l13.8,5.1l-0.4,1
		l-13.8-5.1l-5.4,14.6l13.8,5.1l-0.4,1l-13.8-5.1l-3.6,9.8c3.9,0.9,7.8,1.5,11.8,2c1.3-0.2,2.7-0.5,3.6-0.4l16.7-45.3
		C168.6,183.2,167.6,183,166.8,182.7z"/>
	
		<rect x="127.4" y="197.7" transform="matrix(0.938 0.3466 -0.3466 0.938 79.5692 -33.8649)" fill="#724C33" width="14.2" height="15.5"/>
	<path fill="#724C33" d="M116.6,172.9l-13.5-5l-2.8,7.5c0.6,2.6,0.7,5.7,1.1,8.5l9.9,3.6L116.6,172.9z"/>
	
		<rect x="133.1" y="182.1" transform="matrix(0.938 0.3466 -0.3466 0.938 74.5203 -36.8296)" fill="#724C33" width="14.2" height="15.5"/>
	<path fill="#724C33" d="M124.7,211.4l-0.1,0.2c1.3,1.7,2.3,3.7,2.7,6.3c0.3,1.6,0.3,3.4,0.9,4.7c0.5,1,1.4,1.6,2.2,2.1
		c1.3,0.8,2.5,1.3,3.8,1.8l3.7-10.1L124.7,211.4z"/>
	
		<rect x="116.3" y="176.1" transform="matrix(0.938 0.3466 -0.3466 0.938 71.3901 -31.499)" fill="#724C33" width="14.9" height="15.5"/>
	<path fill="#724C33" d="M142.1,164.3l5.3,2c0.9,0.8,2,1.5,3.3,2c1.3,0.5,2.6,0.7,3.8,0.7l0.8,0.3l0.1-0.4l0,0
		c-1.6,0-3.2-0.2-4.8-0.8c-3.9-1.4-6.7-4.4-7.9-7.9c0.1,0.2,0.1,0.4,0.4,1L142.1,164.3z"/>
	
		<rect x="105.6" y="155.1" transform="matrix(-0.938 -0.3466 0.3466 -0.938 162.3134 353.9525)" fill="#724C33" width="14.4" height="14.8"/>
	<path fill="#724C33" d="M139.3,163.2l1.2-3.2c0.8,0.1,1.5,0.1,2.4,0.1c-1.6,0.1-3.2-0.1-4.8-0.7c-6-2.2-9.2-9-7.2-15.4
		c-0.2,0-0.3,0-0.5,0l-5.2,14L139.3,163.2z"/>
	<path fill="#724C33" d="M98.7,171.3l1.6-4.4L88,162.3l0.4-1l12.3,4.6l5.1-13.9l-12.3-4.6l0.4-1l12.3,4.6l6.8-18.3l2.8,1L109,152
		l13.5,5l5-13.6c0,0,0.2,0.1,0.3,0.1c0,0,0,0,0,0c-2.8-1.1-4.5-3.7-3.7-5.9c0.1-0.3,0.1-0.2,0.4-0.8l-24-8.9l-12.8,34.7
		c1.6,0.7,3.4,0.6,4.6,1.5C94.5,165.6,97,168.3,98.7,171.3z"/>
	<polygon fill="#724C33" points="156.1,168.8 156.1,168.8 156.1,168.8 	"/>
	<path fill="#825841" d="M156.3,169.5L156.3,169.5c0,0.2,0.1,0.4,0.1,0.6C156.3,169.9,156.3,169.7,156.3,169.5z"/>
	
		<rect x="124.7" y="160.6" transform="matrix(0.938 0.3466 -0.3466 0.938 64.0436 -35.813)" fill="#825841" width="14.9" height="1.1"/>
	
		<rect x="115" y="147.8" transform="matrix(-0.3466 0.938 -0.938 -0.3466 301.0184 100.346)" fill="#825841" width="1.1" height="14.4"/>
	<path fill="#825841" d="M155.5,169.2l-0.8-0.3c-1.2,0-2.5-0.2-3.8-0.7c-1.3-0.5-2.4-1.2-3.3-2l-5.3-2l-0.4,1l13.3,4.9L155.5,169.2z
		"/>
	
		<rect x="99.3" y="142.6" transform="matrix(0.3466 -0.938 0.938 0.3466 -74.7263 191.1175)" fill="#825841" width="1.1" height="13.1"/>
	
		<rect x="102.8" y="169.4" transform="matrix(-0.938 -0.3466 0.3466 -0.938 154.3974 367.4345)" fill="#825841" width="14.4" height="1.1"/>
	
		<rect x="152.1" y="187.6" transform="matrix(0.938 0.3466 -0.3466 0.938 75.1096 -43.6151)" fill="#825841" width="14.8" height="1.1"/>
	
		<rect x="119.2" y="175.5" transform="matrix(0.938 0.3466 -0.3466 0.938 68.8655 -32.9813)" fill="#825841" width="14.9" height="1.1"/>
	
		<rect x="93.8" y="157.5" transform="matrix(0.3466 -0.938 0.938 0.3466 -92.2974 195.6881)" fill="#825841" width="1.1" height="13.1"/>
	
		<rect x="136" y="181.6" transform="matrix(0.938 0.3466 -0.3466 0.938 71.9957 -38.312)" fill="#825841" width="14.2" height="1.1"/>
	<path fill="#825841" d="M111.3,187.5l-9.9-3.6c0.1,0.4,0.1,0.8,0.2,1.2l9.3,3.4L111.3,187.5z"/>
	
		<rect x="113.4" y="191.1" transform="matrix(0.938 0.3466 -0.3466 0.938 73.9155 -30.0169)" fill="#825841" width="14.9" height="1.1"/>
	
		<rect x="130.2" y="197.2" transform="matrix(0.938 0.3466 -0.3466 0.938 77.0446 -35.3472)" fill="#825841" width="14.2" height="1.1"/>
	
		<rect x="146.3" y="203.2" transform="matrix(0.938 0.3466 -0.3466 0.938 80.1588 -40.6504)" fill="#825841" width="14.8" height="1.1"/>
	
		<rect x="124.5" y="212.8" transform="matrix(0.938 0.3466 -0.3466 0.938 82.0938 -32.3825)" fill="#825841" width="14.2" height="1.1"/>
	
		<rect x="140.6" y="218.8" transform="matrix(0.938 0.3466 -0.3466 0.938 85.2071 -37.6855)" fill="#825841" width="14.8" height="1.1"/>
	<path fill="#663C31" d="M103.5,166.9l5.1-13.9l0.4-1l6.8-18.3l-2.8-1l-6.8,18.3l-0.4,1l-5.1,13.9l-0.4,1l-1.6,4.4
		c0.5,0.9,1,1.8,1.3,2.7c0.2,0.4,0.3,0.9,0.4,1.4l2.8-7.5L103.5,166.9z"/>
	<path fill="#663C31" d="M127.5,143.5l-5,13.6l-0.4,1l-5.1,13.9l-0.4,1l-5.4,14.6l-0.4,1l-3.4,9.3c0.7,0.8,1.5,1.6,2.3,2.3l3.9-10.6
		l0.4-1l5.4-14.6l0.4-1l5.1-13.9l0.4-1l5.2-14l0,0c-0.8,0.1-1.8-0.1-2.7-0.4c0,0,0,0,0,0C127.7,143.5,127.5,143.5,127.5,143.5z"/>
	<path fill="#663C31" d="M140.5,160l-1.2,3.2l-0.4,1l-5.1,13.9l-0.4,1l-5.4,14.6l-0.4,1l-5.3,14.4c0.1,0.1,0.3,0.3,0.4,0.4
		c0.6,0.5,1.1,1.1,1.6,1.8c0.1,0.1,0.2,0.2,0.2,0.3l0.1-0.2l0.4-1l5.4-14.6l0.4-1l5.4-14.6l0.4-1l5.1-13.9l0.4-1l1.2-3.2
		c-0.2-0.6-0.3-0.8-0.4-1C142.1,160.1,141.3,160.1,140.5,160z"/>
	<path fill="#663C31" d="M154.3,169.2l0.2,1l-4.8,13.9l-0.2,1l-5.3,14.6l-0.3,1l-5.4,14.6l-0.4,1l-3.7,10.1c0.9,0.3,1.9,0.6,2.9,0.8
		l3.7-9.9l0.4-1l5.4-14.6l0.4-1l5.4-14.6l0.4-1l4.5-12.1l0,0c-0.2-0.9-0.6-1.9-0.8-3c0-0.2-1.5-0.4-1.5-0.6c0-0.2-1.5-0.5-1.5-0.7
		v1.1c0,0,2.8,0,2.8,0c-0.2,0-2.8-1.1-2.8-1.1v0L154.3,169.2z"/>
	<g>
		<path fill="#E54848" d="M153.2,228.9l0-0.1L153.2,228.9C153.2,228.8,153.2,228.9,153.2,228.9z"/>
		<path fill="#E54848" d="M149,229.1c1.3,0.1,2.6,0.2,3.9,0.3l0.3-0.6c-0.1-0.1-0.3-0.1-0.6-0.2C151.8,228.6,150.3,228.9,149,229.1z
			"/>
		<path fill="#E54848" d="M153.1,228.6l0.1,0.2l0.2-0.5C153.3,228.3,153.2,228.6,153.1,228.6z"/>
		<path fill="#E54848" d="M134.1,226.4c-1.2-0.4-2.4-1-3.6-1.7c-0.9-0.5-1.7-1.1-2.2-2.1c-0.6-1.3-0.7-3.1-0.9-4.7
			c-0.4-2.6-1.4-4.6-2.7-6.3c-0.1-0.1-0.2-0.2-0.2-0.3c-0.5-0.6-1-1.2-1.6-1.8c-0.1-0.1-0.3-0.3-0.4-0.4c-1.7-1.5-3.6-2.7-5.5-3.8
			c-2.5-1.5-4.9-3.1-7.1-5.1c-0.8-0.7-1.6-1.5-2.3-2.3c-0.2-0.3-0.5-0.5-0.7-0.8c-2.4-2.9-4-6.6-5-11c-0.1-0.3-0.1-0.6-0.2-0.9
			c-0.1-0.4-0.1-0.8-0.2-1.2c-0.4-2.8-0.5-5.8-1.1-8.5c-0.1-0.5-0.2-0.9-0.4-1.4c-0.3-0.9-0.7-1.8-1.3-2.7c-1.7-2.9-4.2-5.7-6.2-7.1
			c-1.2-0.9-3.1-0.8-4.6-1.5c-0.5-0.2-2-0.5-2.4-0.8c0,0-3.5,9.1-9,23C89.7,205,110.1,220,134.1,226.4z"/>
	</g>
</g>
<g>
	<g>
		<path fill="#FFFFFF" d="M73.4,284.4v-20.6H76V282h11.5v2.3H73.4z"/>
		<path fill="#FFFFFF" d="M94.6,284.6c-1.6,0-2.8-0.5-3.6-1.6c-0.8-1.1-1.2-2.6-1.2-4.8v-9.1h2.6v8.6c0,3.1,1.1,4.6,3.2,4.6
			c1,0,2-0.3,2.9-1c0.9-0.7,1.6-1.6,2-2.7v-9.5h2.6v12c0,0.6,0.3,0.9,0.8,0.9v2.2c-0.3,0-0.5,0.1-0.7,0.1c-0.2,0-0.3,0-0.5,0
			c-0.5,0-0.9-0.1-1.3-0.4c-0.3-0.3-0.5-0.7-0.5-1.1l-0.1-1.8c-0.7,1.1-1.6,2-2.7,2.6C97.1,284.3,95.9,284.6,94.6,284.6z"/>
		<path fill="#FFFFFF" d="M120.5,284.4h-2.6v-8.5c0-1.6-0.2-2.8-0.7-3.5c-0.5-0.7-1.2-1.1-2.2-1.1c-0.5,0-1,0.1-1.6,0.3
			s-1,0.5-1.5,0.8c-0.5,0.3-0.9,0.8-1.2,1.2c-0.3,0.5-0.6,1-0.8,1.6v9.1h-2.6v-15.1h2.3v3.2c0.6-1.1,1.5-1.9,2.6-2.6
			c1.1-0.6,2.4-1,3.7-1c0.9,0,1.6,0.2,2.2,0.5c0.6,0.3,1,0.8,1.4,1.3c0.3,0.6,0.6,1.2,0.7,2s0.2,1.6,0.2,2.5V284.4z"/>
		<path fill="#FFFFFF" d="M128.3,284.6c-0.7,0-1.4-0.1-2-0.4s-1.2-0.6-1.6-1c-0.5-0.4-0.8-0.9-1.1-1.5c-0.3-0.6-0.4-1.2-0.4-1.9
			c0-0.7,0.2-1.3,0.5-1.9c0.3-0.6,0.7-1.1,1.3-1.5c0.6-0.4,1.2-0.7,2-1c0.8-0.2,1.6-0.3,2.6-0.3c0.7,0,1.5,0.1,2.2,0.2
			c0.8,0.1,1.4,0.3,2,0.6v-1.2c0-1.2-0.3-2.2-1-2.9c-0.7-0.7-1.7-1.1-3-1.1c-1.5,0-3.1,0.6-4.8,1.8l-0.8-1.7c2-1.3,3.9-2,5.9-2
			c2,0,3.5,0.5,4.7,1.6c1.1,1.1,1.7,2.6,1.7,4.5v6.2c0,0.6,0.3,0.9,0.8,0.9v2.2c-0.3,0-0.5,0.1-0.7,0.1c-0.2,0-0.4,0-0.6,0
			c-0.5,0-0.9-0.2-1.2-0.4c-0.3-0.3-0.5-0.7-0.5-1.1l-0.1-1.1c-0.7,0.9-1.5,1.6-2.6,2.1C130.6,284.4,129.5,284.6,128.3,284.6z
			 M129,282.7c0.9,0,1.8-0.2,2.5-0.5c0.8-0.3,1.4-0.8,1.8-1.3c0.4-0.4,0.6-0.7,0.6-1.1v-2.2c-1.2-0.5-2.5-0.7-3.9-0.7
			c-1.3,0-2.3,0.3-3.1,0.8s-1.2,1.2-1.2,2.1c0,0.4,0.1,0.8,0.2,1.2c0.2,0.4,0.4,0.7,0.7,1c0.3,0.3,0.7,0.5,1.1,0.6
			C128.1,282.7,128.5,282.7,129,282.7z"/>
		<path fill="#FFFFFF" d="M170.7,284.4h-2.6v-8.5c0-1.6-0.3-2.8-0.8-3.5c-0.5-0.8-1.3-1.1-2.3-1.1c-1,0-2,0.4-2.8,1.1
			s-1.4,1.7-1.8,2.9v9.1H158v-8.5c0-1.6-0.3-2.8-0.8-3.5s-1.3-1.1-2.3-1.1c-1,0-2,0.4-2.8,1.1c-0.8,0.7-1.4,1.7-1.8,2.9v9.1h-2.6
			v-15.1h2.3v3.2c0.6-1.1,1.4-2,2.4-2.6c1-0.6,2.1-0.9,3.3-0.9c1.3,0,2.3,0.3,3,1c0.7,0.7,1.2,1.6,1.4,2.7c1.4-2.5,3.3-3.7,5.8-3.7
			c0.9,0,1.6,0.2,2.2,0.5c0.6,0.3,1.1,0.8,1.4,1.3c0.3,0.6,0.6,1.2,0.8,2c0.2,0.8,0.2,1.6,0.2,2.5V284.4z"/>
		<path fill="#FFFFFF" d="M178.5,284.6c-0.7,0-1.4-0.1-2-0.4c-0.6-0.2-1.2-0.6-1.6-1c-0.5-0.4-0.8-0.9-1.1-1.5
			c-0.3-0.6-0.4-1.2-0.4-1.9c0-0.7,0.2-1.3,0.5-1.9c0.3-0.6,0.7-1.1,1.3-1.5c0.6-0.4,1.2-0.7,2-1c0.8-0.2,1.6-0.3,2.6-0.3
			c0.7,0,1.5,0.1,2.2,0.2c0.8,0.1,1.4,0.3,2,0.6v-1.2c0-1.2-0.3-2.2-1-2.9c-0.7-0.7-1.7-1.1-3-1.1c-1.5,0-3.1,0.6-4.8,1.8l-0.8-1.7
			c2-1.3,3.9-2,5.9-2c2,0,3.5,0.5,4.7,1.6c1.1,1.1,1.7,2.6,1.7,4.5v6.2c0,0.6,0.3,0.9,0.8,0.9v2.2c-0.3,0-0.5,0.1-0.7,0.1
			s-0.4,0-0.6,0c-0.5,0-0.9-0.2-1.2-0.4c-0.3-0.3-0.5-0.7-0.5-1.1l-0.1-1.1c-0.7,0.9-1.5,1.6-2.6,2.1
			C180.8,284.4,179.7,284.6,178.5,284.6z M179.2,282.7c0.9,0,1.8-0.2,2.5-0.5c0.8-0.3,1.4-0.8,1.8-1.3c0.4-0.4,0.6-0.7,0.6-1.1v-2.2
			c-1.2-0.5-2.5-0.7-3.9-0.7c-1.3,0-2.3,0.3-3.1,0.8c-0.8,0.5-1.2,1.2-1.2,2.1c0,0.4,0.1,0.8,0.2,1.2c0.2,0.4,0.4,0.7,0.7,1
			s0.7,0.5,1.1,0.6C178.3,282.7,178.7,282.7,179.2,282.7z"/>
		<path fill="#FFFFFF" d="M203.8,284.4h-2.6v-8.5c0-1.6-0.2-2.8-0.7-3.5c-0.5-0.7-1.2-1.1-2.2-1.1c-0.5,0-1,0.1-1.6,0.3
			c-0.5,0.2-1,0.5-1.5,0.8c-0.5,0.3-0.9,0.8-1.2,1.2c-0.3,0.5-0.6,1-0.8,1.6v9.1h-2.6v-15.1h2.3v3.2c0.6-1.1,1.5-1.9,2.6-2.6
			c1.1-0.6,2.4-1,3.7-1c0.9,0,1.6,0.2,2.2,0.5c0.6,0.3,1,0.8,1.4,1.3s0.6,1.2,0.7,2c0.1,0.8,0.2,1.6,0.2,2.5V284.4z"/>
		<path fill="#FFFFFF" d="M213.8,284.5c-1,0-2-0.2-2.8-0.6c-0.9-0.4-1.6-1-2.2-1.7c-0.6-0.7-1.1-1.5-1.4-2.5
			c-0.3-0.9-0.5-1.9-0.5-2.9c0-1.1,0.2-2.1,0.5-3c0.3-1,0.8-1.8,1.4-2.5c0.6-0.7,1.4-1.3,2.2-1.7c0.9-0.4,1.8-0.6,2.9-0.6
			c1.3,0,2.4,0.3,3.3,0.9c0.9,0.6,1.7,1.4,2.3,2.3v-3h2.3v15c0,1.1-0.2,2-0.6,2.9c-0.4,0.8-1,1.5-1.7,2.1c-0.7,0.6-1.5,1-2.5,1.3
			c-0.9,0.3-1.9,0.4-3,0.4c-1.7,0-3.1-0.3-4.2-0.9c-1.1-0.6-2-1.4-2.7-2.5l1.5-1.3c0.6,0.9,1.4,1.6,2.3,2c0.9,0.4,2,0.7,3.1,0.7
			c0.7,0,1.4-0.1,2-0.3c0.6-0.2,1.2-0.5,1.6-0.9c0.5-0.4,0.8-0.9,1.1-1.5c0.3-0.6,0.4-1.3,0.4-2.1v-2.7c-0.3,0.5-0.6,0.9-1,1.3
			s-0.8,0.7-1.3,1c-0.5,0.3-1,0.5-1.5,0.6C214.9,284.5,214.4,284.5,213.8,284.5z M214.6,282.4c0.5,0,1.1-0.1,1.6-0.3s1-0.4,1.4-0.8
			c0.4-0.3,0.8-0.7,1.1-1.1c0.3-0.4,0.5-0.8,0.6-1.2v-4.3c-0.2-0.5-0.5-1-0.8-1.4c-0.3-0.4-0.7-0.8-1.1-1.1
			c-0.4-0.3-0.9-0.6-1.4-0.7c-0.5-0.2-1-0.3-1.5-0.3c-0.8,0-1.5,0.2-2.1,0.5c-0.6,0.3-1.1,0.8-1.6,1.3c-0.4,0.5-0.8,1.2-1,1.8
			c-0.2,0.7-0.3,1.4-0.3,2.1c0,0.8,0.1,1.5,0.4,2.1c0.3,0.7,0.6,1.3,1.1,1.8c0.5,0.5,1,0.9,1.6,1.2S213.9,282.4,214.6,282.4z"/>
		<path fill="#FFFFFF" d="M232.6,284.6c-1.1,0-2.2-0.2-3.1-0.6c-0.9-0.4-1.8-1-2.4-1.7c-0.7-0.7-1.2-1.6-1.6-2.5s-0.6-2-0.6-3
			c0-1.1,0.2-2.1,0.6-3s0.9-1.8,1.6-2.5c0.7-0.7,1.5-1.3,2.5-1.7c0.9-0.4,2-0.6,3.1-0.6c1.1,0,2.2,0.2,3.1,0.6
			c0.9,0.4,1.7,1,2.4,1.7s1.2,1.5,1.5,2.5c0.4,0.9,0.5,1.9,0.5,2.9c0,0.2,0,0.4,0,0.6s0,0.3,0,0.4h-12.6c0.1,0.8,0.2,1.4,0.5,2.1
			s0.7,1.2,1.1,1.6s1,0.8,1.6,1c0.6,0.3,1.2,0.4,1.9,0.4c0.5,0,0.9-0.1,1.4-0.2c0.4-0.1,0.9-0.3,1.2-0.5c0.4-0.2,0.7-0.5,1-0.8
			c0.3-0.3,0.5-0.7,0.7-1l2.2,0.6c-0.3,0.6-0.6,1.1-1,1.5c-0.4,0.5-0.9,0.9-1.5,1.2c-0.6,0.3-1.2,0.6-1.9,0.8
			S233.4,284.6,232.6,284.6z M237.8,275.8c-0.1-0.7-0.2-1.4-0.5-2c-0.3-0.6-0.7-1.1-1.1-1.6c-0.5-0.4-1-0.8-1.6-1
			c-0.6-0.2-1.2-0.4-1.9-0.4c-0.7,0-1.3,0.1-1.9,0.4c-0.6,0.2-1.1,0.6-1.6,1s-0.8,1-1.1,1.6s-0.4,1.3-0.5,2H237.8z"/>
		<path fill="#FFFFFF" d="M87.3,319.4c-1,0-2-0.2-2.9-0.6c-0.9-0.4-1.7-1-2.3-1.7s-1.1-1.5-1.5-2.5c-0.4-0.9-0.5-1.9-0.5-3
			c0-1.1,0.2-2.1,0.5-3c0.3-1,0.8-1.8,1.4-2.5c0.6-0.7,1.3-1.3,2.2-1.7c0.8-0.4,1.8-0.6,2.8-0.6c1.2,0,2.3,0.3,3.3,1
			c1,0.6,1.7,1.4,2.3,2.3v-9H95v18c0,0.6,0.3,0.9,0.8,0.9v2.2c-0.3,0-0.5,0.1-0.7,0.1c-0.2,0-0.3,0-0.5,0c-0.5,0-0.9-0.2-1.3-0.5
			c-0.4-0.3-0.6-0.7-0.6-1.2v-1.3c-0.6,1-1.4,1.8-2.4,2.3C89.4,319.2,88.4,319.4,87.3,319.4z M87.9,317.2c0.5,0,0.9-0.1,1.4-0.3
			c0.5-0.2,1-0.4,1.4-0.7c0.4-0.3,0.8-0.7,1.1-1.1c0.3-0.4,0.5-0.9,0.6-1.3v-4.4c-0.2-0.5-0.4-0.9-0.8-1.4c-0.3-0.4-0.7-0.8-1.2-1.1
			c-0.4-0.3-0.9-0.6-1.4-0.8c-0.5-0.2-1-0.3-1.5-0.3c-0.8,0-1.4,0.2-2,0.5c-0.6,0.3-1.1,0.7-1.6,1.3s-0.8,1.1-1,1.8
			s-0.3,1.4-0.3,2.1c0,0.8,0.1,1.5,0.4,2.2c0.3,0.7,0.6,1.3,1.1,1.8c0.5,0.5,1,0.9,1.6,1.2C86.4,317.1,87.1,317.2,87.9,317.2z"/>
		<path fill="#FFFFFF" d="M103.9,319.4c-1.6,0-2.8-0.5-3.6-1.6c-0.8-1.1-1.2-2.6-1.2-4.8V304h2.6v8.6c0,3.1,1.1,4.6,3.2,4.6
			c1,0,2-0.3,2.9-1c0.9-0.7,1.6-1.6,2-2.7V304h2.6v12c0,0.6,0.3,0.9,0.8,0.9v2.2c-0.3,0-0.5,0.1-0.7,0.1c-0.2,0-0.3,0-0.5,0
			c-0.5,0-0.9-0.1-1.3-0.4c-0.3-0.3-0.5-0.7-0.5-1.1l-0.1-1.8c-0.7,1.1-1.6,2-2.7,2.6C106.5,319.1,105.2,319.4,103.9,319.4z"/>
		<path fill="#FFFFFF" d="M123,311.6c0-1.1,0.2-2.1,0.6-3c0.4-0.9,0.9-1.8,1.6-2.5c0.7-0.7,1.5-1.3,2.4-1.7c0.9-0.4,2-0.6,3.1-0.6
			c1.5,0,2.8,0.3,3.9,1s1.9,1.6,2.5,2.7l-2.5,0.8c-0.4-0.7-0.9-1.3-1.6-1.7c-0.7-0.4-1.5-0.6-2.3-0.6c-0.7,0-1.4,0.1-2,0.4
			c-0.6,0.3-1.2,0.7-1.6,1.2c-0.4,0.5-0.8,1.1-1.1,1.8c-0.3,0.7-0.4,1.4-0.4,2.2c0,0.8,0.1,1.5,0.4,2.2c0.3,0.7,0.6,1.3,1.1,1.8
			c0.5,0.5,1,0.9,1.6,1.2c0.6,0.3,1.3,0.4,2,0.4c0.4,0,0.9-0.1,1.3-0.2s0.8-0.3,1.2-0.5c0.4-0.2,0.7-0.5,0.9-0.7
			c0.3-0.3,0.5-0.6,0.6-0.9l2.5,0.8c-0.2,0.6-0.6,1.1-1,1.5c-0.4,0.5-0.9,0.9-1.5,1.2c-0.6,0.3-1.2,0.6-1.9,0.8
			c-0.7,0.2-1.4,0.3-2.2,0.3c-1.1,0-2.2-0.2-3.1-0.6c-0.9-0.4-1.8-1-2.4-1.7s-1.2-1.6-1.6-2.5S123,312.6,123,311.6z"/>
		<path fill="#FFFFFF" d="M153.2,319.2h-2.6v-8.5c0-1.6-0.3-2.7-0.8-3.5c-0.5-0.8-1.3-1.1-2.4-1.1c-0.5,0-1,0.1-1.5,0.3
			c-0.5,0.2-1,0.5-1.4,0.8c-0.4,0.3-0.8,0.8-1.2,1.2c-0.3,0.5-0.6,1-0.8,1.6v9.1h-2.6V298h2.6v9.3c0.6-1.1,1.4-2,2.4-2.6
			c1-0.6,2.1-0.9,3.4-0.9c0.9,0,1.6,0.2,2.3,0.5c0.6,0.3,1.1,0.8,1.5,1.3s0.6,1.2,0.8,2c0.2,0.8,0.2,1.6,0.2,2.5V319.2z"/>
		<path fill="#FFFFFF" d="M163.8,319.4c-1.1,0-2.2-0.2-3.1-0.6c-0.9-0.4-1.7-1-2.4-1.7s-1.2-1.5-1.6-2.5c-0.4-0.9-0.6-1.9-0.6-3
			c0-1.1,0.2-2.1,0.6-3c0.4-0.9,0.9-1.8,1.6-2.5s1.5-1.3,2.4-1.7c0.9-0.4,2-0.6,3.1-0.6c1.1,0,2.2,0.2,3.1,0.6
			c0.9,0.4,1.8,1,2.4,1.7s1.2,1.5,1.6,2.5c0.4,0.9,0.6,2,0.6,3c0,1-0.2,2-0.6,3s-0.9,1.8-1.6,2.5s-1.5,1.3-2.4,1.7
			C166,319.2,165,319.4,163.8,319.4z M158.8,311.6c0,0.8,0.1,1.5,0.4,2.2c0.3,0.7,0.6,1.3,1.1,1.8c0.5,0.5,1,0.9,1.6,1.2
			c0.6,0.3,1.3,0.4,2,0.4s1.3-0.1,2-0.4c0.6-0.3,1.1-0.7,1.6-1.2c0.5-0.5,0.8-1.1,1.1-1.8s0.4-1.4,0.4-2.2c0-0.8-0.1-1.5-0.4-2.2
			c-0.3-0.7-0.6-1.3-1.1-1.8c-0.5-0.5-1-0.9-1.6-1.2c-0.6-0.3-1.3-0.4-2-0.4s-1.3,0.2-2,0.4c-0.6,0.3-1.1,0.7-1.6,1.2
			c-0.5,0.5-0.8,1.1-1.1,1.8C158.9,310.1,158.8,310.9,158.8,311.6z"/>
		<path fill="#FFFFFF" d="M173.6,311.6c0-1.1,0.2-2.1,0.6-3s0.9-1.8,1.6-2.5c0.7-0.7,1.5-1.3,2.4-1.7s2-0.6,3.1-0.6
			c1.5,0,2.8,0.3,3.9,1c1.1,0.7,1.9,1.6,2.5,2.7l-2.5,0.8c-0.4-0.7-0.9-1.3-1.6-1.7c-0.7-0.4-1.5-0.6-2.3-0.6c-0.7,0-1.4,0.1-2,0.4
			c-0.6,0.3-1.2,0.7-1.6,1.2c-0.4,0.5-0.8,1.1-1.1,1.8c-0.3,0.7-0.4,1.4-0.4,2.2c0,0.8,0.1,1.5,0.4,2.2c0.3,0.7,0.6,1.3,1.1,1.8
			c0.5,0.5,1,0.9,1.6,1.2c0.6,0.3,1.3,0.4,2,0.4c0.4,0,0.9-0.1,1.3-0.2c0.4-0.1,0.8-0.3,1.2-0.5s0.7-0.5,0.9-0.7
			c0.3-0.3,0.5-0.6,0.6-0.9l2.5,0.8c-0.2,0.6-0.6,1.1-1,1.5c-0.4,0.5-0.9,0.9-1.5,1.2c-0.6,0.3-1.2,0.6-1.9,0.8s-1.4,0.3-2.2,0.3
			c-1.1,0-2.2-0.2-3.1-0.6c-0.9-0.4-1.8-1-2.4-1.7s-1.2-1.6-1.6-2.5S173.6,312.6,173.6,311.6z"/>
		<path fill="#FFFFFF" d="M197.1,319.4c-1.1,0-2.2-0.2-3.1-0.6c-0.9-0.4-1.7-1-2.4-1.7s-1.2-1.5-1.6-2.5s-0.6-1.9-0.6-3
			c0-1.1,0.2-2.1,0.6-3c0.4-0.9,0.9-1.8,1.6-2.5s1.5-1.3,2.4-1.7c0.9-0.4,2-0.6,3.1-0.6c1.1,0,2.2,0.2,3.1,0.6
			c0.9,0.4,1.8,1,2.4,1.7s1.2,1.5,1.6,2.5c0.4,0.9,0.6,2,0.6,3c0,1-0.2,2-0.6,3s-0.9,1.8-1.6,2.5s-1.5,1.3-2.4,1.7
			C199.3,319.2,198.2,319.4,197.1,319.4z M192.1,311.6c0,0.8,0.1,1.5,0.4,2.2c0.3,0.7,0.6,1.3,1.1,1.8s1,0.9,1.6,1.2
			c0.6,0.3,1.3,0.4,2,0.4s1.3-0.1,2-0.4c0.6-0.3,1.1-0.7,1.6-1.2c0.5-0.5,0.8-1.1,1.1-1.8s0.4-1.4,0.4-2.2c0-0.8-0.1-1.5-0.4-2.2
			c-0.3-0.7-0.6-1.3-1.1-1.8c-0.5-0.5-1-0.9-1.6-1.2c-0.6-0.3-1.3-0.4-2-0.4s-1.3,0.2-2,0.4c-0.6,0.3-1.1,0.7-1.6,1.2
			s-0.8,1.1-1.1,1.8C192.2,310.1,192.1,310.9,192.1,311.6z"/>
		<path fill="#FFFFFF" d="M207.9,298h2.6v17.3c0,0.6,0.1,1,0.5,1.3c0.3,0.3,0.7,0.5,1.3,0.5c0.2,0,0.5,0,0.8-0.1
			c0.3-0.1,0.6-0.1,0.8-0.2l0.4,2.1c-0.4,0.2-0.9,0.3-1.5,0.4c-0.6,0.1-1.1,0.2-1.5,0.2c-1,0-1.8-0.3-2.3-0.8
			c-0.6-0.6-0.9-1.3-0.9-2.3V298z"/>
		<path fill="#FFFFFF" d="M220,319.4c-0.7,0-1.4-0.1-2-0.4c-0.6-0.2-1.2-0.6-1.6-1c-0.5-0.4-0.8-0.9-1.1-1.5s-0.4-1.2-0.4-1.9
			c0-0.7,0.2-1.3,0.5-1.9s0.7-1.1,1.3-1.5s1.2-0.7,2-1s1.6-0.3,2.6-0.3c0.7,0,1.5,0.1,2.2,0.2c0.8,0.1,1.4,0.3,2,0.6v-1.2
			c0-1.2-0.3-2.2-1-2.9c-0.7-0.7-1.7-1.1-3-1.1c-1.5,0-3.1,0.6-4.8,1.8l-0.8-1.7c2-1.3,3.9-2,5.9-2c2,0,3.5,0.5,4.7,1.6
			c1.1,1.1,1.7,2.6,1.7,4.5v6.2c0,0.6,0.3,0.9,0.8,0.9v2.2c-0.3,0-0.5,0.1-0.7,0.1c-0.2,0-0.4,0-0.6,0c-0.5,0-0.9-0.1-1.2-0.5
			c-0.3-0.3-0.5-0.7-0.5-1.1l-0.1-1.1c-0.7,0.9-1.5,1.6-2.6,2.1C222.3,319.2,221.2,319.4,220,319.4z M220.7,317.5
			c0.9,0,1.8-0.2,2.5-0.5c0.8-0.3,1.4-0.8,1.8-1.3c0.4-0.4,0.6-0.7,0.6-1.1v-2.2c-1.2-0.5-2.5-0.7-3.9-0.7c-1.3,0-2.3,0.3-3.1,0.8
			c-0.8,0.5-1.2,1.2-1.2,2.1c0,0.4,0.1,0.8,0.2,1.2s0.4,0.7,0.7,1c0.3,0.3,0.7,0.5,1.1,0.6C219.8,317.5,220.2,317.5,220.7,317.5z"/>
		<path fill="#FFFFFF" d="M239.9,318.4c-0.2,0.1-0.4,0.2-0.6,0.3c-0.3,0.1-0.5,0.2-0.9,0.3c-0.3,0.1-0.7,0.2-1,0.3
			c-0.4,0.1-0.8,0.1-1.2,0.1c-0.9,0-1.7-0.3-2.4-0.8s-1-1.3-1-2.4V306h-2.1v-2h2.1v-5h2.6v5h3.4v2h-3.4v9.4c0,0.6,0.2,1,0.6,1.2
			c0.3,0.3,0.7,0.4,1.2,0.4c0.5,0,1-0.1,1.4-0.2s0.7-0.3,0.9-0.4L239.9,318.4z"/>
	</g>
</g>
<g>
</g>
<g>
</g>
<g>
</g>
<g>
</g>
<g>
</g>
<g>
</g>
<g>
</g>
<g>
</g>
<g>
</g>
<g>
</g>
<g>
</g>
<g>
</g>
<g>
</g>
<g>
</g>
<g>
</g>
</svg>
