<?xml version="1.0" encoding="utf-8"?>
<!-- Generator: Adobe Illustrator 18.0.0, SVG Export Plug-In . SVG Version: 6.00 Build 0)  -->
<!DOCTYPE svg PUBLIC "-//W3C//DTD SVG 1.1//EN" "http://www.w3.org/Graphics/SVG/1.1/DTD/svg11.dtd">
<svg version="1.1" id="Calque_1" xmlns="http://www.w3.org/2000/svg" xmlns:xlink="http://www.w3.org/1999/xlink" x="0px" y="0px"
	 viewBox="0 0 320.9 361.8" enable-background="new 0 0 320.9 361.8" xml:space="preserve">
<path opacity="0.4" fill="#A54160" stroke="#FFFFFF" stroke-width="2.9586" stroke-miterlimit="10" d="M287.6,360.3H33.4
	c-17.5,0-31.9-14.3-31.9-31.9V33.4c0-17.5,14.3-31.9,31.9-31.9h254.2c17.5,0,31.9,14.3,31.9,31.9v295.1
	C319.5,346,305.1,360.3,287.6,360.3z"/>
<g>
	<path fill="#FFFFFF" d="M24.8,302.3v-20.6h2.6V300h11.5v2.3H24.8z"/>
	<path fill="#FFFFFF" d="M46,302.6c-1.6,0-2.8-0.5-3.6-1.6c-0.8-1.1-1.2-2.6-1.2-4.8v-9.1h2.6v8.6c0,3.1,1.1,4.6,3.2,4.6
		c1,0,2-0.3,2.9-1c0.9-0.7,1.6-1.6,2-2.7v-9.5h2.6v12c0,0.6,0.3,0.9,0.8,0.9v2.2c-0.3,0-0.5,0.1-0.7,0.1c-0.2,0-0.3,0-0.5,0
		c-0.5,0-0.9-0.2-1.3-0.4c-0.3-0.3-0.5-0.7-0.5-1.1l-0.1-1.8c-0.7,1.1-1.6,2-2.7,2.6S47.3,302.6,46,302.6z"/>
	<path fill="#FFFFFF" d="M71.8,302.3h-2.6v-8.5c0-1.6-0.2-2.8-0.7-3.5c-0.5-0.7-1.2-1.1-2.2-1.1c-0.5,0-1,0.1-1.6,0.3
		s-1,0.5-1.5,0.8c-0.5,0.3-0.9,0.8-1.2,1.2s-0.6,1-0.8,1.6v9.1h-2.6v-15.1H61v3.2c0.6-1.1,1.5-1.9,2.6-2.6c1.1-0.6,2.4-1,3.7-1
		c0.9,0,1.6,0.2,2.2,0.5c0.6,0.3,1,0.8,1.4,1.3c0.3,0.6,0.6,1.2,0.7,2s0.2,1.6,0.2,2.5V302.3z"/>
	<path fill="#FFFFFF" d="M79.7,302.6c-0.7,0-1.4-0.1-2-0.4c-0.6-0.2-1.2-0.6-1.6-1c-0.5-0.4-0.8-0.9-1.1-1.5
		c-0.3-0.6-0.4-1.2-0.4-1.9c0-0.7,0.2-1.3,0.5-1.9c0.3-0.6,0.7-1.1,1.3-1.5s1.2-0.7,2-1c0.8-0.2,1.6-0.3,2.6-0.3
		c0.7,0,1.5,0.1,2.2,0.2s1.4,0.3,2,0.6v-1.2c0-1.2-0.3-2.2-1-2.9c-0.7-0.7-1.7-1.1-3-1.1c-1.5,0-3.1,0.6-4.8,1.8l-0.8-1.7
		c2-1.3,3.9-2,5.9-2c2,0,3.5,0.5,4.7,1.6c1.1,1.1,1.7,2.6,1.7,4.5v6.2c0,0.6,0.3,0.9,0.8,0.9v2.2c-0.3,0-0.5,0.1-0.7,0.1
		c-0.2,0-0.4,0-0.6,0c-0.5,0-0.9-0.2-1.2-0.5s-0.5-0.7-0.5-1.1l-0.1-1.1c-0.7,0.9-1.5,1.6-2.6,2.1C82,302.3,80.9,302.6,79.7,302.6z
		 M80.4,300.7c0.9,0,1.8-0.2,2.5-0.5c0.8-0.3,1.4-0.8,1.8-1.3c0.4-0.4,0.6-0.7,0.6-1.1v-2.2c-1.2-0.5-2.5-0.7-3.9-0.7
		c-1.3,0-2.3,0.3-3.1,0.8s-1.2,1.2-1.2,2.1c0,0.4,0.1,0.8,0.2,1.2c0.2,0.4,0.4,0.7,0.7,1c0.3,0.3,0.7,0.5,1.1,0.6
		C79.5,300.6,79.9,300.7,80.4,300.7z"/>
	<path fill="#FFFFFF" d="M107.2,289.4c-1.3,0-2.4,0.4-3.4,1c-1,0.6-1.7,1.5-2.1,2.6v9.3h-2.6v-15.1h2.4v3.5c0.5-1,1.2-1.9,2.1-2.5
		c0.9-0.6,1.8-1,2.7-1.1c0.2,0,0.4,0,0.5,0s0.3,0,0.3,0V289.4z"/>
	<path fill="#FFFFFF" d="M116.1,302.6c-1.1,0-2.2-0.2-3.1-0.6s-1.8-1-2.4-1.7s-1.2-1.6-1.6-2.5s-0.6-2-0.6-3c0-1.1,0.2-2.1,0.6-3
		s0.9-1.8,1.6-2.5c0.7-0.7,1.5-1.3,2.5-1.7c0.9-0.4,2-0.6,3.1-0.6c1.1,0,2.2,0.2,3.1,0.6c0.9,0.4,1.7,1,2.4,1.7
		c0.7,0.7,1.2,1.5,1.5,2.5c0.4,0.9,0.5,1.9,0.5,2.9c0,0.2,0,0.4,0,0.6s0,0.3,0,0.4h-12.6c0.1,0.8,0.2,1.4,0.5,2.1
		c0.3,0.6,0.7,1.2,1.1,1.6c0.5,0.4,1,0.8,1.6,1c0.6,0.3,1.2,0.4,1.9,0.4c0.5,0,0.9-0.1,1.4-0.2c0.4-0.1,0.9-0.3,1.2-0.5
		c0.4-0.2,0.7-0.5,1-0.8s0.5-0.7,0.7-1l2.2,0.6c-0.3,0.6-0.6,1.1-1,1.5c-0.4,0.5-0.9,0.9-1.5,1.2c-0.6,0.3-1.2,0.6-1.9,0.8
		C117.6,302.5,116.9,302.6,116.1,302.6z M121.3,293.7c-0.1-0.7-0.2-1.4-0.5-2c-0.3-0.6-0.7-1.1-1.1-1.6c-0.5-0.4-1-0.8-1.6-1
		c-0.6-0.2-1.2-0.4-1.9-0.4c-0.7,0-1.3,0.1-1.9,0.4c-0.6,0.2-1.1,0.6-1.6,1c-0.5,0.4-0.8,1-1.1,1.6c-0.3,0.6-0.4,1.3-0.5,2H121.3z"
		/>
	<path fill="#FFFFFF" d="M139.7,302.3h-2.6v-8.5c0-1.6-0.2-2.8-0.7-3.5c-0.5-0.7-1.2-1.1-2.2-1.1c-0.5,0-1,0.1-1.6,0.3
		s-1,0.5-1.5,0.8c-0.5,0.3-0.9,0.8-1.2,1.2s-0.6,1-0.8,1.6v9.1h-2.6v-15.1h2.3v3.2c0.6-1.1,1.5-1.9,2.6-2.6c1.1-0.6,2.4-1,3.7-1
		c0.9,0,1.6,0.2,2.2,0.5c0.6,0.3,1,0.8,1.4,1.3c0.3,0.6,0.6,1.2,0.7,2s0.2,1.6,0.2,2.5V302.3z"/>
	<path fill="#FFFFFF" d="M151.3,301.5c-0.2,0.1-0.4,0.2-0.6,0.3c-0.3,0.1-0.5,0.2-0.9,0.3c-0.3,0.1-0.7,0.2-1,0.3
		c-0.4,0.1-0.8,0.1-1.2,0.1c-0.9,0-1.7-0.3-2.4-0.8c-0.7-0.5-1-1.3-1-2.4v-10.2h-2.1v-2h2.1v-5h2.6v5h3.4v2h-3.4v9.4
		c0,0.6,0.2,1,0.6,1.2c0.3,0.3,0.7,0.4,1.2,0.4c0.5,0,1-0.1,1.4-0.2c0.4-0.2,0.7-0.3,0.9-0.4L151.3,301.5z"/>
	<path fill="#FFFFFF" d="M161.7,289.4c-1.3,0-2.4,0.4-3.4,1c-1,0.6-1.7,1.5-2.1,2.6v9.3h-2.6v-15.1h2.4v3.5c0.5-1,1.2-1.9,2.1-2.5
		c0.9-0.6,1.8-1,2.7-1.1c0.2,0,0.4,0,0.5,0s0.3,0,0.3,0V289.4z"/>
	<path fill="#FFFFFF" d="M170.6,302.6c-1.1,0-2.2-0.2-3.1-0.6s-1.8-1-2.4-1.7s-1.2-1.6-1.6-2.5c-0.4-1-0.6-2-0.6-3
		c0-1.1,0.2-2.1,0.6-3c0.4-0.9,0.9-1.8,1.6-2.5s1.5-1.3,2.5-1.7c0.9-0.4,2-0.6,3.1-0.6c1.1,0,2.2,0.2,3.1,0.6c0.9,0.4,1.7,1,2.4,1.7
		c0.7,0.7,1.2,1.5,1.5,2.5c0.4,0.9,0.5,1.9,0.5,2.9c0,0.2,0,0.4,0,0.6s0,0.3,0,0.4h-12.6c0.1,0.8,0.2,1.4,0.5,2.1
		c0.3,0.6,0.7,1.2,1.1,1.6c0.5,0.4,1,0.8,1.6,1c0.6,0.3,1.2,0.4,1.9,0.4c0.5,0,0.9-0.1,1.4-0.2c0.4-0.1,0.9-0.3,1.2-0.5
		c0.4-0.2,0.7-0.5,1-0.8s0.5-0.7,0.7-1l2.2,0.6c-0.3,0.6-0.6,1.1-1,1.5c-0.4,0.5-0.9,0.9-1.5,1.2s-1.2,0.6-1.9,0.8
		C172.1,302.5,171.3,302.6,170.6,302.6z M175.8,293.7c-0.1-0.7-0.2-1.4-0.5-2s-0.7-1.1-1.1-1.6s-1-0.8-1.6-1
		c-0.6-0.2-1.2-0.4-1.9-0.4c-0.7,0-1.3,0.1-1.9,0.4c-0.6,0.2-1.1,0.6-1.6,1c-0.5,0.4-0.8,1-1.1,1.6c-0.3,0.6-0.4,1.3-0.5,2H175.8z"
		/>
	<path fill="#FFFFFF" d="M192.3,302.6c-0.7,0-1.4-0.1-2-0.4c-0.6-0.2-1.2-0.6-1.6-1s-0.8-0.9-1.1-1.5c-0.3-0.6-0.4-1.2-0.4-1.9
		c0-0.7,0.2-1.3,0.5-1.9c0.3-0.6,0.7-1.1,1.3-1.5s1.2-0.7,2-1c0.8-0.2,1.6-0.3,2.6-0.3c0.7,0,1.5,0.1,2.2,0.2s1.4,0.3,2,0.6v-1.2
		c0-1.2-0.3-2.2-1-2.9c-0.7-0.7-1.7-1.1-3-1.1c-1.5,0-3.1,0.6-4.8,1.8l-0.8-1.7c2-1.3,3.9-2,5.9-2c2,0,3.5,0.5,4.7,1.6
		c1.1,1.1,1.7,2.6,1.7,4.5v6.2c0,0.6,0.3,0.9,0.8,0.9v2.2c-0.3,0-0.5,0.1-0.7,0.1c-0.2,0-0.4,0-0.6,0c-0.5,0-0.9-0.2-1.2-0.5
		s-0.5-0.7-0.5-1.1l-0.1-1.1c-0.7,0.9-1.5,1.6-2.6,2.1C194.5,302.3,193.4,302.6,192.3,302.6z M192.9,300.7c0.9,0,1.8-0.2,2.5-0.5
		s1.4-0.8,1.8-1.3c0.4-0.4,0.6-0.7,0.6-1.1v-2.2c-1.2-0.5-2.5-0.7-3.9-0.7c-1.3,0-2.3,0.3-3.1,0.8c-0.8,0.5-1.2,1.2-1.2,2.1
		c0,0.4,0.1,0.8,0.2,1.2c0.2,0.4,0.4,0.7,0.7,1c0.3,0.3,0.7,0.5,1.1,0.6S192.5,300.7,192.9,300.7z M191,281.1h2.5l1.7,2.9l-1.7,0.6
		L191,281.1z"/>
	<path fill="#FFFFFF" d="M211.8,281.1h2.6v17.3c0,0.6,0.1,1,0.4,1.3c0.3,0.3,0.7,0.5,1.3,0.5c0.2,0,0.5,0,0.8-0.1s0.6-0.1,0.8-0.2
		l0.4,2.1c-0.4,0.2-0.9,0.3-1.5,0.4c-0.6,0.1-1.1,0.2-1.5,0.2c-1,0-1.8-0.3-2.3-0.8c-0.6-0.6-0.9-1.3-0.9-2.3V281.1z"/>
	<path fill="#FFFFFF" d="M219.6,287.8l0.6-3.3h-0.9v-3.3h2.4v3.3l-0.9,3.3H219.6z"/>
	<path fill="#FFFFFF" d="M231.5,302.6c-1.1,0-2.2-0.2-3.1-0.6s-1.8-1-2.4-1.7s-1.2-1.6-1.6-2.5s-0.6-2-0.6-3c0-1.1,0.2-2.1,0.6-3
		s0.9-1.8,1.6-2.5s1.5-1.3,2.5-1.7c0.9-0.4,2-0.6,3.1-0.6c1.1,0,2.2,0.2,3.1,0.6c0.9,0.4,1.7,1,2.4,1.7c0.7,0.7,1.2,1.5,1.5,2.5
		c0.4,0.9,0.5,1.9,0.5,2.9c0,0.2,0,0.4,0,0.6s0,0.3,0,0.4h-12.6c0.1,0.8,0.2,1.4,0.5,2.1c0.3,0.6,0.7,1.2,1.1,1.6
		c0.5,0.4,1,0.8,1.6,1c0.6,0.3,1.2,0.4,1.9,0.4c0.5,0,0.9-0.1,1.4-0.2c0.4-0.1,0.9-0.3,1.2-0.5c0.4-0.2,0.7-0.5,1-0.8s0.5-0.7,0.7-1
		l2.2,0.6c-0.3,0.6-0.6,1.1-1,1.5c-0.4,0.5-0.9,0.9-1.5,1.2s-1.2,0.6-1.9,0.8C233,302.5,232.3,302.6,231.5,302.6z M236.7,293.7
		c-0.1-0.7-0.2-1.4-0.5-2s-0.7-1.1-1.1-1.6s-1-0.8-1.6-1c-0.6-0.2-1.2-0.4-1.9-0.4c-0.7,0-1.3,0.1-1.9,0.4c-0.6,0.2-1.1,0.6-1.6,1
		c-0.5,0.4-0.8,1-1.1,1.6c-0.3,0.6-0.4,1.3-0.5,2H236.7z M231.9,284.6l-1.7-0.6l1.7-2.9h2.6L231.9,284.6z"/>
	<path fill="#FFFFFF" d="M241,294.7c0-1.1,0.2-2.1,0.6-3s0.9-1.8,1.6-2.5c0.7-0.7,1.5-1.3,2.4-1.7c0.9-0.4,2-0.6,3.1-0.6
		c1.5,0,2.8,0.3,3.9,1c1.1,0.7,1.9,1.6,2.5,2.7l-2.5,0.8c-0.4-0.7-0.9-1.3-1.6-1.7c-0.7-0.4-1.5-0.6-2.3-0.6c-0.7,0-1.4,0.1-2,0.4
		c-0.6,0.3-1.2,0.7-1.6,1.2c-0.4,0.5-0.8,1.1-1.1,1.8c-0.3,0.7-0.4,1.4-0.4,2.2c0,0.8,0.1,1.5,0.4,2.2c0.3,0.7,0.6,1.3,1.1,1.8
		c0.5,0.5,1,0.9,1.6,1.2c0.6,0.3,1.3,0.4,2,0.4c0.4,0,0.9-0.1,1.3-0.2c0.4-0.1,0.8-0.3,1.2-0.5c0.4-0.2,0.7-0.5,0.9-0.7
		c0.3-0.3,0.5-0.6,0.6-0.9l2.5,0.8c-0.2,0.6-0.6,1.1-1,1.5c-0.4,0.5-0.9,0.9-1.5,1.2c-0.6,0.3-1.2,0.6-1.9,0.8
		c-0.7,0.2-1.4,0.3-2.2,0.3c-1.1,0-2.2-0.2-3.1-0.6c-0.9-0.4-1.8-1-2.4-1.7c-0.7-0.7-1.2-1.6-1.6-2.5S241,295.8,241,294.7z"/>
	<path fill="#FFFFFF" d="M264.5,302.6c-1.1,0-2.2-0.2-3.1-0.6c-0.9-0.4-1.7-1-2.4-1.7s-1.2-1.5-1.6-2.5s-0.6-1.9-0.6-3
		c0-1.1,0.2-2.1,0.6-3c0.4-0.9,0.9-1.8,1.6-2.5c0.7-0.7,1.5-1.3,2.4-1.7c0.9-0.4,2-0.6,3.1-0.6s2.2,0.2,3.1,0.6
		c0.9,0.4,1.8,1,2.4,1.7c0.7,0.7,1.2,1.5,1.6,2.5c0.4,0.9,0.6,2,0.6,3c0,1-0.2,2-0.6,3c-0.4,0.9-0.9,1.8-1.6,2.5s-1.5,1.3-2.4,1.7
		C266.7,302.4,265.7,302.6,264.5,302.6z M259.5,294.8c0,0.8,0.1,1.5,0.4,2.2c0.3,0.7,0.6,1.3,1.1,1.8c0.5,0.5,1,0.9,1.6,1.2
		c0.6,0.3,1.3,0.4,2,0.4s1.3-0.1,2-0.4c0.6-0.3,1.1-0.7,1.6-1.2c0.5-0.5,0.8-1.1,1.1-1.8c0.3-0.7,0.4-1.4,0.4-2.2
		c0-0.8-0.1-1.5-0.4-2.2c-0.3-0.7-0.6-1.3-1.1-1.8c-0.5-0.5-1-0.9-1.6-1.2c-0.6-0.3-1.3-0.4-2-0.4s-1.3,0.1-2,0.4
		c-0.6,0.3-1.1,0.7-1.6,1.2c-0.5,0.5-0.8,1.1-1.1,1.8C259.6,293.3,259.5,294,259.5,294.8z"/>
	<path fill="#FFFFFF" d="M275.3,281.1h2.6v17.3c0,0.6,0.1,1,0.4,1.3c0.3,0.3,0.7,0.5,1.3,0.5c0.2,0,0.5,0,0.8-0.1s0.6-0.1,0.8-0.2
		l0.4,2.1c-0.4,0.2-0.9,0.3-1.5,0.4c-0.6,0.1-1.1,0.2-1.5,0.2c-1,0-1.8-0.3-2.3-0.8c-0.6-0.6-0.9-1.3-0.9-2.3V281.1z"/>
	<path fill="#FFFFFF" d="M290.3,302.6c-1.1,0-2.2-0.2-3.1-0.6s-1.8-1-2.4-1.7c-0.7-0.7-1.2-1.6-1.6-2.5s-0.6-2-0.6-3
		c0-1.1,0.2-2.1,0.6-3s0.9-1.8,1.6-2.5s1.5-1.3,2.5-1.7c0.9-0.4,2-0.6,3.1-0.6s2.2,0.2,3.1,0.6c0.9,0.4,1.7,1,2.4,1.7
		c0.7,0.7,1.2,1.5,1.5,2.5c0.4,0.9,0.5,1.9,0.5,2.9c0,0.2,0,0.4,0,0.6c0,0.2,0,0.3,0,0.4h-12.6c0.1,0.8,0.2,1.4,0.5,2.1
		c0.3,0.6,0.7,1.2,1.1,1.6c0.5,0.4,1,0.8,1.6,1c0.6,0.3,1.2,0.4,1.9,0.4c0.5,0,0.9-0.1,1.4-0.2c0.4-0.1,0.9-0.3,1.2-0.5
		s0.7-0.5,1-0.8s0.5-0.7,0.7-1l2.2,0.6c-0.3,0.6-0.6,1.1-1,1.5c-0.4,0.5-0.9,0.9-1.5,1.2s-1.2,0.6-1.9,0.8
		C291.8,302.5,291,302.6,290.3,302.6z M295.5,293.7c-0.1-0.7-0.2-1.4-0.5-2s-0.7-1.1-1.1-1.6s-1-0.8-1.6-1c-0.6-0.2-1.2-0.4-1.9-0.4
		s-1.3,0.1-1.9,0.4c-0.6,0.2-1.1,0.6-1.6,1c-0.5,0.4-0.8,1-1.1,1.6c-0.3,0.6-0.4,1.3-0.5,2H295.5z"/>
</g>
<g>
	<g>
		<path fill="#8FCAFF" d="M160.5,232.2c-56,0-101.5-45.5-101.5-101.5c0-56,45.5-101.5,101.5-101.5c56,0,101.5,45.5,101.5,101.5
			C262,186.7,216.4,232.2,160.5,232.2z"/>
		<path fill="#79A4E2" d="M160.5,31.2c55,0,99.5,44.5,99.5,99.5s-44.5,99.5-99.5,99.5S61,185.7,61,130.7S105.5,31.2,160.5,31.2
			 M160.5,27.2C103.4,27.2,57,73.6,57,130.7s46.4,103.5,103.5,103.5S264,187.8,264,130.7S217.6,27.2,160.5,27.2L160.5,27.2z"/>
	</g>
	<path fill="#FFF5FF" d="M258.7,114.9c-1.7,1.9-3.2,3.8-4.3,5.6l5.4,16.6c0.1-2.1,0.2-4.2,0.2-6.4
		C260,125.3,259.5,120.1,258.7,114.9z"/>
	<path fill="#E0DBD5" d="M246.2,181.2c-7.3-9.5-16.1-15-25.7-15c-21,0-38.6,26.7-43.5,62.7C206.5,223.9,231.6,206,246.2,181.2z"/>
	<path fill="#E0DBD5" d="M162.1,230.2c5.1-0.1,10.1-0.5,15-1.4c2.5-17.9,8.1-33.5,15.6-44.7C175.2,189.5,162.3,208.1,162.1,230.2z"
		/>
	<path fill="#E872A2" d="M246.2,181.2c-7.3-9.5-16.1-15.2-25.7-15.2c-20.9,0-38.5,27-43.5,62.8C206.5,223.9,231.6,206,246.2,181.2z"
		/>
	<path fill="#D6D0C9" d="M188.1,117.4c-2.1-3-4.4-6-6.8-8.8c-5-6.1-10.2-12-16-17.3c-6.2-5.7-12.2-10.5-19.5-15
		c-6-3.7-12.3-7.4-19.2-9.2c-14.1-3.8-31.5-0.9-40.3,11.7c-4.7,6.8-6.8,14.8-8,22.8c-0.5,3.3-0.8,6.7-1,10
		c-0.4,6.4-0.2,12.9,0.5,19.3c1.3,11.3,4.6,25,12.8,33.3c4.9,5,8.2,7.8,15.4,9.4c6.9,1.5,14.1,1.4,21.1,0.2
		c8.6-1.4,16.6-4.1,24.9-6.6c7.2-2.2,13.7-4.6,20.5-7.7c1.2-0.5,7.9-2.9,8.1-4.1C180.6,155.3,188.1,117.4,188.1,117.4z"/>
	<path fill="#FFF5FF" d="M185.1,120.5c-3.1-4.9-9.5-11-13.4-15.3c-9-9.8-19.6-18.5-31.7-24.2c-12.6-6-31.7-12.7-42.8-0.6
		C83.9,95,81.5,119.5,84.5,138.1c1.7,10.1,5.8,18.7,14.7,24.2c9.5,5.9,20.4,5.7,30.9,3.8c0,0,38.8-7.4,45.4-16.4L185.1,120.5z"/>
	<path fill="#E0DBD5" d="M260,130.7c0-2.4-0.1-4.8-0.3-7.2c-8.5-12.5-22.8-20.7-39-20.7c-26,0-47.1,21.1-47.1,47.1
		c0,26,21.1,47.1,47.1,47.1c5.8,0,11.4-1.1,16.6-3C251.5,176.7,260,154.7,260,130.7z"/>
	<circle fill="#FFF5FF" cx="220.7" cy="158.7" r="5.3"/>
	<g>
		<path fill="#D34866" d="M210.7,105.3c2.1,9.6-15.1,12.1-21.9,13c-2.6,0.3,1.2-12.3,1.6-13.1c1.6-3.6,4-9,8.2-10.3
			C203.7,93.1,209.4,99.4,210.7,105.3z"/>
		<path fill="#D34866" d="M162.7,120.8c4,9,19.3,0.9,25.3-2.5c2.3-1.3-8.2-9.2-9-9.7c-3.5-2-8.6-4.9-12.7-3.5
			C161.1,106.9,160.3,115.3,162.7,120.8z"/>
		<ellipse fill="#BA2048" cx="187.4" cy="116.5" rx="3.2" ry="3.2"/>
	</g>
	<g>
		<g>
			<path fill="#606060" d="M190.3,156.6c0,0-0.3-0.1-0.7-0.3c-0.5-0.2-1.2-0.5-2.1-0.8c-0.9-0.3-2.1-0.6-3.4-1
				c-0.7-0.2-1.4-0.3-2.1-0.5c-0.7-0.2-1.5-0.4-2.3-0.5c-0.8-0.2-1.7-0.3-2.6-0.5c-0.9-0.1-1.8-0.3-2.8-0.4
				c-0.9-0.2-1.9-0.3-2.9-0.4c-1-0.1-2-0.2-3.1-0.3c-1-0.1-2.1-0.2-3.2-0.2c-1.1-0.1-2.2-0.2-3.3-0.2c-2.2-0.1-4.4-0.2-6.6-0.1
				c-2.2,0-4.5,0-6.7,0.1c-2.2,0.1-4.4,0.1-6.4,0.4c-2.1,0.2-4.1,0.3-6,0.5c-1.9,0.2-3.7,0.4-5.4,0.6c-0.8,0.1-1.6,0.2-2.4,0.3
				c-0.8,0.1-1.5,0.2-2.1,0.3c-1.4,0.2-2.5,0.4-3.5,0.5c-1.9,0.3-3.1,0.4-3.1,0.4s1.1-0.2,3-0.6c1-0.2,2.1-0.4,3.5-0.7
				c0.7-0.1,1.4-0.3,2.1-0.4c0.8-0.1,1.6-0.2,2.4-0.4c1.7-0.2,3.5-0.5,5.4-0.8c1.9-0.3,3.9-0.4,6-0.6c2.1-0.2,4.3-0.3,6.5-0.4
				c2.2-0.2,4.5-0.2,6.7-0.2c2.2,0,4.5,0.1,6.7,0.2c1.1,0,2.2,0.1,3.3,0.2c1.1,0.1,2.1,0.2,3.2,0.3c2.1,0.3,4.1,0.5,6,0.9
				c0.9,0.2,1.9,0.4,2.8,0.5c0.9,0.2,1.7,0.4,2.6,0.6c1.6,0.4,3.1,0.8,4.4,1.2c1.3,0.4,2.4,0.8,3.3,1.2c0.9,0.4,1.6,0.7,2.1,0.9
				C190.1,156.5,190.3,156.6,190.3,156.6z"/>
		</g>
		<g>
			<path fill="#606060" d="M189.9,160c0,0-0.2-0.1-0.7-0.1c-0.5-0.1-1.2-0.2-2-0.3c-0.4,0-0.9-0.1-1.5-0.1c-0.5,0-1.1,0-1.7-0.1
				c-0.6,0-1.3,0-2,0c-0.7,0-1.4,0-2.2,0.1c-0.8,0-1.5,0.1-2.3,0.1c-0.8,0.1-1.6,0.2-2.5,0.3c-0.4,0-0.9,0.1-1.3,0.2
				c-0.4,0.1-0.9,0.2-1.3,0.2c-0.9,0.1-1.8,0.3-2.7,0.5c-1.8,0.4-3.8,0.8-5.7,1.3c-1.9,0.5-3.9,1-5.8,1.7c-1.9,0.6-3.8,1.2-5.7,2
				c-1.8,0.7-3.7,1.4-5.4,2.2c-1.7,0.8-3.4,1.5-5,2.2c-1.6,0.8-3,1.5-4.4,2.2c-0.7,0.3-1.3,0.7-1.9,1c-0.6,0.3-1.2,0.6-1.7,0.9
				c-1.1,0.6-2,1.1-2.8,1.5c-1.6,0.8-2.5,1.3-2.5,1.3s0.8-0.6,2.3-1.5c0.7-0.5,1.7-1.1,2.7-1.7c0.5-0.3,1.1-0.7,1.7-1.1
				c0.6-0.4,1.2-0.7,1.9-1.1c1.3-0.7,2.8-1.5,4.3-2.4c1.5-0.8,3.2-1.6,4.9-2.4c1.7-0.8,3.6-1.5,5.4-2.3c1.8-0.8,3.8-1.4,5.7-2
				c1.9-0.7,3.9-1.1,5.8-1.7c1-0.3,1.9-0.5,2.9-0.7c1-0.2,1.9-0.4,2.9-0.6c0.9-0.1,1.9-0.3,2.8-0.4c0.5-0.1,0.9-0.1,1.4-0.2
				c0.4,0,0.9-0.1,1.3-0.1c0.9-0.1,1.7-0.1,2.5-0.2c0.8,0,1.6,0,2.4,0c1.5,0,2.9,0.1,4.2,0.2c0.6,0.1,1.2,0.1,1.7,0.2
				c0.5,0.1,1,0.2,1.5,0.2c0.9,0.1,1.6,0.3,2,0.4C189.6,159.9,189.9,160,189.9,160z"/>
		</g>
	</g>
	<path fill="#606060" d="M255.8,154.7c-0.6,0.2-1.1,0.4-1.5,0.6c-0.9,0.4-1.6,0.7-2.1,0.9c-0.5,0.2-0.7,0.4-0.7,0.4s0.3-0.1,0.7-0.3
		c0.5-0.2,1.2-0.5,2.1-0.8c0.5-0.1,1-0.3,1.5-0.5c0.3-0.1,0.7-0.2,1.1-0.3c0-0.2,0.1-0.3,0.1-0.5
		C256.7,154.5,256.2,154.6,255.8,154.7z"/>
	<path fill="#606060" d="M252.6,159.8c-0.5,0.1-0.7,0.2-0.7,0.2S252.2,159.9,252.6,159.8c0.5,0,1.2-0.1,2-0.2c0.3,0,0.7-0.1,1-0.1
		c0-0.1,0.1-0.2,0.1-0.3c-0.4,0.1-0.8,0.1-1.2,0.2C253.8,159.5,253.1,159.6,252.6,159.8z"/>
	<g>
		<path fill="#544652" d="M220.7,181.6c-7.7,0-14.5,1.6-19.2,4.2c0.4-9.2,8.8-16.2,19.2-16.2c10.4,0,18.9,7.1,19.2,16.2
			C235.2,183.2,228.4,181.6,220.7,181.6z"/>
		<path fill="#E7BCE8" d="M202.9,185.1c4.6-2.2,10.9-3.5,17.8-3.5c7.1,0,13.5,1.4,18.1,3.6c-4.9-3.5-11.2-5.6-18.1-5.6
			C214,179.6,207.7,181.6,202.9,185.1z"/>
		<path fill="#FFFFFF" d="M220.7,169.6c-2,0-4,0.3-5.9,0.8c0.8,4.4,3.2,7.6,6.2,7.6c2.9,0,5.3-3.1,6.1-7.5
			C225.1,169.9,223,169.6,220.7,169.6z"/>
		<g>
			<path fill="#BABABA" d="M221,178c0,0-0.1-0.5-0.1-1.3c-0.1-0.8-0.1-1.8-0.1-2.8c0-1,0-2.1,0.1-2.8c0-0.8,0.1-1.3,0.1-1.3
				s0.1,0.5,0.1,1.3c0.1,0.8,0.1,1.8,0.1,2.8c0,1,0,2.1-0.1,2.8C221.1,177.5,221,178,221,178z"/>
		</g>
	</g>
	<g>
		<ellipse fill="#FFFFFF" cx="201.9" cy="134.6" rx="7.4" ry="11.5"/>
		<path fill="#353535" d="M201.9,132.8c-3.6,0-6.6,3-6.7,6.7c1.2,3.9,3.7,6.6,6.7,6.6s5.5-2.7,6.7-6.6
			C208.5,135.7,205.6,132.8,201.9,132.8z"/>
		<ellipse fill="#FFFFFF" cx="200.3" cy="143.2" rx="2" ry="2.2"/>
		<path fill="#B7B1AC" d="M203.3,135.7c2.1,0,4,1,5.8,1.7c0.2-1,0.3-1.9,0.3-3c0-6.3-3.3-11.4-7.4-11.4c-4.1,0-7.4,5.2-7.4,11.5
			c0,1.1,0.1,1.8,0.3,2.8c1.7-0.7,3.7-1.7,5.8-1.7H203.3z"/>
		<path fill="#424242" d="M195.3,137.3c-0.7-0.3-1.7-1-1.2-2c0,0-1.3,1,0.1,1.9c-1-0.4-2.2-1.3-2.1-2.7c0,0-1.6,2.2,2.8,3.4
			c0.3-0.2,0.7-0.3,1.1-0.4l0,0C196,137.5,195.7,137.4,195.3,137.3z"/>
		<g>
			<path fill="#6DC3F7" d="M197.5,152c-0.1-0.2-0.3-0.4-0.4-0.5c-0.5-0.6-0.9-1.3-1.2-2c-0.5-1-0.8-2-1-3c-0.1-0.6-0.1-1.2,0-1.7
				c-0.2,1-0.5,2-0.9,2.9c-0.5,1.2-1,2.4-1.6,3.6c-0.1,0.2-0.1,0.4-0.2,0.5c-0.1,0.3-0.2,0.7-0.3,1c-0.1,0.3-0.1,0.5-0.2,0.8
				c-0.1,0.4-0.1,0.9,0,1.3c0.1,0.4,0.2,0.8,0.4,1.1c0.4,0.7,1,1.2,1.7,1.5c0.4,0.2,0.8,0.2,1.2,0.2c1.9,0,3.4-1.5,3.4-3.4
				c0-0.3-0.1-0.7-0.2-1C198,152.7,197.8,152.3,197.5,152z"/>
			<path fill="#6DC3F7" d="M194.8,144.6c0-0.1,0-0.2,0.1-0.3C194.9,144.3,194.9,144.4,194.8,144.6z"/>
		</g>
		<g>
			<path fill="#6DC3F7" d="M196,163.1c0.1-0.1,0.1-0.2,0.2-0.2c0.2-0.3,0.4-0.6,0.5-0.9c0.2-0.4,0.4-0.9,0.4-1.3
				c0-0.2,0.1-0.5,0-0.8c0.1,0.4,0.2,0.9,0.4,1.3c0.2,0.5,0.5,1.1,0.7,1.6c0,0.1,0.1,0.2,0.1,0.2c0.1,0.1,0.1,0.3,0.1,0.4
				c0,0.1,0.1,0.2,0.1,0.3c0,0.2,0,0.4,0,0.6c0,0.2-0.1,0.3-0.2,0.5c-0.2,0.3-0.4,0.5-0.7,0.6c-0.2,0.1-0.4,0.1-0.5,0.1
				c-0.8,0-1.5-0.7-1.5-1.5c0-0.1,0-0.3,0.1-0.4C195.7,163.4,195.9,163.3,196,163.1z"/>
			<path fill="#6DC3F7" d="M197.1,159.9c0,0,0-0.1,0-0.1C197.1,159.7,197.1,159.8,197.1,159.9z"/>
		</g>
	</g>
	<g>
		<ellipse fill="#FFFFFF" cx="239.7" cy="134.6" rx="7.4" ry="11.5"/>
		<path fill="#353535" d="M239.7,132.8c3.6,0,6.6,3,6.7,6.7c-1.2,3.9-3.7,6.6-6.7,6.6s-5.5-2.7-6.7-6.6
			C233.1,135.7,236.1,132.8,239.7,132.8z"/>
		<ellipse fill="#FFFFFF" cx="241.3" cy="143.2" rx="2" ry="2.2"/>
		<path fill="#B7B1AC" d="M238.3,135.7c-2.1,0-4,1-5.8,1.7c-0.2-1-0.3-1.9-0.3-3c0-6.3,3.3-11.4,7.4-11.4c4.1,0,7.4,5.2,7.4,11.5
			c0,1.1-0.1,1.8-0.3,2.8c-1.7-0.7-3.7-1.7-5.8-1.7H238.3z"/>
		<path fill="#424242" d="M246.3,137.3c0.7-0.3,1.7-1,1.2-2c0,0,1.3,1-0.1,1.9c1-0.4,2.2-1.3,2.1-2.7c0,0,1.6,2.2-2.8,3.4
			c-0.3-0.2-0.7-0.3-1.1-0.4l0,0C245.6,137.5,245.9,137.4,246.3,137.3z"/>
		<g>
			<path fill="#6DC3F7" d="M244.2,152c0.1-0.2,0.3-0.4,0.4-0.5c0.5-0.6,0.9-1.3,1.2-2c0.5-1,0.8-2,1-3c0.1-0.6,0.1-1.2,0-1.7
				c0.2,1,0.5,2,0.9,2.9c0.5,1.2,1,2.4,1.6,3.6c0.1,0.2,0.1,0.4,0.2,0.5c0.1,0.3,0.2,0.7,0.3,1c0.1,0.3,0.1,0.5,0.2,0.8
				c0.1,0.4,0.1,0.9,0,1.3c-0.1,0.4-0.2,0.8-0.4,1.1c-0.4,0.7-1,1.2-1.7,1.5c-0.4,0.2-0.8,0.2-1.2,0.2c-1.9,0-3.4-1.5-3.4-3.4
				c0-0.3,0.1-0.7,0.2-1C243.6,152.7,243.9,152.3,244.2,152z"/>
			<path fill="#6DC3F7" d="M246.8,144.6c0-0.1,0-0.2-0.1-0.3C246.7,144.3,246.8,144.4,246.8,144.6z"/>
		</g>
		<g>
			<path fill="#6DC3F7" d="M245.6,163.1c-0.1-0.1-0.1-0.2-0.2-0.2c-0.2-0.3-0.4-0.6-0.5-0.9c-0.2-0.4-0.4-0.9-0.4-1.3
				c0-0.2-0.1-0.5,0-0.8c-0.1,0.4-0.2,0.9-0.4,1.3c-0.2,0.5-0.5,1.1-0.7,1.6c0,0.1-0.1,0.2-0.1,0.2c-0.1,0.1-0.1,0.3-0.1,0.4
				c0,0.1-0.1,0.2-0.1,0.3c0,0.2,0,0.4,0,0.6c0,0.2,0.1,0.3,0.2,0.5c0.2,0.3,0.4,0.5,0.7,0.6c0.2,0.1,0.4,0.1,0.5,0.1
				c0.8,0,1.5-0.7,1.5-1.5c0-0.1,0-0.3-0.1-0.4C245.9,163.4,245.8,163.3,245.6,163.1z"/>
			<path fill="#6DC3F7" d="M244.5,159.9c0,0,0-0.1,0-0.1C244.5,159.7,244.5,159.8,244.5,159.9z"/>
		</g>
	</g>
</g>
<g>
</g>
<g>
</g>
<g>
</g>
<g>
</g>
<g>
</g>
<g>
</g>
<g>
</g>
<g>
</g>
<g>
</g>
<g>
</g>
<g>
</g>
<g>
</g>
<g>
</g>
<g>
</g>
<g>
</g>
</svg>
