<?xml version="1.0" encoding="utf-8"?>
<!-- Generator: Adobe Illustrator 18.0.0, SVG Export Plug-In . SVG Version: 6.00 Build 0)  -->
<!DOCTYPE svg PUBLIC "-//W3C//DTD SVG 1.1//EN" "http://www.w3.org/Graphics/SVG/1.1/DTD/svg11.dtd">
<svg version="1.1" id="Calque_1" xmlns="http://www.w3.org/2000/svg" xmlns:xlink="http://www.w3.org/1999/xlink" x="0px" y="0px"
	 viewBox="0 0 509.1 343.6" enable-background="new 0 0 509.1 343.6" xml:space="preserve">
<g>
	<g>
		<path d="M148.9,258.7c1.7-8.7,3.1-18.5,4.3-29.6c8.4-76.7,22.2-90.7,41.5-90.7c14.5,0,22,14.2,22,33.1c0,30.6-19.1,73.6-58.6,89.5
			c-4.1,20-9.7,34-16.2,44.3c19.6,7,34.5,17.4,54.2,17.4c14,0,18.6-9.4,19.8-15.5c2.9,0.7,5.8,1.4,8.7,2.2
			c-2.6,11.1-11.4,20.5-28.4,20.5c-21.4,0-38.8-11.3-58.1-19c-11.3,14.5-24.8,19-38.3,19c-10.6,0-18.5-5.1-18.5-14.5
			c0-8.2,7.7-16.9,23.9-16.9c10.9,0,20.3,1.5,28.7,4.1c5.5-8.9,10.1-21.2,13.7-38.1c-7.2,1.9-14.9,3.1-23.2,3.1
			c-42.7,0-60.8-24.3-60.8-47.8c0-22.2,16.1-43.9,42.7-43.9c7,0,12.3,1.4,17.8,4.4c-1.4,2.9-2.9,5.6-4.3,8.4
			c-3.9-2.6-8.4-3.4-13.5-3.4c-21.7,0-34.5,17.3-34.5,35.5c0,20,15.7,41.7,52.6,41.7C133.3,262.5,141.5,261.1,148.9,258.7z
			 M131.1,307.9c-7.9-2.7-16.2-4.4-25.1-4.4c-11.1,0-16.9,6.5-16.9,12.3c0,4.8,4.1,9.2,12.1,9.2C112.1,325,122.2,320.6,131.1,307.9z
			 M163,229.2c-1,9.1-2.2,17.1-3.6,24.6c33.5-17.1,48.4-57.6,48.4-84.4c0-15-4.6-25.8-13.3-25.8C182.7,143.6,170.7,155.7,163,229.2z
			"/>
		<path d="M221.8,212.1c-1.5,8.5-11.1,47.2-11.1,63.9c0,5.5,1.5,7.7,3.8,7.7c4.3,0,13.8-16.4,17.4-36.1c2.2-12.8,5.1-25.3,7.3-35.5
			h8.9c-5.3,26.1-10.8,50.4-10.8,64.4c0,5.1,1.4,7,3.2,7c5.1,0,11.4-12.5,20-34.7c0.7,0,3.1,0.9,3.1,1.7
			c-9.1,23.6-14.9,40.3-25.8,40.3c-6.3,0-8.4-7.2-8.4-17.9c0-1,0.2-2.2,0.2-3.4c-4.8,12.5-11.4,21.4-18.1,21.4s-9.1-7-9.1-17.6
			c0-20.7,8.7-53.5,10.3-61.2H221.8z"/>
		<path d="M252,290c0.3-2.4,2-14.5,5.8-26.1c3.2-18.5,6.8-39.1,8.4-51.8h9.2l-4.1,23.8c6.2-12.8,12.5-24.4,22.7-24.4
			c5.5,0,8.7,3.9,8.7,10.9c0,14.4-12,40.8-12,54.8c0,4.6,1.7,6.3,4.1,6.3c5.6,0,12.6-15,20.2-34.7c1,0,3.1,1.4,3.1,1.7l-1.9,5
			c-6.7,17.8-14.7,35.4-24.9,35.4c-5.6,0-9.7-4.3-9.7-12.1c0-15.9,12.1-43.6,12.1-54.5c0-4.1-1.2-6.3-3.9-6.3
			c-5.6,0-15.9,15.9-22.2,38.3l-6.3,33.8H252z"/>
		<path d="M322.4,291.2c-7.3,0-10.3-8.5-10.3-20.2c0-23.9,12.5-60,27.9-60c6.8,0,9.7,5.5,10.6,13.2l2.4-12h7.7
			c-5.1,25.6-9.7,43.1-9.7,62.5c0,30.2,16.4,47.3,41.9,47.3c33.5,0,53.3-28,53.3-57.6c0-21.9-11.7-38.5-34.6-38.9
			c-5.1-0.1-11.1,1.2-14,5.7c-2.9,4.5-1.2,9.8,2.5,13.4c4.6,4.4,11.8,4.9,16-0.2c-4.3,5.1-6.6,7.7-13.7,7.7
			c-8.4,0-13.5-7.9-12.9-15.8c2-24.3,31.2-18.1,45.2-9.3c13,8.1,18.6,22.2,18.6,37.1c0,29.9-21.9,63-61,63
			c-33,0-49.2-21.5-49.2-54.8c0-2.4,0.2-4.8,0.3-7.3C338.5,279.7,331.8,291.2,322.4,291.2z M320.7,271c0,7.2,1.5,12.1,5.1,12.1
			c9.2,0,21.4-34.7,21.4-51.6c0-8.2-2.2-13.7-6.8-13.7C331,217.9,320.7,252,320.7,271z"/>
	</g>
	<g>
		<path fill="#D34866" d="M221,127.4c4,17.9-28.1,22.6-40.8,24.2c-4.8,0.6,2.2-22.9,2.9-24.5c3-6.7,7.5-16.8,15.2-19.3
			C208.1,104.7,218.5,116.4,221,127.4z"/>
		<path fill="#D34866" d="M131.7,156.3c7.4,16.8,36,1.7,47.2-4.6c4.2-2.4-15.3-17.2-16.8-18c-6.4-3.6-16-9.1-23.6-6.6
			C128.7,130.4,127.1,146,131.7,156.3z"/>
		<ellipse fill="#BA2048" cx="177.6" cy="148.3" rx="6" ry="6"/>
	</g>
</g>
<g>
	<path d="M20.2,82h0.8c0.8,0,2-0.1,3.4-0.2l3.7-0.3c1.4-0.1,2.4-0.2,2.8-0.2c1.5,0,2.7,1.2,2.7,2.7s-1.2,2.7-2.7,2.7
		c-0.4,0-1.1,0.1-2.3,0.2c-4.8,0.4-5.6,0.5-7.4,0.5c-3.1,0.1-5.3-0.5-6.4-4.7C14,80.1,14,76.9,14.2,73c0.1-2,0.1-3,0.1-3.2
		c0-5-0.3-13.5-0.9-25.8c-0.7-11.8-0.8-20.5-0.7-26.1c0-1.5,1.3-2.6,2.8-2.6s2.6,1.3,2.6,2.8c-0.2,5.4,0,13.9,0.7,25.7
		c0.7,12.3,0.9,21,0.9,26c0,0.3,0,1.4-0.1,3.5c-0.3,3.5-0.2,6.4,0.3,8.2C20.1,81.7,20.1,81.9,20.2,82z"/>
	<path d="M47.3,61.5c0.3,6.3,1,11.1,2.1,14.2c1.1,3.7,4.2,4.8,6.2,2.4c1-1.1,2.7-1.3,3.9-0.3c1.1,1,1.3,2.7,0.3,3.9
		c-2.6,3-6.2,3.9-9.3,2.6c-6-2.3-7-8.1-7.9-15.7c-0.9-7.5-1.2-16.4,0.2-22.7c0.8-4,2.2-7,4.1-8.6c2.7-2.3,5.7-1.9,8.3,0.1
		c3.7,2.9,6.5,9.9,6.6,15.4c0.1,3.5-0.8,6-2.6,7.6c-0.8,0.8-2.4,0.9-3.6,1c-1,0.1-2.3,0.1-3.9,0.1C50.3,61.6,48.9,61.6,47.3,61.5z
		 M55.8,56c0.4-0.6,0.6-1.5,0.5-2.9c-0.1-4.2-2.3-9.6-4.5-11.4c-0.4-0.3-0.7-0.4-0.8-0.4c-0.1-0.1-0.3,0-0.5,0.2
		c-2,1.6-3.2,7.4-3.2,14.6c1.7,0.1,3.1,0.1,4.3,0.1c1.4,0,2.6,0,3.5-0.1C55.3,56.1,55.6,56.1,55.8,56z"/>
	<path d="M71.7,71v-2.2c0-1.5,1.1-2.8,2.6-2.8s2.8,1.1,2.8,2.6v2.5c0,2,0.1,2.8,0.3,4.3c0.1,0.8,0.2,1.4,0.4,2c1,3.5,4.4,3.9,6,0.7
		c1.9-3.8,1.2-12.7-0.9-14.9c-0.6-0.6-1.8-1.2-3.7-1.9c-5.4-1.9-8.2-4.9-7.8-14.2c0.3-4.8,0.4-8.4,2.9-11c2.7-2.6,6.6-2.9,9.2-1.1
		c2.5,1.4,4.4,4,4.9,7c0.1,0.8,0.1,2.3,0,4.2c-0.1,0.5-0.1,0.8-0.1,1.3c-0.1,0.5-0.1,0.9-0.1,1.3c-0.1,0.5-0.1,0.8-0.1,0.8
		c-0.1,1.5-1.4,2.6-2.9,2.5c-1.5-0.1-2.6-1.4-2.5-2.9c0-0.1,0-0.4,0.1-0.8c0-0.4,0-0.8,0.1-1.3c0-0.5,0-0.8,0.1-1.2
		c0.1-3.3,0.4-4.8-2.2-6.2c-1.9-1.1-3.2,0.3-3.7,3.2c-0.3,1.4-0.9,8.9,0.8,11.5c0.5,0.7,1.4,1.3,3,1.9c5.5,2,8.6,4.1,9.2,12.5
		c0.4,5-0.1,8.9-1.5,11.7c-1.8,3.7-5.2,5.6-8.6,5.2c-3.5-0.4-6.3-2.9-7.5-6.6c-0.5-1.6-0.8-3.9-0.8-5.5C71.7,73,71.7,72.1,71.7,71z"
		/>
	<path d="M165.5,41.9l0.4,0.8c0.1,0.3,0.1,0.6,0.2,0.8c0.1,0.5,0.1,1,0.2,1.8l0.3,5.5V54c0.4,3.7,0.4,3.7,0.5,9
		c0,5.4,0.1,9.6,0.6,12.7c0.2,1.4,0.4,2.4,0.6,3h0.1c1.9,1,2.3,1.1,2.6,2.6c0.3,1.5-0.8,2.9-2.3,3.2c-0.8,0.1-1.4,0-2.1-0.5
		c-0.1-0.1-0.1-0.1-0.2-0.1l-0.3-0.2c-0.1-0.1-0.3-0.2-0.5-0.3c-1.9-1.1-2.4-2.4-2.9-3.9l-0.6,1.1c-2.5,4.5-6.7,6.2-11.2,2.8
		c-5.3-3.8-7-17.1-5.5-28.4c0.9-6.4,2.7-11.2,5.4-14.3c3.4-4,7.8-5.1,13.3-2.4C165.4,39.1,166,40.7,165.5,41.9z M161.1,54.4
		l-0.2-1.3c-0.5-2.8-0.7-5-0.8-6.4c0-0.1,0-0.4-0.1-0.8c-0.1-1.2-0.3-2.2,0.1-3.2c-2-0.6-3.8,0-5.2,1.7c-3.9,4.8-5.6,16.9-4,26.4
		c0.7,4.6,1.8,7.4,3.2,8.5c1.5,1.1,2.1,0.8,3.2-1C160,73.2,161,62.6,161.1,54.4z"/>
	<path d="M185.2,46.9l2.1,9.7c0.2,1.2,0.6,3.6,1,7.2l0.1,0.6c0.1-1.4,0.1-5.3,0-11.7c-0.1-6.7,0.1-12,0.5-16.1
		c0.1-1.5,1.5-2.5,3-2.4c1.5,0.1,2.5,1.5,2.4,3c-0.4,3.7-0.6,8.8-0.5,15.4c0.1,8,0,13.3-0.1,15.9c-0.3,7-0.6,9.4-1,11.7
		c-0.2,0.8-0.4,1.4-0.7,1.9c-1.5,2.7-4.9,2.5-6,0c-0.2-0.6-0.3-1.2-0.3-1.9v-1c0-0.1,0-0.2,0.1-0.2l-0.6-2.8
		c-0.1-0.1-0.1-0.3-0.2-0.5l-0.8-3.7c-0.5-1.8-0.8-4.2-1.3-7.3c-1.1-7.8-1.1-7.5-3.1-16.5c-1-4.6-1.7-7.8-2-9.8
		c-0.1-1.4,0.8-2.9,2.4-3.1c1.4-0.2,2.8,0.8,3.1,2.3C183.6,39.8,184.3,42.9,185.2,46.9z"/>
	<path d="M208.2,61.5c0.3,6.3,1,11.1,2.1,14.2c1.1,3.7,4.2,4.8,6.2,2.4c1-1.1,2.7-1.3,3.9-0.3c1.1,1,1.3,2.7,0.3,3.9
		c-2.6,3-6.2,3.9-9.3,2.6c-6-2.3-7-8.1-7.9-15.7c-0.9-7.5-1.2-16.4,0.2-22.7c0.8-4,2.2-7,4.1-8.6c2.7-2.3,5.7-1.9,8.3,0.1
		c3.7,2.9,6.5,9.9,6.6,15.4c0.1,3.5-0.8,6-2.6,7.6c-0.8,0.8-2.3,0.9-3.6,1c-1,0.1-2.3,0.1-3.9,0.1C211.2,61.6,209.8,61.6,208.2,61.5
		z M216.6,56c0.4-0.6,0.6-1.5,0.5-2.9c-0.1-4.2-2.3-9.6-4.5-11.4c-0.4-0.3-0.7-0.4-0.8-0.4c-0.1-0.1-0.3,0-0.5,0.2
		c-2,1.6-3.2,7.4-3.2,14.6c1.7,0.1,3.1,0.1,4.3,0.1c1.4,0,2.6,0,3.5-0.1C216.2,56.1,216.4,56.1,216.6,56z"/>
	<path d="M237.8,36.4l0.6,4.2c2.2-2.9,7-8.3,12.2-5.2c1.6,1,2.9,3,3.8,5.9l0.7,3c0.1,0.2,0.1,0.5,0.2,0.8c0.1,0.3,0.1,0.6,0.2,0.8
		s0.1,0.5,0.1,0.6c1.8,7.4,1.8,15.3,1.1,25.5c-0.4,5.2-0.6,8.8-0.6,11.1c0,1.5-1.2,2.7-2.7,2.7s-2.7-1.2-2.7-2.7
		c0-2.7,0.2-6.6,0.6-11.6c0.7-9.9,0.7-16.8-0.9-23.7c0-0.1-0.8-3.7-1.1-4.9c-1-3.3-1.4-3.7-3.8-1.8c-1.5,1.2-2.5,2.4-3.2,3.7
		c-3.1,6-2.5,14-2.3,20.6c0.1,3.3,0.2,5.6,0.2,6.9v4.3c0,2.3,0,4.1-0.3,4.9c-0.3,1-1.1,2-2.6,2c-1.4,0-2.2-0.8-2.5-1.6
		c0-0.1,0-0.3-0.1-0.4c-0.1-0.1-0.1-0.3-0.1-0.5c0-0.1,0-0.3-0.1-0.6c0-0.4,0-0.9-0.1-1.6c-0.3-3.4-0.4-4.8-0.3-9.3V65
		c-0.2-13-0.8-22.2-1.6-27.6c-0.3-1.5,0.8-2.9,2.4-3.2C236.1,33.9,237.5,35,237.8,36.4z"/>
	<path d="M272,38c-0.2-5.5-0.5-10.5-0.9-14.9c-0.1-1.5,0.9-2.9,2.4-3s2.9,0.9,3,2.4c0.5,4.5,0.8,9.6,0.9,15.3
		c1.2-0.1,2.3-0.1,3.4-0.1c1.5,0,2.7,1.2,2.7,2.7s-1.2,2.7-2.7,2.7c-0.9,0-2,0-3.2,0.1c0.1,2.1,0.1,5.2,0.2,9.4
		c0.3,13.3,0.8,23.1,1.4,29.8c0.1,1.5-0.9,2.9-2.4,3s-2.9-0.9-3-2.4c-0.7-7.2-1.1-17.3-1.4-30.2c-0.1-4.3-0.1-7.4-0.2-9.4
		c-1.4,0.1-2.5,0.1-3.6,0.1c-1.5,0-2.7-1.2-2.7-2.7s1.2-2.7,2.7-2.7C269.6,38.1,270.8,38.1,272,38z"/>
	<path d="M303.9,78.8l0.7,1.2l0.9,0.3c0.3-0.1,0.6-0.6,0.8-1.3c0.5-1.2,0.9-3.3,1.2-6.4c0.8-10.2,0.6-13.4,0.1-23.8
		c-0.3-5.2-0.4-9.2-0.4-12.2c0-1.5,1.2-2.7,2.7-2.7s2.7,1.2,2.7,2.7c0,2.7,0.1,6.7,0.4,11.9c0.5,10.5,0.7,14.1-0.1,24.6
		c-0.8,7.1-2.2,10.4-4.9,11.9c-3.7,2-7.7-0.2-9.3-4.2c-0.6-1.4-1-3.2-1.5-5.5c-0.6-3.5-1-8.3-1.3-14.5c-0.1-1.9-0.1-4.5-0.2-8
		c-0.2-6.9-0.4-13.5-1.1-16.4c-0.4-1.4,0.5-2.9,2-3.3c1.4-0.4,2.9,0.5,3.3,2c1,3.5,1.1,10.6,1.3,17.5c0.2,6.9,0.3,15.4,1.4,21.8
		C303.1,76.3,303.5,77.8,303.9,78.8z"/>
	<path d="M327.9,37.6v0.7c2.1-1.5,4.6-2,7.6-1.5c1.5,0.3,2.5,1.7,2.3,3.2s-1.7,2.5-3.2,2.3c-3.9-0.8-5.5,1.6-5.9,7.5
		c-0.1,0.8-0.1,1.7-0.1,2.6c0.1,1.8,0.2,3.4,0.2,5.3l0.4,4.3c0.3,2.3,0.4,3.9,0.4,4.9c0.2,6.6,0.3,10.4,0.2,11.7v0.7
		c0.1,0.7,0.2,1,0.2,1.2c0,1.6-0.3,3.2-2.2,3.9c-0.8,0.3-1.7,0.1-2.5-0.5c-1.4-0.8-1.9-2.3-1.5-4.2c0.3-1.1,0.4-1.3,0.1-2.8
		c-0.1-0.8-0.1-1.5-0.2-2c-0.1-1.4-0.2-3.2-0.1-5.5v-5.1l-0.2-6.7c-0.1-1.7-0.2-3.3-0.2-4.7c-0.5-9.3-0.7-14.3-0.7-15
		c0-1.5,1.1-2.8,2.6-2.8S327.9,36.1,327.9,37.6z"/>
	<path d="M351.6,61.5c0.3,6.3,1,11.1,2.1,14.2c1.1,3.7,4.2,4.8,6.2,2.4c1-1.1,2.7-1.3,3.9-0.3c1.1,1,1.3,2.7,0.3,3.9
		c-2.6,3-6.2,3.9-9.3,2.6c-6-2.3-7-8.1-7.9-15.7c-0.9-7.5-1.2-16.4,0.2-22.7c0.8-4,2.2-7,4.1-8.6c2.7-2.3,5.7-1.9,8.3,0.1
		c3.7,2.9,6.5,9.9,6.6,15.4c0.1,3.5-0.8,6-2.6,7.6c-0.8,0.8-2.4,0.9-3.6,1c-1,0.1-2.3,0.1-3.9,0.1C354.6,61.6,353.2,61.6,351.6,61.5
		z M360.1,56c0.4-0.6,0.6-1.5,0.5-2.9c-0.1-4.2-2.3-9.6-4.5-11.4c-0.4-0.3-0.7-0.4-0.8-0.4c-0.1-0.1-0.3,0-0.5,0.2
		c-2,1.6-3.2,7.4-3.2,14.6c1.7,0.1,3.1,0.1,4.3,0.1c1.4,0,2.6,0,3.5-0.1C359.6,56.1,359.9,56.1,360.1,56z"/>
	<path d="M376,71v-2.2c0-1.5,1.1-2.8,2.6-2.8s2.8,1.1,2.8,2.6v2.5c0,2,0.1,2.8,0.3,4.3c0.1,0.8,0.2,1.4,0.4,2c1,3.5,4.4,3.9,6,0.7
		c1.9-3.8,1.2-12.7-0.9-14.9c-0.6-0.6-1.8-1.2-3.7-1.9c-5.4-1.9-8.2-4.9-7.8-14.2c0.3-4.8,0.4-8.4,2.9-11c2.7-2.6,6.6-2.9,9.2-1.1
		c2.5,1.4,4.4,4,4.9,7c0.1,0.8,0.1,2.3,0,4.2c-0.1,0.5-0.1,0.8-0.1,1.3c-0.1,0.5-0.1,0.9-0.1,1.3c-0.1,0.5-0.1,0.8-0.1,0.8
		c-0.1,1.5-1.4,2.6-2.9,2.5c-1.5-0.1-2.6-1.4-2.5-2.9c0-0.1,0-0.4,0.1-0.8c0-0.4,0-0.8,0.1-1.3c0-0.5,0-0.8,0.1-1.2
		c0.1-3.3,0.4-4.8-2.2-6.2c-1.9-1.1-3.2,0.3-3.7,3.2c-0.3,1.4-0.9,8.9,0.8,11.5c0.5,0.7,1.4,1.3,3,1.9c5.5,2,8.6,4.1,9.2,12.5
		c0.4,5-0.1,8.9-1.5,11.7c-1.8,3.7-5.2,5.6-8.6,5.2c-3.5-0.4-6.3-2.9-7.5-6.6c-0.5-1.6-0.8-3.9-0.8-5.5C376,73,376,72.1,376,71z"/>
	<path d="M464.4,36.8v-1.5c0-0.8-0.1-2.6-0.2-5.2c-0.3-5.2-0.2-8.6,0.2-12.3c0.3-1.5,1.6-2.6,3.1-2.4c1.4,0.2,2.4,1.6,2.3,3
		c-0.4,3.4-0.5,6.5-0.2,11.4c0.1,2.4,0.2,4.3,0.2,5.5c0.3,18.3,0.6,33.9,1,46.6c0,1.5-1.1,2.8-2.6,2.8s-2.7-1-2.8-2.5
		c-2.2,2.6-5.4,3.6-9.4,1.7c-2.9-1.3-4.9-3.1-6-5.4c-0.8-1.9-1.4-6-1.7-10.9c-0.5-11.3,0.8-24.1,4.9-29.6
		C456.3,34,460.5,34.1,464.4,36.8z M460.9,41c-1.5-1-2.3-1-3.4,0.4c-2.9,3.9-4.2,15.4-3.8,25.9c0.1,2.3,0.3,4.3,0.5,5.9
		c0.5,3,0.7,4.1,4,5.7c0.8,0.4,1.6,0.5,2.1,0.4c0.3-0.1,0.7-0.3,0.9-0.8c0.8-1,1.3-2.9,1.8-5.7c1.8-9.8,1.3-25.2-2.1-31.7
		C461,41.1,461,41.1,460.9,41z"/>
	<path d="M484.7,61.5c0.3,6.3,1,11.1,2.1,14.2c1.1,3.7,4.2,4.8,6.2,2.4c1-1.1,2.7-1.3,3.9-0.3c1.1,1,1.3,2.7,0.3,3.9
		c-2.6,3-6.2,3.9-9.3,2.6c-6-2.3-7-8.1-7.9-15.7c-0.9-7.5-1.2-16.4,0.2-22.7c0.8-4,2.2-7,4.1-8.6c2.7-2.3,5.7-1.9,8.3,0.1
		c3.7,2.9,6.5,9.9,6.6,15.4c0.1,3.5-0.8,6-2.6,7.6c-0.8,0.8-2.3,0.9-3.6,1c-1,0.1-2.3,0.1-3.9,0.1C487.7,61.6,486.3,61.6,484.7,61.5
		z M493.2,56c0.4-0.6,0.6-1.5,0.5-2.9c-0.1-4.2-2.3-9.6-4.5-11.4c-0.4-0.3-0.7-0.4-0.8-0.4c-0.1-0.1-0.3,0-0.5,0.2
		c-2,1.6-3.2,7.4-3.2,14.6c1.7,0.1,3.1,0.1,4.3,0.1c1.4,0,2.6,0,3.5-0.1C492.7,56.1,493,56.1,493.2,56z"/>
</g>
<g>
</g>
<g>
</g>
<g>
</g>
<g>
</g>
<g>
</g>
<g>
</g>
<g>
</g>
<g>
</g>
<g>
</g>
<g>
</g>
<g>
</g>
<g>
</g>
<g>
</g>
<g>
</g>
<g>
</g>
</svg>
