<?xml version="1.0" encoding="utf-8"?>
<!-- Generator: Adobe Illustrator 18.0.0, SVG Export Plug-In . SVG Version: 6.00 Build 0)  -->
<!DOCTYPE svg PUBLIC "-//W3C//DTD SVG 1.1//EN" "http://www.w3.org/Graphics/SVG/1.1/DTD/svg11.dtd">
<svg version="1.1" id="Calque_1" xmlns="http://www.w3.org/2000/svg" xmlns:xlink="http://www.w3.org/1999/xlink" x="0px" y="0px"
	 viewBox="0 0 430.1 745.3" enable-background="new 0 0 430.1 745.3" xml:space="preserve">
<g>
	<rect x="88.5" y="30.9" fill="#C67F38" width="340.4" height="693.5"/>
	<rect x="80.6" y="715.7" fill="#9B5F1E" width="349.5" height="8.6"/>
	<rect x="80.4" y="30.7" fill="#9B5F1E" width="348.7" height="8.6"/>
	<rect x="88" y="191.6" fill="#9B5F1E" width="341.6" height="15.7"/>
	<path fill="#9B5F1E" d="M82.7,726.3l-58.3,18.6c-5.4,1.7-10.9-2.3-10.9-7.9V8.3c0-6.1,6.4-10.2,11.9-7.5l58.3,27.8
		c2.9,1.4,4.7,4.3,4.7,7.5v682.1C88.5,721.9,86.2,725.1,82.7,726.3z"/>
	<path fill="#6D3D2C" d="M0,451.3c0,14.3,5.9,26,13.9,26.8v-53.6C5.9,425.3,0,437,0,451.3z"/>
</g>
<g>
</g>
<g>
</g>
<g>
</g>
<g>
</g>
<g>
</g>
<g>
</g>
<g>
</g>
<g>
</g>
<g>
</g>
<g>
</g>
<g>
</g>
<g>
</g>
<g>
</g>
<g>
</g>
<g>
</g>
</svg>
