<?xml version="1.0" encoding="utf-8"?>
<!-- Generator: Adobe Illustrator 18.0.0, SVG Export Plug-In . SVG Version: 6.00 Build 0)  -->
<!DOCTYPE svg PUBLIC "-//W3C//DTD SVG 1.1//EN" "http://www.w3.org/Graphics/SVG/1.1/DTD/svg11.dtd">
<svg version="1.1" id="Calque_1" xmlns="http://www.w3.org/2000/svg" xmlns:xlink="http://www.w3.org/1999/xlink" x="0px" y="0px"
	 viewBox="0 0 149.3 105.3" enable-background="new 0 0 149.3 105.3" xml:space="preserve">
<g>
	<path fill="#FFFFFF" stroke="#8C8C8C" stroke-width="0.6234" stroke-miterlimit="10" d="M142.2,105H7.1c-3.7,0-6.8-3-6.8-6.8V7.1
		c0-3.7,3-6.8,6.8-6.8h135.2c3.7,0,6.8,3,6.8,6.8v91.2C149,102,146,105,142.2,105z"/>
	<circle fill="#8C8C8C" cx="74.6" cy="13.6" r="3.8"/>
	<g id="layer1">
		<path id="path2417" fill="#FF0000" d="M70.7,92.1c-1.7-2-6-5.8-9.5-8.6C50.7,75.4,49.2,74.3,45,70.3C38.3,63.9,33.4,55.2,31.8,46
			c-1.1-6.7-1.6-16.1,4.2-20.9c6.6-5.6,21.6-4,28.6-0.1c3.8,2.1,7.7,6.7,8.5,10l0.5,2l1.2-2.8c7-15.6,29.2-15.4,36.9,0.4
			c6.8,13.8-0.2,23.7-9.4,33.2c-9.8,10.2-21.8,14.5-28.4,27.9C73.2,97.1,73.9,95.8,70.7,92.1z"/>
		<g id="g2221" transform="translate(129.28571,-64.285714)">
		</g>
	</g>
</g>
<g>
</g>
<g>
</g>
<g>
</g>
<g>
</g>
<g>
</g>
<g>
</g>
<g>
</g>
<g>
</g>
<g>
</g>
<g>
</g>
<g>
</g>
<g>
</g>
<g>
</g>
<g>
</g>
<g>
</g>
</svg>
