<?xml version="1.0" encoding="utf-8"?>
<!-- Generator: Adobe Illustrator 18.0.0, SVG Export Plug-In . SVG Version: 6.00 Build 0)  -->
<!DOCTYPE svg PUBLIC "-//W3C//DTD SVG 1.1//EN" "http://www.w3.org/Graphics/SVG/1.1/DTD/svg11.dtd">
<svg version="1.1" id="Calque_1" xmlns="http://www.w3.org/2000/svg" xmlns:xlink="http://www.w3.org/1999/xlink" x="0px" y="0px"
	 viewBox="0 0 45.3 152.2" enable-background="new 0 0 45.3 152.2" xml:space="preserve">
<g>
	<g>
		<path d="M11.2,39.4H26c1.6,0,2.5,1.9,2.5,3.7s-0.9,3.7-2.5,3.7h-23c-1.7,0-2.4-0.9-2.4-2.2c0-0.9,0.3-1.9,0.9-3l15.2-27H4.1
			c-1.6,0-2.5-1.7-2.5-3.7c0-1.8,0.8-3.7,2.5-3.7H25c1.6,0,2.4,0.9,2.4,2.2c0,0.9-0.3,1.9-0.9,3L11.2,39.4z"/>
	</g>
	<g>
		<path d="M10.4,102.5H18c0.8,0,1.3,1,1.3,1.9s-0.5,1.9-1.3,1.9H6.1c-0.9,0-1.3-0.5-1.3-1.1c0-0.4,0.2-1,0.5-1.5l7.9-13.9H6.8
			c-0.8,0-1.3-0.9-1.3-1.9c0-0.9,0.4-1.9,1.3-1.9h10.8c0.8,0,1.3,0.5,1.3,1.1c0,0.4-0.2,1-0.5,1.5L10.4,102.5z"/>
	</g>
	<g>
		<path d="M38.4,144.3h5.7c0.6,0,1,0.8,1,1.4c0,0.7-0.4,1.4-1,1.4h-9c-0.7,0-1-0.4-1-0.9c0-0.3,0.1-0.8,0.4-1.2l6-10.5h-4.9
			c-0.6,0-1-0.7-1-1.4c0-0.7,0.3-1.4,1-1.4h8.1c0.6,0,0.9,0.4,0.9,0.9c0,0.3-0.1,0.7-0.4,1.2L38.4,144.3z"/>
	</g>
</g>
<g>
</g>
<g>
</g>
<g>
</g>
<g>
</g>
<g>
</g>
<g>
</g>
<g>
</g>
<g>
</g>
<g>
</g>
<g>
</g>
<g>
</g>
<g>
</g>
<g>
</g>
<g>
</g>
<g>
</g>
</svg>
