<?xml version="1.0" encoding="utf-8"?>
<!-- Generator: Adobe Illustrator 18.0.0, SVG Export Plug-In . SVG Version: 6.00 Build 0)  -->
<!DOCTYPE svg PUBLIC "-//W3C//DTD SVG 1.1//EN" "http://www.w3.org/Graphics/SVG/1.1/DTD/svg11.dtd">
<svg version="1.1" id="Calque_1" xmlns="http://www.w3.org/2000/svg" xmlns:xlink="http://www.w3.org/1999/xlink" x="0px" y="0px"
	 viewBox="0 0 159.4 555.9" enable-background="new 0 0 159.4 555.9" xml:space="preserve">
<g>
	<g>
		<path fill="#D34866" d="M156.3,317.6c-0.7-2.7-1.3-5.5-2-8.2c-1.7-7-3.5-14.1-5.2-21.1c-2.7-11-5.4-22.3-8.1-33.3
			c-0.1-0.3-0.1,0.8-0.2-1.2H84.5c0,0-1.7,0-4.7,0s-4.8,0-4.8,0H18.7c-0.1,2-0.1,0.9-0.2,1.2c-2.7,11-5.4,22.1-8.1,33.1
			c-1.7,7-3.5,14.2-5.2,21.2c-0.7,2.7-1.3,5.6-2,8.3c-0.3,1.2-3.4,10.5-3.1,10.5c0,0,0,0,0,0c0,0,0-0.1,0.1-0.1
			c4.7-0.2,9.5,0.5,14.2,1.7c4.4,1.1,8.5,4.4,12.9,5.9c5.1,1.7,11,2.9,16.4,2.4c10.7-0.9,19.6-8.6,30.2-9.9c3.6-0.4,7.4-0.4,11,0.3
			c7.8,1.5,12.6,7.5,20.6,8.7c7,1.1,15.1,0.6,21.8-1.9c3.7-1.4,7.3-3.4,11-4.8c3.6-1.3,7.2-2.2,10.9-2.6c3.5-0.4,6.8,0.2,10.3,0.1
			C159.7,328,156.6,318.8,156.3,317.6z"/>
		<g>
			<polygon fill="none" stroke="#CECECE" stroke-width="2.3476" stroke-linejoin="round" stroke-miterlimit="10" points="
				21.5,110.2 133.1,110.1 77.3,61.6 			"/>
			<line fill="none" stroke="#CECECE" stroke-width="2" stroke-miterlimit="10" x1="76.8" y1="61.9" x2="76.8" y2="46.9"/>
		</g>
		<path fill="#E872A2" d="M126.6,93c-2.8-0.1-5.6-0.1-8.1,1c-5,2.3-6.4,7.4-8.4,12c-2.3,5.4-4.9,10-9.1,14.4
			c-4.5,4.7-10.5,8.4-17,8.7c-2.9,0.1-5.7,0.1-8.6,0c-6.5-0.3-12.5-4-17-8.7c-4.2-4.4-6.8-9-9.1-14.4c-2-4.6-3.3-9.7-8.4-12
			c-2.5-1.1-5.3-1.2-8.1-1c-14.7,0.6-14.2,6.7-14.2,19.1c0,47.2,0,94.8,0,141.8c0,0,30,0,61,0s61,0,61,0c0-47,0-94.6,0-141.8
			C140.8,99.7,141.3,93.6,126.6,93z"/>
	</g>
	<g>
		<path fill="#D34866" d="M118.1,22.9c-1.8,15.1-28.2,10-38.6,7.7c-3.9-0.9,8-17.3,9-18.3C92.7,7.8,99,1.2,105.7,1.4
			C114.2,1.6,119.2,13.7,118.1,22.9z"/>
		<path fill="#D34866" d="M40.2,21c1.2,15.2,27.7,11.2,38.2,9.4c4-0.7-7.2-17.7-8.2-18.7C66.2,7,60.3,0.1,53.6,0
			C45-0.2,39.5,11.7,40.2,21z"/>
		<ellipse transform="matrix(0.9433 0.3319 -0.3319 0.9433 13.5139 -24.47)" fill="#BA2048" cx="78.4" cy="27.3" rx="5" ry="5"/>
	</g>
	<g>
		<path fill="#3A3A3A" d="M54.8,538.3c14.3,0,25.9,7.6,25.9,17.6H28.9C28.9,545.9,40.5,538.3,54.8,538.3z"/>
		<path fill="#3A3A3A" d="M111.8,538.3c14.3,0,25.9,7.6,25.9,17.6H85.9C85.9,545.9,97.5,538.3,111.8,538.3z"/>
	</g>
</g>
<g>
</g>
<g>
</g>
<g>
</g>
<g>
</g>
<g>
</g>
<g>
</g>
<g>
</g>
<g>
</g>
<g>
</g>
<g>
</g>
<g>
</g>
<g>
</g>
<g>
</g>
<g>
</g>
<g>
</g>
</svg>
