<?xml version="1.0" encoding="utf-8"?>
<!-- Generator: Adobe Illustrator 18.0.0, SVG Export Plug-In . SVG Version: 6.00 Build 0)  -->
<!DOCTYPE svg PUBLIC "-//W3C//DTD SVG 1.1//EN" "http://www.w3.org/Graphics/SVG/1.1/DTD/svg11.dtd">
<svg version="1.1" id="Calque_1" xmlns="http://www.w3.org/2000/svg" xmlns:xlink="http://www.w3.org/1999/xlink" x="0px" y="0px"
	 viewBox="0 0 150 595" enable-background="new 0 0 150 595" xml:space="preserve">
<g>
	<g>
		<path fill="#3A200A" d="M109.3,541.5V574c0,1.8,1.4,3.3,3.2,3.5c10.2,0.9,18.9,5.9,21.8,12.6c1,2.3-0.7,4.9-3.2,4.9h-21.6H86.8
			c-1.9,0-3.5-1.6-3.5-3.5v-50c0-1.9,1.6-3.5,3.5-3.5h19C107.7,538,109.3,539.6,109.3,541.5z"/>
		<path fill="#3A200A" d="M52.5,541v32.5c0,1.8-1.4,3.3-3.2,3.5c-10.2,0.9-18.9,5.9-21.8,12.6c-1,2.3,0.7,4.9,3.2,4.9h21.6H75
			c1.9,0,3.5-1.6,3.5-3.5v-50c0-1.9-1.6-3.5-3.5-3.5H56C54.1,537.5,52.5,539.1,52.5,541z"/>
	</g>
	<g>
		<path fill="#2B4FC1" d="M13.5,290.9h122.4c0,0-20.9,137-34.8,147h-49C52.1,437.9,21.9,376.9,13.5,290.9z"/>
		<line fill="none" stroke="#103A8E" stroke-miterlimit="10" x1="75.5" y1="332.9" x2="75.5" y2="437.9"/>
		<g>
			<polygon fill="none" stroke="#CECECE" stroke-width="2.3476" stroke-linejoin="round" stroke-miterlimit="10" points="
				18.4,147.4 130.1,147.3 74.3,98.8 			"/>
			<line fill="none" stroke="#CECECE" stroke-width="2" stroke-miterlimit="10" x1="74" y1="98.9" x2="74" y2="83.9"/>
		</g>
		<path fill="#4AB2FF" d="M133.1,130.5c-6.6-1.4-14.5-0.6-19.7,1.7c-5,2.3-6.4,7.4-8.3,12c-2.3,5.4-4.9,10-9.1,14.4
			c-4.5,4.7-10.5,8.4-17,8.7c-2.9,0.1-5.7,0.1-8.6,0c-6.5-0.3-12.5-4-17-8.7c-4.2-4.4-6.8-9-9.1-14.4c-1.8-4.2-3.1-8.6-7-11.3
			c-3.9-2.7-7.6-2.5-12.1-2.5c-8.4,0-17.7,1-21.7,9.5C-0.4,148.2,0,158.1,0,167c0,15.9,0,31.7,0,47.6c0,20,0,40,0,59.9
			c0,10.5,0,20.9,0,31.4c0,0,0,0,0,0h15v-14c5,0,32,0,59.7,0c27.7,0,54.3,0,60.3,0v14h15V160.5c0-9.6-1.1-21.3-9.9-27.3
			C138.2,132,135.7,131.1,133.1,130.5z"/>
		<line fill="none" stroke="#2F95D3" stroke-width="2" stroke-miterlimit="10" x1="16" y1="291.9" x2="16" y2="173.9"/>
		<line fill="none" stroke="#2F95D3" stroke-width="2" stroke-miterlimit="10" x1="134" y1="291.9" x2="134" y2="173.9"/>
	</g>
	<g>
		<path fill="#4AB2FF" d="M114.8,62.9c0-29-18.1-51.1-40.4-51.1S34,33.9,34,62.9H114.8z"/>
		<path fill="#2B4FC1" d="M113.8,70.2h-78c-4.5,0-8.2-3.7-8.2-8.2v0c0-4.5,3.7-8.2,8.2-8.2h78c4.5,0,8.2,3.7,8.2,8.2v0
			C122,66.5,118.3,70.2,113.8,70.2z"/>
		<circle fill="#2B4FC1" cx="74.4" cy="9.3" r="9.3"/>
		<path fill="none" stroke="#2F95D3" stroke-width="2" stroke-miterlimit="10" d="M65.1,23.3c0,0-12,6-16.7,26"/>
		<path fill="none" stroke="#2F95D3" stroke-width="2" stroke-miterlimit="10" d="M84.5,23.3c0,0,12,6,16.7,26"/>
		<line fill="none" stroke="#2F95D3" stroke-width="2" stroke-miterlimit="10" x1="75" y1="24.9" x2="75" y2="47.9"/>
	</g>
</g>
<g>
</g>
<g>
</g>
<g>
</g>
<g>
</g>
<g>
</g>
<g>
</g>
<g>
</g>
<g>
</g>
<g>
</g>
<g>
</g>
<g>
</g>
<g>
</g>
<g>
</g>
<g>
</g>
<g>
</g>
</svg>
