<?xml version="1.0" encoding="utf-8"?>
<!-- Generator: Adobe Illustrator 18.0.0, SVG Export Plug-In . SVG Version: 6.00 Build 0)  -->
<!DOCTYPE svg PUBLIC "-//W3C//DTD SVG 1.1//EN" "http://www.w3.org/Graphics/SVG/1.1/DTD/svg11.dtd">
<svg version="1.1" id="Calque_1" xmlns="http://www.w3.org/2000/svg" xmlns:xlink="http://www.w3.org/1999/xlink" x="0px" y="0px"
	 viewBox="0 0 347.6 553.1" enable-background="new 0 0 347.6 553.1" xml:space="preserve">
<g>
	<ellipse opacity="0.1" cx="214.8" cy="545.4" rx="79.1" ry="7.7"/>
	<path fill="#D8D5D2" d="M271.8,341c0-67.1-28.6-121.5-63.8-121.5c-35.3,0-63.8,54.4-63.8,121.5c0,33.4,7.1,60.2,18.6,78.7
		c23.5,73,31.5,113.9,45.3,113.9c13.8,0,19.4-37.8,45.3-113.9C264.7,401.2,271.8,374.4,271.8,341z"/>
	<path fill="none" stroke="#444444" stroke-width="3.6695" stroke-linecap="round" stroke-miterlimit="10" d="M48,248.9
		c3,7-6.3,10.2-10.9,5.9c-4.4-4.1-0.7-12.4,4.6-13.5c7.5-1.7,16.3,3.7,17.3,11.2c0.8,5.8-3.6,11.8-8.4,14.6
		c-10.7,6.3-25.7,0.9-26.5-12.2c-0.4-7,2.2-15.5,7.8-20c10-8,25.6-7.6,37.5-5.3c25,4.7,44.6,30.8,44.9,55.7
		c0.2,16.8-7,31.5-11.9,47.2c-2.8,9.2-2.6,23.2,4.1,31c5.1,5.9,14,6.9,21.3,5.7c6.6-1.1,18.2-5.5,22.4-10.6"/>
	<path fill="#FFFFFF" stroke="#353535" stroke-miterlimit="10" d="M299.9,247.1c-2.2-0.4-4.2-1.1-6.2-1.9
		c-1.2,8.9,0.1,16.1,3.3,16.7s7.1-5.6,9.3-14.2C304.2,247.7,302.1,247.6,299.9,247.1z"/>
	<path fill="#DD7CBA" d="M207.9,219.5c-35.3,0-63.8,53.9-63.8,121c0,7.3,0.3,14.4,1,20.4h125.7c0.6-6,1-13.1,1-20.4
		C271.8,273.4,243.2,219.5,207.9,219.5z"/>
	<g>
		<path fill="#D8D5D2" d="M244.9,111.9C244.9,111.9,244.9,111.9,244.9,111.9C244.8,111.9,244.9,111.9,244.9,111.9z"/>
		<path fill="#D8D5D2" d="M331.9,242.4c0.1,0,0.3-0.2,0.4-0.1l-0.5-0.3c-16.7-65-50.8-102-71.1-118.8c-4.7-4.3-10-8.1-15.8-11.3
			l-0.1,0.1c-37.6-20.8-83.6-9.7-102.8,24.9c-19.2,34.6-4.4,79.5,33.1,100.5l0.1-0.1c5.8,3.2,11.8,5.7,17.9,7.4
			c16.9,5.7,62.9,10.9,99.1,8.1c-3.7-4.8-24.8-6.6-26.1-12.6c11.5,4.9,23.5,7.2,35.7,9.9c9.5-1.9,19.4-4.4,29.8-7.7l0.5,0.3
			C331.9,242.8,331.9,242.6,331.9,242.4z"/>
	</g>
	<g>
		<path fill="#D8D5D2" d="M203.5,120.7c-2.7-6.2-5.8-12.3-9-18.2c-6.8-12.7-14.2-25.1-22.6-36.8c-9.1-12.5-18.3-23.3-29.7-33.9
			c-9.5-8.9-19.5-17.6-31.3-23.4C86.8-3.4,54.6-4.2,34.3,15.3C23.5,25.8,16.9,39.5,11.9,53.5c-2.1,5.8-3.8,11.7-5.4,17.6
			c-2.9,11.4-5,23.1-5.9,34.8c-1.7,20.7-0.5,46.5,11.2,64.4c7.1,10.8,12,16.9,24.3,22.3c11.9,5.2,24.9,7.4,37.9,7.9
			c16,0.6,31.3-1.6,47.1-3.1c13.7-1.4,26.2-3.4,39.5-6.7c2.3-0.6,15.3-2.5,16.1-4.4C176.7,186.2,203.5,120.7,203.5,120.7z"/>
		<path fill="#FFF5FF" d="M197.1,125.3c-3.9-9.8-13.2-23.2-18.7-32.2c-12.7-20.8-28.6-40.1-48.3-54.6C109.5,23.2,77.7,4.4,53.5,22.2
			C24.4,43.8,11.3,87,10.3,121.5C9.7,140.3,14,157,28.1,170.2c15,14,34.5,17.5,54.2,17.7c0,0,72.4,0.4,87.4-13.5L197.1,125.3z"/>
	</g>
	
		<ellipse transform="matrix(0.9812 0.1929 -0.1929 0.9812 35.7171 -43.522)" fill="#FFFFFF" cx="241.3" cy="161.6" rx="13.8" ry="21.3"/>
	<path fill="#424242" d="M228.6,164.2c-1.6-0.9-3.7-2.6-2.1-4.3c0,0-3.3,1.3-0.6,3.7c-2.3-1.3-4.8-3.4-3.9-6.1c0,0-4.7,3.5,5.3,7.8
		c0.9-0.1,1.8-0.2,2.7-0.3l0,0C230.1,165,229.4,164.7,228.6,164.2z"/>
	<path fill="#353535" d="M242,158.2c-6.6-1.3-13,3-14.7,9.8c0.7,7.6,4.5,13.4,9.9,14.5c5.4,1.1,11.1-3,14.6-9.7
		C252.9,166,248.6,159.5,242,158.2z"/>
	
		<ellipse transform="matrix(0.9812 0.1929 -0.1929 0.9812 37.8704 -44.205)" fill="#FFFFFF" cx="245.9" cy="172.3" rx="3.7" ry="4"/>
	<circle fill="#FFF5FF" cx="334.6" cy="242.9" r="13"/>
	<path fill="#B7B1AC" d="M219.9,524.3c14.3,0,25.9,8.6,25.9,17.6H194C194,532.9,205.6,524.3,219.9,524.3z"/>
	<g>
		<g>
			<path fill="#606060" d="M279.4,220.1c0,0-0.4-0.3-1.2-0.8c-0.8-0.5-2-1.2-3.6-2.1c-0.8-0.4-1.6-0.9-2.6-1.4c-1-0.5-2-1-3.1-1.6
				c-1.1-0.6-2.3-1.1-3.6-1.6c-0.6-0.3-1.3-0.6-2-0.9c-0.7-0.3-1.4-0.6-2.1-0.9c-1.4-0.6-2.9-1.2-4.4-1.8c-1.6-0.6-3.2-1.1-4.8-1.7
				c-1.6-0.6-3.4-1.2-5.1-1.7c-1.8-0.6-3.5-1.1-5.4-1.7c-1.8-0.5-3.7-1-5.6-1.5c-0.9-0.3-1.9-0.5-2.9-0.8c-1-0.3-1.9-0.5-2.9-0.7
				c-3.9-0.9-7.9-1.9-11.9-2.6c-2-0.4-4-0.8-6-1.2c-2-0.4-4-0.6-6-1c-4-0.6-7.9-1.3-11.7-1.7c-3.8-0.4-7.5-0.9-11-1.3
				c-3.5-0.3-6.8-0.6-9.9-0.8c-1.5-0.1-3-0.3-4.4-0.4c-1.4-0.1-2.7-0.1-4-0.2c-2.5-0.1-4.7-0.3-6.5-0.4c-3.6-0.2-5.6-0.4-5.6-0.4
				s2,0,5.6-0.1c1.8,0,4,0,6.5,0c1.3,0,2.6,0,4,0c1.4,0,2.9,0.1,4.4,0.2c3.1,0.1,6.4,0.3,9.9,0.5c3.5,0.2,7.2,0.6,11.1,1
				c3.8,0.3,7.8,0.9,11.8,1.5c2,0.3,4,0.5,6,0.9c2,0.4,4,0.8,6.1,1.1c4.1,0.7,8,1.8,12,2.7c1,0.2,2,0.5,2.9,0.7
				c1,0.3,1.9,0.6,2.9,0.8c1.9,0.6,3.8,1.1,5.6,1.7c1.8,0.6,3.6,1.2,5.4,1.8c1.8,0.6,3.5,1.2,5.1,1.9c1.6,0.7,3.2,1.3,4.8,1.9
				c1.5,0.7,3,1.3,4.4,2c1.4,0.6,2.7,1.3,4,1.9c1.2,0.7,2.4,1.2,3.5,1.9c1.1,0.6,2.1,1.2,3,1.7c0.9,0.6,1.8,1.1,2.5,1.6
				c0.8,0.5,1.4,0.9,2,1.3c0.6,0.4,1.1,0.7,1.4,1C279,219.8,279.4,220.1,279.4,220.1z"/>
		</g>
		<g>
			<path fill="#606060" d="M277.5,225.9c0,0-0.4-0.2-1.2-0.5c-0.8-0.3-2-0.7-3.6-1.2c-0.8-0.2-1.6-0.5-2.6-0.7
				c-0.9-0.2-2-0.5-3.1-0.7c-1.1-0.3-2.3-0.4-3.5-0.7c-1.2-0.2-2.5-0.5-3.9-0.6c-1.4-0.2-2.8-0.4-4.3-0.6c-1.5-0.1-3-0.2-4.6-0.4
				c-0.8-0.1-1.6-0.1-2.4-0.2c-0.8,0-1.6,0-2.5-0.1c-1.7-0.1-3.4-0.1-5.1-0.2c-1.7,0-3.5,0.1-5.2,0.1c-1.8,0-3.6,0.1-5.4,0.2
				c-3.6,0.3-7.3,0.4-10.9,1c-1.8,0.2-3.7,0.4-5.5,0.7l-1.4,0.2l-1.3,0.2c-0.9,0.2-1.8,0.3-2.7,0.5c-3.6,0.7-7.1,1.1-10.5,2
				c-3.4,0.8-6.6,1.4-9.7,2.2c-3.1,0.8-6,1.6-8.6,2.3c-1.3,0.4-2.6,0.7-3.8,1c-1.2,0.4-2.3,0.7-3.4,1.1c-2.2,0.7-4,1.3-5.6,1.7
				c-3.1,1-4.9,1.5-4.9,1.5s1.7-0.7,4.7-1.9c1.5-0.6,3.3-1.3,5.5-2.1c1.1-0.4,2.2-0.8,3.4-1.3c1.2-0.4,2.5-0.8,3.8-1.2
				c2.7-0.8,5.5-1.8,8.6-2.7c3.1-0.9,6.3-1.7,9.7-2.5c3.4-0.9,6.9-1.5,10.5-2.2c0.9-0.2,1.8-0.3,2.7-0.5l1.4-0.3l1.4-0.2
				c1.8-0.2,3.7-0.5,5.5-0.7c3.7-0.5,7.4-0.7,11.1-0.9c1.8-0.2,3.6-0.1,5.4-0.1c1.8,0,3.6,0,5.3,0c1.7,0.1,3.5,0.2,5.1,0.3
				c0.8,0.1,1.7,0.1,2.5,0.2c0.8,0.1,1.6,0.2,2.4,0.3c1.6,0.2,3.1,0.3,4.6,0.6c1.5,0.3,2.9,0.5,4.3,0.8c1.4,0.2,2.7,0.6,3.9,0.9
				c1.2,0.3,2.4,0.6,3.5,0.9c1.1,0.3,2.1,0.6,3,0.9c0.9,0.3,1.8,0.6,2.5,0.9c0.8,0.3,1.4,0.6,2,0.8c0.6,0.2,1.1,0.5,1.5,0.7
				C277.1,225.7,277.5,225.9,277.5,225.9z"/>
		</g>
	</g>
	<path fill="#EAA2D4" d="M145.1,360.9h125.7c0,0-21.5,137-35.8,147h-50.4C184.7,507.9,153.7,446.9,145.1,360.9z"/>
	<path fill="#D8D5D2" d="M197.7,382.3l-0.2-106.5c0-7.5,6.2-13.7,13.7-13.8l2.6,0c7.5,0,13.7,6.2,13.8,13.7l0.2,106.5
		c0,7.5-6.2,13.7-13.7,13.8l-2.6,0C203.9,396.1,197.7,389.9,197.7,382.3z"/>
	<path fill="#DD7CBA" stroke="#CE65AE" stroke-width="2" stroke-miterlimit="10" d="M227.5,277c0-7.5-6.2-14.3-13.8-14.3l-2.6-0.3
		c-7.5,0-13.7,7.2-13.7,14.8l0.2,94.7h30.1L227.5,277z"/>
	<path fill="#F98B12" d="M222.6,521.9v19h-46v5h70V540C246.6,530.5,235.6,522.5,222.6,521.9z"/>
	<path fill="#B7B1AC" d="M245.4,140.7c-7.5-1.5-15.4,6.7-17.6,18.2c-0.4,2.1-0.6,4.1-0.6,6.1c2.4,1.7,5.1,3.2,8.1,4.5
		c5.6,2.4,11.3,3.5,16.6,3.3c1.3-2.5,2.4-5.4,3-8.6C257.1,152.8,252.9,142.2,245.4,140.7z"/>
</g>
<g>
</g>
<g>
</g>
<g>
</g>
<g>
</g>
<g>
</g>
<g>
</g>
<g>
</g>
<g>
</g>
<g>
</g>
<g>
</g>
<g>
</g>
<g>
</g>
<g>
</g>
<g>
</g>
<g>
</g>
</svg>
