<?xml version="1.0" encoding="utf-8"?>
<!-- Generator: Adobe Illustrator 18.0.0, SVG Export Plug-In . SVG Version: 6.00 Build 0)  -->
<!DOCTYPE svg PUBLIC "-//W3C//DTD SVG 1.1//EN" "http://www.w3.org/Graphics/SVG/1.1/DTD/svg11.dtd">
<svg version="1.1" id="Calque_1" xmlns="http://www.w3.org/2000/svg" xmlns:xlink="http://www.w3.org/1999/xlink" x="0px" y="0px"
	 viewBox="0 0 683.1 436.6" enable-background="new 0 0 683.1 436.6" xml:space="preserve">
<g>
	<path fill="#BC7A31" d="M617.5,419H413.1c-6.8,0-12.3-5.5-12.3-12.3V186.3c0-6.8,5.5-12.3,12.3-12.3h204.4
		c6.8,0,12.3,5.5,12.3,12.3v220.4C629.8,413.5,624.2,419,617.5,419z"/>
	<path fill="#9B5F23" d="M610.4,409H420.1c-3.9,0-7.1-3.2-7.1-7.1V277.1c0-3.9,3.2-7.1,7.1-7.1h190.2c3.9,0,7.1,3.2,7.1,7.1v124.7
		C617.5,405.8,614.3,409,610.4,409z"/>
	<circle fill="#89501D" cx="515.3" cy="220.1" r="13.2"/>
	<rect x="412.3" y="401" fill="#89501D" width="205.2" height="8.6"/>
	<g>
		<path fill="#FC4D17" d="M432,409h-15c-2.3,0-4.2-1.9-4.2-4.2V291.7c0-2.3,1.9-4.2,4.2-4.2h15c2.3,0,4.2,1.9,4.2,4.2v113.2
			C436.1,407.1,434.3,409,432,409z"/>
		<path fill="#FCF0D4" d="M434.9,289.2c-0.8-0.8-1.8-0.8-2.9-0.8h-15c-1.2,0-2.2,0-2.9,0.8c1.9,1.4,5.9,2.7,10.5,2.7
			S433,290.6,434.9,289.2z"/>
	</g>
	<g>
		<path fill="#303099" d="M508.5,398.8l-16.9,8.2c-1.2,0.6-2.5,0.1-3.1-1.1l-50.9-105.2c-0.6-1.2-0.1-2.5,1.1-3.1l16.9-8.2
			c1.2-0.6,2.5-0.1,3.1,1.1l50.9,105.2C510.1,396.9,509.6,398.3,508.5,398.8z"/>
		<path fill="#FCF0D4" d="M448.8,297.1c4.6-2.2,7.9-5.5,8.6-7.7c-0.6-0.2-1.2-0.2-1.8,0.1l-16.9,8.2c-0.6,0.3-1,0.8-1.2,1.4
			C439.6,299.8,444.2,299.3,448.8,297.1z"/>
	</g>
	<g>
		<polygon opacity="0.1" points="26.8,360 384.1,359.4 389.2,419 26.8,393 		"/>
		<path fill="#9B5F1E" d="M26.3,84c0,0,175-38,357,0v150.5h-357V84z"/>
		<rect x="26.8" y="179.3" fill="#B9F47A" width="357" height="108"/>
		<path fill="#AD6D1F" d="M26.3,210c0,0,175-38,357,0v150.5h-357V210z"/>
		<path fill="#C67D3C" d="M101.5,276.3c0,0,0.4,0.3,1.1,0.9c0.7,0.6,1.7,1.5,2.9,2.9c1.1,1.4,2.4,3.4,2.9,6.1c0.2,1.3,0.3,2.8,0,4.3
			c-0.3,1.5-0.9,3.1-1.7,4.6c-1.7,3-4.5,5.8-7.9,8.1c-3.5,2.3-7.7,4.2-12.5,4.9c-0.6,0.1-1.2,0.1-1.9,0.2c-0.6,0-1.2,0-1.8,0
			c-1.3-0.1-2.6-0.2-3.9-0.5c-2.6-0.6-5.1-1.8-7.3-3.5c-4.5-3.5-7.4-9-8.4-15c-1-6,0-12.8,3.7-18.4c0.2-0.4,0.5-0.7,0.7-1l0.4-0.5
			c0.1-0.1,0.1-0.1,0.2-0.3l0.2-0.2c0.3-0.3,0.5-0.6,0.8-0.9l1-0.9c1.3-1.2,2.7-2.2,4.1-3.1c3-1.8,6.2-3,9.5-3.9
			c6.6-1.7,13.8-2.4,20.9-1.6c1.7,0.1,3.6,0.5,5.4,0.8l1.4,0.2c0.5,0.1,0.9,0.2,1.3,0.3c0.9,0.2,1.8,0.5,2.7,0.7
			c3.5,1,7,2.3,10.4,3.7c6.8,2.9,13.3,6.6,19.8,10.4c6.4,3.8,12.9,7.7,19.5,11.1c6.6,3.4,13.5,6.3,20.8,8c7.2,1.7,14.8,2.5,22,1.5
			c1.8-0.2,3.6-0.7,5.2-1.1c0.9-0.3,1.9-0.6,2.7-0.9c0.9-0.3,1.7-0.6,2.6-1c3.4-1.4,6.8-3.1,10.1-4.9c6.5-3.7,12.8-8.1,19.1-12.3
			c6.3-4.2,12.6-8.5,19.2-12.2c6.6-3.7,13.5-6.9,20.8-8.8c0.9-0.3,1.8-0.4,2.7-0.6c0.9-0.2,1.8-0.4,2.7-0.5l1.4-0.2l0.3-0.1l0.2,0
			l0.2,0l0.7-0.1c0.8-0.1,1.9-0.1,2.9-0.2c3.8,0,7.4,0.5,11,1.4c7,1.8,13.5,4.7,19.1,8.9c2.8,2.1,5.3,4.6,7.2,7.4
			c1,1.4,1.8,3,2.5,4.6c0.6,1.6,1.1,3.3,1.2,5c0.4,3.4-0.3,6.8-1.5,9.8c-0.3,0.7-0.7,1.5-1,2.2c-0.3,0.6-0.8,1.4-1.2,2
			c-0.9,1.3-1.9,2.5-3,3.5c-2.2,2.1-4.7,3.8-7.3,5.1l-0.9,0.5l-1,0.4c-0.7,0.3-1.3,0.5-2,0.8c-1.3,0.5-2.7,0.8-4,1.1
			c-5.3,1.2-10.8,0.9-15.4-1.3c-2.2-1.1-4.2-2.5-5.7-4.3c-1.5-1.9-2.4-4-2.8-6.1c-0.8-4.2,0.3-8.3,2.5-11.1c0.3-0.3,0.5-0.7,0.9-1
			c0.3-0.3,0.6-0.6,0.9-0.8c0.3-0.3,0.7-0.5,1-0.7c0.3-0.2,0.7-0.4,1-0.6c1.4-0.7,2.8-1.1,4.1-1.4c2.7-0.5,5-0.1,6.7,0.5
			c1.7,0.6,2.9,1.3,3.7,1.9c0.7,0.6,1.1,0.9,1.1,0.9s-0.4-0.3-1.1-0.9c-0.8-0.5-2-1.2-3.7-1.7c-1.7-0.5-4-0.7-6.5-0.1
			c-2.5,0.6-5.3,1.9-7.2,4.5c-1.9,2.6-2.8,6.4-1.9,10.2c0.4,1.9,1.3,3.8,2.6,5.3c1.4,1.6,3.2,2.8,5.3,3.7c4.1,1.8,9.1,1.9,14,0.6
			c4.9-1.3,9.8-3.8,13.7-7.6c1-1,1.8-2,2.6-3.2c0.4-0.6,0.7-1.1,1-1.8c0.3-0.6,0.5-1.3,0.8-1.9c1-2.6,1.5-5.5,1.1-8.2
			c-0.1-1.4-0.6-2.8-1.1-4.1c-0.6-1.3-1.3-2.6-2.2-3.8c-1.7-2.4-4-4.6-6.5-6.5c-5.1-3.7-11.3-6.4-17.8-7.9c-3.3-0.8-6.6-1.2-9.9-1.2
			c-0.8,0-1.5,0-2.5,0.2l-0.7,0.1l-0.2,0c-0.1,0,0,0-0.1,0l-0.3,0.1l-1.3,0.2c-0.9,0.1-1.7,0.3-2.5,0.5c-0.8,0.2-1.7,0.4-2.5,0.6
			c-6.7,1.9-13.3,4.9-19.6,8.6c-6.3,3.7-12.5,7.9-18.8,12.1c-6.3,4.2-12.6,8.7-19.4,12.6c-3.4,2-6.9,3.8-10.6,5.3
			c-0.9,0.4-1.9,0.7-2.8,1.1c-1,0.4-1.8,0.6-2.8,0.9c-2.1,0.6-4,1.1-6.1,1.3c-8.1,1.1-16.2,0.2-23.9-1.7c-7.7-1.8-15-4.9-21.9-8.5
			c-13.7-7.1-25.8-16.1-38.8-21.7c-3.2-1.4-6.5-2.7-9.8-3.6c-0.8-0.2-1.7-0.5-2.5-0.7c-0.4-0.1-0.8-0.2-1.2-0.3l-1.2-0.2
			c-1.7-0.3-3.2-0.7-5-0.8c-0.9-0.1-1.7-0.2-2.6-0.3l-0.6-0.1l-0.3,0c-0.1,0,0,0-0.1,0l-0.2,0l-1.2-0.1c-1.7,0-3.3,0-5,0.1
			c-3.3,0.2-6.5,0.7-9.6,1.4c-6.2,1.5-11.9,4.3-15.1,9.1c-3.3,4.7-4.4,10.7-3.7,16.1c0.7,5.4,3.3,10.4,7.1,13.6
			c1.9,1.6,4.1,2.7,6.3,3.3c1.1,0.3,2.3,0.5,3.4,0.6c0.6,0,1.2,0,1.8,0c0.5,0,1.1,0,1.7-0.1c4.5-0.5,8.6-2.1,12-4.2
			c3.4-2.1,6.1-4.7,7.8-7.5c1.7-2.8,2.4-5.8,2-8.3c-0.3-2.6-1.5-4.5-2.5-6c-1.1-1.4-2.1-2.4-2.8-3.1
			C101.9,276.6,101.5,276.3,101.5,276.3z"/>
		<path fill="#FFF6CA" d="M290.6,182.9c-0.4,1-1.1,1.8-2,2.3c-1.9,1.1-4.1,1.3-6.2,1.5c-33.6,2.7-67.7,4.7-101.4,3.5
			c-10.8-0.4-21.1-4.1-31.9-2.9c-10.6,1.2-24.1,7.4-34,1.3c-9.6-6-1.2-23.1,1.5-31.2c4.6-14.3-18.6-60.6-0.1-67.5
			c10-3.8,19.8-0.6,29.9,0.8c9.2,1.3,17.9-0.1,27.2,0.1c20.9,0.5,41.8,1,62.7,0.6c14.2-0.2,39.5-11.4,51.9,0.3
			c9,8.5,2.3,26.2-1.2,35.8c-4.6,12.3-5.2,19.7-0.6,32.8C288.5,166.5,293.5,176.2,290.6,182.9z"/>
		<path fill="#874F18" d="M395.3,419l-6,0c-3,0-5.5-2.5-5.5-5.5l0-336c0-3,2.5-5.5,5.5-5.5l6,0c3,0,5.5,2.5,5.5,5.5l0,336
			C400.8,416.5,398.3,419,395.3,419z"/>
		<path fill="#874F18" d="M21.3,419l-6,0c-3,0-5.5-2.5-5.5-5.5l0-336c0-3,2.5-5.5,5.5-5.5l6,0c3,0,5.5,2.5,5.5,5.5l0,336
			C26.8,416.5,24.3,419,21.3,419z"/>
		<circle fill="#6D3D2C" cx="391.9" cy="68.9" r="15.9"/>
		<circle fill="#6D3D2C" cx="391.9" cy="206.9" r="15.9"/>
		<circle fill="#6D3D2C" cx="15.9" cy="68.9" r="15.9"/>
		<circle fill="#6D3D2C" cx="15.9" cy="206.9" r="15.9"/>
	</g>
	<g>
		<path fill="#542A1E" d="M376.3,168.3l-24.4-6.3c-2.9-0.7-4.6-3.7-3.9-6.6l0,0c0.7-2.9,3.7-4.6,6.6-3.9l24.4,6.3
			c2.9,0.7,4.6,3.7,3.9,6.6v0C382.1,167.3,379.1,169.1,376.3,168.3z"/>
		<path fill="#542A1E" d="M299.2,168.3l24.4-6.3c2.9-0.7,4.6-3.7,3.9-6.6l0,0c-0.7-2.9-3.7-4.6-6.6-3.9l-24.4,6.3
			c-2.9,0.7-4.6,3.7-3.9,6.6v0C293.4,167.3,296.4,169.1,299.2,168.3z"/>
		<path fill="#603426" d="M337.6,142.5c-12.6,0-22.8,16-22.8,37h45.6C360.4,158.5,350.2,142.5,337.6,142.5z"/>
		<circle fill="#603426" cx="318.1" cy="107" r="9"/>
		<circle fill="#603426" cx="357.1" cy="107" r="9"/>
		<ellipse fill="#6D3D2C" cx="337.9" cy="130.3" rx="24.5" ry="22.3"/>
		<circle fill="#1E1E1E" cx="329.4" cy="125" r="3.3"/>
		<circle fill="#1E1E1E" cx="345.4" cy="125" r="3.3"/>
		<ellipse fill="#542A1E" cx="337.4" cy="140" rx="3.7" ry="4"/>
	</g>
	<g>
		<path fill="#F98B12" d="M548.6,174.5c2.4-5,2.8-10.7,2.8-16.5v-38.4c0-19.8-15.1-35.1-34.9-35.1H509c-19.8,0-36.6,15.3-36.6,35.1
			V158c0,5.7,2.1,11.5,4.5,16.5H548.6z"/>
		<rect x="506.5" y="67.1" fill="#595959" width="11.5" height="16.9"/>
		<path fill="#FFD939" d="M539.3,5.3C538,2.1,535,0,531.5,0h-7.8h-23h-7.8c-3.4,0-6.5,2.1-7.7,5.3L466,55.8
			c-2.1,5.4,1.9,11.2,7.7,11.2h27h23h27c5.8,0,9.8-5.8,7.7-11.2L539.3,5.3z"/>
	</g>
	<path fill="#62BA42" d="M656.9,427.3H624c-5.2,0-9.4-4.2-9.4-9.4v-32.9c0-5.2,4.2-9.4,9.4-9.4h32.9c5.2,0,9.4,4.2,9.4,9.4v32.9
		C666.4,423.1,662.1,427.3,656.9,427.3z"/>
	<path fill="#E50505" d="M676.3,436.3h-23.9c-3.8,0-6.8-3.1-6.8-6.8v-23.9c0-3.8,3.1-6.8,6.8-6.8h23.9c3.8,0,6.8,3.1,6.8,6.8v23.9
		C683.1,433.2,680.1,436.3,676.3,436.3z"/>
	<path fill="#32A3C6" d="M622.8,436.6h-21c-3.3,0-6-2.7-6-6v-21c0-3.3,2.7-6,6-6h21c3.3,0,6,2.7,6,6v21
		C628.8,433.9,626.1,436.6,622.8,436.6z"/>
</g>
<g>
</g>
<g>
</g>
<g>
</g>
<g>
</g>
<g>
</g>
<g>
</g>
<g>
</g>
<g>
</g>
<g>
</g>
<g>
</g>
<g>
</g>
<g>
</g>
<g>
</g>
<g>
</g>
<g>
</g>
</svg>
