<?xml version="1.0" encoding="utf-8"?>
<!-- Generator: Adobe Illustrator 18.0.0, SVG Export Plug-In . SVG Version: 6.00 Build 0)  -->
<!DOCTYPE svg PUBLIC "-//W3C//DTD SVG 1.1//EN" "http://www.w3.org/Graphics/SVG/1.1/DTD/svg11.dtd">
<svg version="1.1" id="Calque_1" xmlns="http://www.w3.org/2000/svg" xmlns:xlink="http://www.w3.org/1999/xlink" x="0px" y="0px"
	 viewBox="0 0 155.1 587.1" enable-background="new 0 0 155.1 587.1" xml:space="preserve">
<g>
	<path fill="#FFDC48" d="M108,533.6v32.5c0,1.8,1.4,3.3,3.2,3.5c10.2,0.9,18.9,5.9,21.8,12.6c1,2.3-0.7,4.9-3.2,4.9h-21.6H85.5
		c-1.9,0-3.5-1.6-3.5-3.5v-50c0-1.9,1.6-3.5,3.5-3.5h19C106.4,530.1,108,531.7,108,533.6z"/>
	<path fill="#FFDC48" d="M51.2,533.1v32.5c0,1.8-1.4,3.3-3.2,3.5c-10.2,0.9-18.9,5.9-21.8,12.6c-1,2.3,0.7,4.9,3.2,4.9h21.6h22.6
		c1.9,0,3.5-1.6,3.5-3.5v-50c0-1.9-1.6-3.5-3.5-3.5h-19C52.8,529.6,51.2,531.2,51.2,533.1z"/>
	<g>
		<path fill="none" stroke="#666666" stroke-width="2.6393" stroke-miterlimit="10" d="M140.7,45.1c2.9-1,4.6-4.1,3.9-7.1
			c-0.7-2.9-3.3-5.1-6.2-5.5c-6.3-0.9-11.1,6-9.4,11.7c1.7,5.9,7.9,9.5,13.8,8.1c5.8-1.3,10.3-6.6,11-12.4
			c1.5-12.8-12.8-21.8-24.2-17.7L91.3,33.7"/>
		<path fill="#FFDC48" d="M109,61.7L4.8,63.5c-2.1,0-2.9-2.6-1.2-3.8l87-59.3c1.2-0.8,2.8-0.2,3.2,1.1L110.9,59
			C111.3,60.3,110.3,61.7,109,61.7z"/>
		<g>
			<line fill="none" stroke="#F2C63B" stroke-miterlimit="10" x1="4.6" y1="62.3" x2="104.2" y2="47.2"/>
			<line fill="none" stroke="#F2C63B" stroke-miterlimit="10" x1="3.3" y1="62.7" x2="94.9" y2="20.9"/>
			<line fill="none" stroke="#F2C63B" stroke-miterlimit="10" x1="4" y1="62.8" x2="101" y2="33.7"/>
		</g>
	</g>
	<g>
		<path fill="#FF9E3E" d="M13.8,285h122.4c0,0-20.9,137-34.8,147h-49C52.3,432,22.2,371,13.8,285z"/>
		<line fill="none" stroke="#E2751B" stroke-width="3" stroke-miterlimit="10" x1="76.5" y1="327" x2="76.5" y2="432"/>
		<g>
			<polygon fill="none" stroke="#CECECE" stroke-width="2.3476" stroke-linejoin="round" stroke-miterlimit="10" points="
				18.7,141.5 130.3,141.4 74.5,92.9 			"/>
			<line fill="none" stroke="#CECECE" stroke-width="2" stroke-miterlimit="10" x1="74" y1="93" x2="74" y2="78"/>
		</g>
		<path fill="#FFDC48" d="M133.4,124.6c-6.6-1.4-14.5-0.6-19.7,1.7c-5,2.3-6.4,7.4-8.3,12c-2.3,5.4-4.9,10-9.1,14.4
			c-4.5,4.7-10.5,8.4-17,8.7c-2.9,0.1-5.7,0.1-8.6,0c-6.5-0.3-12.5-4-17-8.7c-4.2-4.4-6.8-9-9.1-14.4c-1.8-4.2-3.1-8.6-7-11.3
			c-3.9-2.7-7.6-2.5-12.1-2.5c-8.4,0-17.8,1-21.9,9.5c-3.9,8.3-3.6,18.1-3.6,27.1c0,15.9,0,31.7,0,47.6c0,20,0,40,0,59.9
			c0,10.5,0,20.9,0,31.4c0,0,0,0,0,0h15v-14c5,0,32.3,0,60,0c27.7,0,55,0,60,0v14h15V154.6c0-9.6-0.9-21.3-9.7-27.3
			C138.4,126.1,136,125.2,133.4,124.6z"/>
		<line fill="none" stroke="#EFCF48" stroke-width="2" stroke-miterlimit="10" x1="16" y1="286" x2="16" y2="168"/>
		<line fill="none" stroke="#EFCF48" stroke-width="2" stroke-miterlimit="10" x1="134" y1="286" x2="134" y2="168"/>
	</g>
</g>
<g>
</g>
<g>
</g>
<g>
</g>
<g>
</g>
<g>
</g>
<g>
</g>
<g>
</g>
<g>
</g>
<g>
</g>
<g>
</g>
<g>
</g>
<g>
</g>
<g>
</g>
<g>
</g>
<g>
</g>
</svg>
