<?xml version="1.0" encoding="utf-8"?>
<!-- Generator: Adobe Illustrator 18.0.0, SVG Export Plug-In . SVG Version: 6.00 Build 0)  -->
<!DOCTYPE svg PUBLIC "-//W3C//DTD SVG 1.1//EN" "http://www.w3.org/Graphics/SVG/1.1/DTD/svg11.dtd">
<svg version="1.1" id="Calque_1" xmlns="http://www.w3.org/2000/svg" xmlns:xlink="http://www.w3.org/1999/xlink" x="0px" y="0px"
	 viewBox="0 0 396.4 610.9" enable-background="new 0 0 396.4 610.9" xml:space="preserve">
<path fill="#C3ECFC" stroke="#7A4A29" stroke-width="7.3641" stroke-miterlimit="10" d="M370,586.8H23.1c-6.7,0-12.2-5.4-12.2-12.2
	V20.9c0-6.7,5.4-12.2,12.2-12.2H370c6.7,0,12.2,5.4,12.2,12.2v553.7C382.2,581.4,376.7,586.8,370,586.8z"/>
<path fill="#9AD676" d="M378.7,272.2c-2.6,1.9-5,4.4-7.1,7.2c-6.6-18.1-20.8-30.6-37.3-30.6c-15.8,0-29.5,11.5-36.4,28.3
	c-0.3,0-0.5-0.1-0.8-0.1c-3.7-11.9-9.7-19.7-16.5-19.7c-6,0-11.3,6-15,15.5c-6.1-18.1-20-30.7-36.1-30.7c-11,0-20.9,5.8-28,15.3
	c-4.2-9.6-9.3-15.3-14.9-15.3c-7.2,0-13.7,9.5-18.3,24.7c-3.7-11.5-12.4-19.6-22.5-19.6c-11.7,0-21.4,10.8-23.9,25.2
	c-0.1,0-0.2,0-0.3,0c-5.2-7.9-15.2-13.3-26.5-13.3c-6.5,0-12.4,1.7-17.4,4.7c-4.6-18.9-13.5-31.8-23.9-31.8c-5,0-9.6,3-13.6,8.1
	v269.3h338.3V272.2z"/>
<path fill="#825934" d="M100.8,88.4c0,0-53.5,171.2,22.1,430.8l-80.1,7V10.6L100.8,88.4z"/>
<ellipse fill="#95CE6F" cx="101.4" cy="339" rx="13.3" ry="12.2"/>
<ellipse fill="#95CE6F" cx="150.6" cy="421.9" rx="19.6" ry="19.4"/>
<ellipse fill="#95CE6F" cx="261.7" cy="324.9" rx="25.7" ry="19.4"/>
<ellipse fill="#95CE6F" cx="298" cy="423.4" rx="6.3" ry="6.1"/>
<g>
	<rect x="254" y="55.9" fill="#6D3D2C" width="5.3" height="374.5"/>
	<rect x="162.4" y="58.5" fill="#6D3D2C" width="5.3" height="374.5"/>
	<path fill="#6D3D2C" d="M156.4,443.1h109.1c3.3,0,6-2.7,6-6v-1c0-3.3-2.7-6-6-6H156.4c-3.3,0-6,2.7-6,6v1
		C150.4,440.4,153.1,443.1,156.4,443.1z"/>
</g>
<path fill="#5EBF2B" d="M326.2,11.6c0,0,3.2,44.8-86.7,52.9c0,0,13.3,57.4-69.2,69.9c0,0-20.5,19.8-127.5,21.3V11.6H326.2z"/>
<ellipse fill="#72C93F" cx="210.4" cy="36.5" rx="49.5" ry="10.1"/>
<ellipse fill="#72C93F" cx="113.1" cy="108.5" rx="11.5" ry="8.9"/>
<path fill="#7A4A29" d="M30.1,603.1h359.2c4.1,0,6.7-6.2,4.8-11.5l-6.8-19.3c-0.9-2.6-2.8-4.3-4.8-4.3l-352.3,0.6
	c-3,0-5.4,3.5-5.4,7.9v18.7C24.7,599.6,27.1,603.1,30.1,603.1z"/>
<path fill="#F9EB98" d="M42.8,568.6h336v-60.2c0,0-153-29.2-336,0V568.6z"/>
<g>
</g>
<g>
</g>
<g>
</g>
<g>
</g>
<g>
</g>
<g>
</g>
<g>
</g>
<g>
</g>
<g>
</g>
<g>
</g>
<g>
</g>
<g>
</g>
<g>
</g>
<g>
</g>
<g>
</g>
</svg>
