<?xml version="1.0" encoding="utf-8"?>
<!-- Generator: Adobe Illustrator 18.0.0, SVG Export Plug-In . SVG Version: 6.00 Build 0)  -->
<!DOCTYPE svg PUBLIC "-//W3C//DTD SVG 1.1//EN" "http://www.w3.org/Graphics/SVG/1.1/DTD/svg11.dtd">
<svg version="1.1" id="Calque_1" xmlns="http://www.w3.org/2000/svg" xmlns:xlink="http://www.w3.org/1999/xlink" x="0px" y="0px"
	 viewBox="0 0 907.3 427.3" enable-background="new 0 0 907.3 427.3" xml:space="preserve">
<g>
	<path fill="none" stroke="#C0C0C0" stroke-width="1.6346" stroke-miterlimit="10" d="M548.1,173.2c6.6-9.5,13.8-18.6,21.1-27.5
		c15.5-19,32-37.4,50-54.1c19.4-17.9,38.2-32.9,60.8-46.9c18.9-11.7,38.5-23,60.1-28.8c44.2-11.9,98.4-2.7,125.8,36.6
		c14.7,21.1,21.2,46.3,24.9,71.3c1.6,10.4,2.6,20.8,3.2,31.3c1.2,20,0.7,40.2-1.5,60.2c-4,35.2-14.4,77.9-40,104.1
		c-15.4,15.7-25.7,24.3-48,29.3c-21.7,4.8-44.2,4.2-66,0.8c-27-4.3-51.9-12.9-77.8-20.7c-22.5-6.8-42.8-14.4-63.9-24.1
		c-3.7-1.7-24.7-9.2-25.4-12.7C571.4,291.6,548.1,173.2,548.1,173.2z"/>
	<path fill="none" stroke="#C0C0C0" stroke-width="1.6346" stroke-miterlimit="10" d="M557.3,182.9c9.7-15.2,29.8-34.5,41.9-47.7
		c28.1-30.6,61.1-57.6,98.8-75.5c39.5-18.7,98.9-39.8,133.5-1.9c41.6,45.6,49.3,122.2,39.7,180.3c-5.2,31.6-18,58.3-45.9,75.6
		c-29.8,18.5-63.5,17.9-96.6,11.8c0,0-121.2-23.2-141.9-51.3L557.3,182.9z"/>
	<path fill="none" stroke="#C0C0C0" stroke-width="1.6346" stroke-miterlimit="10" d="M357.7,173.2c-6.6-9.5-13.8-18.6-21.1-27.5
		c-15.5-19-32-37.4-50-54.1c-19.4-17.9-38.2-32.9-60.8-46.9c-18.9-11.7-38.5-23-60.1-28.8C121.6,3.9,67.4,13.1,39.9,52.4
		C25.2,73.5,18.8,98.7,15,123.7c-1.6,10.4-2.6,20.8-3.2,31.3c-1.2,20-0.7,40.2,1.5,60.2c4,35.2,14.4,77.9,40,104.1
		c15.4,15.7,25.7,24.3,48,29.3c21.7,4.8,44.2,4.2,66,0.8c27-4.3,51.9-12.9,77.8-20.7c22.5-6.8,42.8-14.4,63.9-24.1
		c3.7-1.7,24.7-9.2,25.4-12.7C334.3,291.6,357.7,173.2,357.7,173.2z"/>
	<path fill="none" stroke="#C0C0C0" stroke-width="1.6346" stroke-miterlimit="10" d="M348.5,182.9c-9.7-15.2-29.8-34.5-41.9-47.7
		c-28.1-30.6-61.1-57.6-98.8-75.5c-39.5-18.7-98.9-39.8-133.5-1.9C32.6,103.3,25,180,34.6,238c5.2,31.6,18,58.3,45.9,75.6
		c29.8,18.5,63.5,17.9,96.6,11.8c0,0,121.2-23.2,141.9-51.3L348.5,182.9z"/>
	<circle fill="#FFFFFF" stroke="#C0C0C0" stroke-width="1.6346" stroke-miterlimit="10" cx="459.6" cy="274.7" r="147"/>
	<circle fill="none" stroke="#C0C0C0" stroke-width="1.6346" stroke-miterlimit="10" cx="459.6" cy="302.3" r="16.6"/>
	<g>
		<path fill="#FFFFFF" stroke="#C0C0C0" stroke-width="1.6346" stroke-miterlimit="10" d="M428.3,135.6
			c6.6,30.1-47.1,37.9-68.4,40.5c-8.1,1,3.7-38.4,4.9-41c5.1-11.3,12.6-28.1,25.5-32.3C406.7,97.4,424.3,117.1,428.3,135.6z"/>
		<path fill="#FFFFFF" stroke="#C0C0C0" stroke-width="1.6346" stroke-miterlimit="10" d="M278.6,184c12.4,28.2,60.4,2.8,79.1-7.7
			c7.1-4-25.6-28.8-28.1-30.2c-10.8-6.1-26.8-15.3-39.6-11C273.6,140.5,271,166.7,278.6,184z"/>
		
			<ellipse fill="#FFFFFF" stroke="#C0C0C0" stroke-width="1.6346" stroke-miterlimit="10" cx="355.7" cy="170.5" rx="10.1" ry="10"/>
	</g>
	<ellipse fill="none" stroke="#C0C0C0" stroke-width="1.6346" stroke-miterlimit="10" cx="406.9" cy="234.2" rx="23.5" ry="36.3"/>
	<path fill="none" stroke="#C0C0C0" stroke-width="1.6346" stroke-miterlimit="10" d="M407.2,211.8c8,0,15.3,2.7,21.1,7.2
		c-3.7-12.4-11.9-21-21.3-21c-9.6,0-17.8,8.9-21.5,21.6C391.3,214.7,398.9,211.8,407.2,211.8z"/>
	<path fill="none" stroke="#C0C0C0" stroke-width="1.6346" stroke-miterlimit="10" d="M387.1,214.6c-3-2.2-7-6.8-4.9-14.3
		c0,0-5.1,7.2,0.3,13.9c-4.2-3.1-9.1-9-8.5-19.4c0,0-6.7,16,11.4,24.6c1.4-1.1,2.9-2.2,4.5-3.1l0,0
		C389.9,216.4,388.7,215.8,387.1,214.6z"/>
	<path fill="none" stroke="#C0C0C0" stroke-width="1.6346" stroke-miterlimit="10" d="M406.9,228.3c-11.5,0-20.8,9.4-21.3,21.2
		c3.7,12.4,11.9,21,21.3,21s17.6-8.6,21.3-21C427.7,237.7,418.4,228.3,406.9,228.3z"/>
	<ellipse fill="none" stroke="#C0C0C0" stroke-width="1.6346" stroke-miterlimit="10" cx="397.4" cy="242.5" rx="6.3" ry="6.9"/>
	<ellipse fill="none" stroke="#C0C0C0" stroke-width="1.6346" stroke-miterlimit="10" cx="510.2" cy="234.2" rx="23.5" ry="36.3"/>
	<path fill="none" stroke="#C0C0C0" stroke-width="1.6346" stroke-miterlimit="10" d="M510,211.8c-8,0-15.3,2.7-21.1,7.2
		c3.7-12.4,11.9-21,21.3-21c9.6,0,17.8,8.9,21.5,21.6C525.8,214.7,518.2,211.8,510,211.8z"/>
	<path fill="none" stroke="#C0C0C0" stroke-width="1.6346" stroke-miterlimit="10" d="M530,214.6c3-2.2,7-6.8,4.9-14.3
		c0,0,5.1,7.2-0.3,13.9c4.2-3.1,9.1-9,8.5-19.4c0,0,6.7,16-11.4,24.6c-1.4-1.1-2.9-2.2-4.5-3.1l0,0
		C527.2,216.4,528.5,215.8,530,214.6z"/>
	<path fill="none" stroke="#C0C0C0" stroke-width="1.6346" stroke-miterlimit="10" d="M510.2,228.3c11.5,0,20.8,9.4,21.3,21.2
		c-3.7,12.4-11.9,21-21.3,21s-17.6-8.6-21.3-21C489.4,237.7,498.8,228.3,510.2,228.3z"/>
	<ellipse fill="none" stroke="#C0C0C0" stroke-width="1.6346" stroke-miterlimit="10" cx="499.7" cy="242.5" rx="6.3" ry="6.9"/>
	<g>
		<g>
			<path fill="#C0C0C0" d="M544.6,295.7c0,0,0.8-0.4,2.2-1.1c0.7-0.4,1.7-0.8,2.7-1.3c1.1-0.5,2.3-1.1,3.8-1.6
				c1.4-0.5,3-1.2,4.7-1.8c1.8-0.6,3.6-1.2,5.7-1.9c2-0.7,4.2-1.3,6.5-1.9c1.2-0.3,2.3-0.7,3.5-1c1.2-0.3,2.5-0.6,3.8-0.9
				c2.6-0.6,5.2-1.3,8-1.9c2.8-0.5,5.7-1.1,8.6-1.6c1.5-0.3,3-0.6,4.5-0.8c1.5-0.2,3.1-0.4,4.7-0.7c3.1-0.4,6.3-0.9,9.6-1.3
				c3.3-0.3,6.6-0.6,10-0.9c1.7-0.2,3.4-0.3,5.1-0.5c1.7-0.1,3.4-0.2,5.2-0.2c6.9-0.3,13.9-0.7,20.9-0.6c3.5,0,7,0.1,10.5,0.1
				c1.7,0,3.5,0.1,5.2,0.2c1.7,0.1,3.5,0.2,5.2,0.3c6.9,0.4,13.7,0.6,20.2,1.4c6.5,0.7,12.9,1.2,18.8,2c6,0.9,11.6,1.7,16.8,2.5
				c2.6,0.4,5.1,0.8,7.4,1.2c2.3,0.5,4.6,0.9,6.7,1.3c4.2,0.9,7.8,1.6,10.8,2.2c6,1.3,9.4,2,9.4,2s-3.5-0.5-9.5-1.3
				c-3-0.4-6.7-0.9-10.9-1.5c-2.1-0.3-4.3-0.6-6.7-1c-2.4-0.3-4.9-0.5-7.5-0.8c-5.2-0.6-10.8-1.2-16.8-1.9c-1.5-0.2-3-0.3-4.5-0.4
				c-1.5-0.1-3.1-0.2-4.7-0.3c-3.1-0.2-6.3-0.5-9.6-0.7c-6.5-0.7-13.3-0.7-20.1-1.1c-1.7-0.1-3.4-0.2-5.2-0.2
				c-1.7-0.1-3.5-0.2-5.2-0.1c-3.5,0-6.9,0-10.4,0c-7-0.2-13.9,0.2-20.8,0.4c-1.7,0.1-3.4,0.1-5.1,0.2c-1.7,0.1-3.4,0.2-5,0.4
				c-3.3,0.2-6.7,0.5-9.9,0.7c-3.2,0.3-6.4,0.7-9.5,1.1c-1.6,0.2-3.1,0.3-4.6,0.5c-1.5,0.2-3,0.4-4.5,0.7c-3,0.5-5.8,0.9-8.6,1.3
				c-2.8,0.5-5.4,1-8,1.5c-1.3,0.3-2.5,0.5-3.8,0.7c-1.2,0.3-2.4,0.6-3.6,0.8c-2.3,0.6-4.5,1-6.6,1.6c-2,0.6-4,1.1-5.7,1.6
				c-1.8,0.5-3.4,1-4.8,1.5c-1.5,0.4-2.7,0.9-3.9,1.3c-1.1,0.4-2.1,0.7-2.8,1C545.4,295.3,544.6,295.7,544.6,295.7z"/>
		</g>
		<g>
			<path fill="#C0C0C0" d="M546,306.1c0,0,0.7-0.3,2.2-0.6c1.4-0.4,3.6-0.9,6.3-1.3c2.7-0.5,6.1-0.9,9.9-1.2c1.9-0.2,4-0.3,6.2-0.4
				c2.2-0.1,4.5-0.1,6.8-0.1c2.4,0,4.9,0.1,7.4,0.1c1.3,0,2.6,0.1,3.9,0.2c1.3,0.1,2.7,0.2,4,0.3c5.4,0.4,11.2,1.2,17,2.2
				c5.9,1.1,11.9,2.2,18,3.7c1.5,0.4,3,0.8,4.6,1.1c1.5,0.4,3,0.9,4.6,1.3c3.1,0.8,6.1,1.8,9.1,2.7c6,1.9,12,4.1,17.8,6.4
				c2.9,1.1,5.8,2.3,8.6,3.5c2.8,1.2,5.6,2.4,8.3,3.7c1.4,0.6,2.7,1.2,4,1.8c1.3,0.6,2.6,1.3,3.9,1.9c2.6,1.3,5.1,2.5,7.5,3.7
				c2.4,1.3,4.7,2.5,7,3.7c2.3,1.2,4.4,2.5,6.5,3.6c2.1,1.2,4,2.3,5.9,3.4c1.8,1.1,3.6,2.2,5.2,3.2c1.6,1,3.2,2,4.6,2.8
				c1.4,0.9,2.7,1.8,3.8,2.5c4.6,3.1,7.2,4.8,7.2,4.8s-2.8-1.5-7.6-4.2c-1.2-0.7-2.5-1.4-4-2.2c-1.5-0.8-3.1-1.6-4.8-2.5
				c-1.7-0.9-3.5-1.9-5.4-2.9c-1.9-1-3.9-2-6-3.1c-4.2-2.2-8.8-4.3-13.7-6.7c-2.4-1.2-5-2.3-7.6-3.5c-1.3-0.6-2.6-1.2-3.9-1.8
				c-1.3-0.6-2.7-1.1-4-1.7c-5.4-2.4-11.1-4.6-16.8-6.8c-5.8-2.2-11.7-4.3-17.7-6.2c-3-0.9-6-1.9-9-2.8c-1.5-0.4-3-0.9-4.5-1.3
				c-1.5-0.4-3-0.8-4.5-1.2c-6-1.6-11.9-2.9-17.7-4c-2.9-0.5-5.7-1.1-8.5-1.5c-1.4-0.2-2.8-0.4-4.1-0.6c-1.4-0.2-2.7-0.3-4.1-0.5
				c-5.4-0.6-10.4-1.1-15.1-1.3c-9.4-0.5-17.3-0.2-22.8,0.3c-2.7,0.3-4.9,0.5-6.4,0.8C546.8,306,546,306.1,546,306.1z"/>
		</g>
	</g>
	<g>
		<g>
			<path fill="#C0C0C0" d="M364.7,295.7c0,0-0.8-0.4-2.3-1c-0.8-0.3-1.7-0.7-2.8-1c-1.1-0.4-2.4-0.9-3.9-1.3c-1.5-0.4-3.1-1-4.8-1.5
				c-1.8-0.5-3.7-1-5.7-1.6c-2-0.6-4.3-1-6.6-1.6c-1.2-0.3-2.3-0.6-3.6-0.8c-1.2-0.3-2.5-0.5-3.8-0.7c-2.6-0.5-5.2-1-8-1.5
				c-2.8-0.4-5.7-0.9-8.6-1.3c-1.5-0.2-3-0.5-4.5-0.7c-1.5-0.2-3.1-0.3-4.6-0.5c-3.1-0.3-6.3-0.7-9.5-1.1c-3.3-0.2-6.6-0.5-9.9-0.7
				c-1.7-0.1-3.4-0.2-5-0.4c-1.7-0.1-3.4-0.1-5.1-0.2c-6.8-0.2-13.8-0.6-20.8-0.4c-3.5,0-7,0-10.4,0c-1.7,0-3.5,0-5.2,0.1
				c-1.7,0.1-3.4,0.2-5.2,0.2c-6.8,0.4-13.6,0.4-20.1,1.1c-3.3,0.3-6.5,0.5-9.6,0.7c-1.6,0.1-3.1,0.2-4.7,0.3
				c-1.5,0.1-3,0.2-4.5,0.4c-5.9,0.7-11.6,1.3-16.8,1.9c-2.6,0.3-5.1,0.6-7.5,0.8c-2.4,0.3-4.6,0.7-6.7,1c-4.2,0.6-7.9,1.1-10.9,1.5
				c-6.1,0.8-9.5,1.3-9.5,1.3s3.4-0.7,9.4-2c3-0.6,6.6-1.4,10.8-2.2c2.1-0.4,4.3-0.9,6.7-1.3c2.4-0.4,4.8-0.8,7.4-1.2
				c5.2-0.8,10.8-1.7,16.8-2.5c6-0.8,12.3-1.3,18.8-2c6.5-0.8,13.3-1,20.2-1.4c1.7-0.1,3.5-0.2,5.2-0.3c1.7-0.1,3.5-0.2,5.2-0.2
				c3.5,0,7-0.1,10.5-0.1c7-0.1,14,0.3,20.9,0.6c1.7,0.1,3.4,0.1,5.2,0.2c1.7,0.2,3.4,0.3,5.1,0.5c3.4,0.3,6.7,0.6,10,0.9
				c3.3,0.4,6.5,0.8,9.6,1.3c1.6,0.2,3.1,0.4,4.7,0.7c1.5,0.2,3,0.5,4.5,0.8c3,0.6,5.8,1.1,8.6,1.6c2.8,0.6,5.4,1.3,8,1.9
				c1.3,0.3,2.5,0.6,3.8,0.9c1.2,0.3,2.4,0.7,3.5,1c2.3,0.7,4.5,1.2,6.5,1.9c2,0.7,3.9,1.3,5.7,1.9c1.7,0.6,3.3,1.3,4.7,1.8
				c1.4,0.5,2.7,1.1,3.8,1.6c1.1,0.5,2,0.9,2.7,1.3C364,295.3,364.7,295.7,364.7,295.7z"/>
		</g>
		<g>
			<path fill="#C0C0C0" d="M363.4,306.1c0,0-0.8-0.2-2.2-0.4c-1.5-0.3-3.6-0.5-6.4-0.8c-5.5-0.5-13.4-0.8-22.8-0.3
				c-4.7,0.2-9.8,0.7-15.1,1.3c-1.3,0.2-2.7,0.3-4.1,0.5c-1.4,0.2-2.7,0.4-4.1,0.6c-2.8,0.4-5.6,1-8.5,1.5c-5.8,1.1-11.7,2.5-17.7,4
				c-1.5,0.4-3,0.8-4.5,1.2c-1.5,0.4-3,0.9-4.5,1.3c-3,0.8-6,1.8-9,2.8c-6,1.9-11.9,4-17.7,6.2c-5.8,2.2-11.4,4.4-16.8,6.8
				c-1.4,0.6-2.7,1.2-4,1.7c-1.3,0.6-2.6,1.2-3.9,1.8c-2.6,1.2-5.1,2.3-7.6,3.5c-4.9,2.4-9.5,4.5-13.7,6.7c-2.1,1.1-4.1,2.1-6,3.1
				c-1.9,1-3.7,2-5.4,2.9c-1.7,0.9-3.3,1.7-4.8,2.5c-1.5,0.8-2.8,1.5-4,2.2c-4.8,2.7-7.6,4.2-7.6,4.2s2.6-1.8,7.2-4.8
				c1.2-0.8,2.4-1.6,3.8-2.5c1.4-0.9,3-1.8,4.6-2.8c1.6-1,3.4-2.1,5.2-3.2c1.9-1.1,3.8-2.2,5.9-3.4c2.1-1.2,4.2-2.4,6.5-3.6
				c2.3-1.2,4.6-2.4,7-3.7c2.4-1.3,4.9-2.5,7.5-3.7c1.3-0.6,2.6-1.3,3.9-1.9c1.3-0.6,2.7-1.2,4-1.8c2.7-1.2,5.4-2.5,8.3-3.7
				c2.8-1.2,5.7-2.4,8.6-3.5c5.8-2.3,11.8-4.4,17.8-6.4c3-0.9,6.1-1.9,9.1-2.7c1.5-0.4,3-0.9,4.6-1.3c1.5-0.4,3-0.8,4.6-1.1
				c6.1-1.6,12.1-2.7,18-3.7c5.9-0.9,11.6-1.7,17-2.2c1.4-0.1,2.7-0.2,4-0.3c1.3-0.1,2.6-0.2,3.9-0.2c2.6-0.1,5-0.2,7.4-0.1
				c2.4,0,4.7,0,6.8,0.1c2.2,0.1,4.2,0.2,6.2,0.4c3.9,0.3,7.2,0.8,9.9,1.2c2.7,0.5,4.9,1,6.3,1.3
				C362.6,305.9,363.4,306.1,363.4,306.1z"/>
		</g>
	</g>
	<path fill="none" stroke="#C0C0C0" stroke-width="1.6346" stroke-miterlimit="10" d="M459.6,354.2c-23.9,0-45.3-5.1-60-13.1
		c1.1,28.6,27.6,50.6,60,50.6c32.5,0,58.9-22.1,60-50.6C504.9,349.2,483.5,354.2,459.6,354.2z"/>
	<path fill="none" stroke="#C0C0C0" stroke-width="1.6346" stroke-miterlimit="10" d="M459.6,391.8c15.8,0,30.1-5.2,40.9-13.9
		c-11.1-2-25-3.2-40-3.2c-15.7,0-30,1.3-41.4,3.5C429.7,386.6,444,391.8,459.6,391.8z"/>
	<path fill="#FFFFFF" stroke="#C0C0C0" stroke-width="1.6346" stroke-miterlimit="10" d="M458,354.2c-6.8,0-13.4-0.4-19.8-1.2
		c1.5,15.2,9.8,26.9,19.8,26.9s18.3-11.6,19.8-26.9C471.5,353.8,464.9,354.2,458,354.2z"/>
	<g>
		<path fill="#C0C0C0" d="M458,380.5c0,0-0.1-0.4-0.1-1.1c-0.1-0.7-0.2-1.7-0.2-3c-0.2-2.5-0.3-5.7-0.3-9c0-3.3,0.1-6.6,0.3-9
			c0.1-1.2,0.2-2.3,0.2-3c0.1-0.7,0.1-1.1,0.1-1.1s0.1,0.4,0.1,1.1c0.1,0.7,0.2,1.7,0.2,3c0.2,2.5,0.3,5.7,0.3,9
			c0,3.3-0.1,6.6-0.3,9c-0.1,1.2-0.2,2.3-0.2,3C458.1,380.1,458,380.5,458,380.5z"/>
	</g>
</g>
<g>
</g>
<g>
</g>
<g>
</g>
<g>
</g>
<g>
</g>
<g>
</g>
<g>
</g>
<g>
</g>
<g>
</g>
<g>
</g>
<g>
</g>
<g>
</g>
<g>
</g>
<g>
</g>
<g>
</g>
</svg>
