<?xml version="1.0" encoding="utf-8"?>
<!-- Generator: Adobe Illustrator 18.0.0, SVG Export Plug-In . SVG Version: 6.00 Build 0)  -->
<!DOCTYPE svg PUBLIC "-//W3C//DTD SVG 1.1//EN" "http://www.w3.org/Graphics/SVG/1.1/DTD/svg11.dtd">
<svg version="1.1" id="Calque_1" xmlns="http://www.w3.org/2000/svg" xmlns:xlink="http://www.w3.org/1999/xlink" x="0px" y="0px"
	 viewBox="0 0 350.9 834.5" enable-background="new 0 0 350.9 834.5" xml:space="preserve">
<g>
	<path fill="#F9D27A" d="M146.8,122.8c0.2-0.1,0.3-0.2,0.3-0.4c0.9-1.9-3.1-7.1-4-8.6c-3.1-5.2-6.5-12-11-16.2
		c-10.3-9.5-32-4.8-32.6,11.7c-0.3,7.4,5.1,13.6,10.3,18.3c2.7,2.5,5.5,5.3,8.7,4.9c3.2-0.5,8.1-4,11.6-5
		C130.1,125.7,144.3,124.8,146.8,122.8z"/>
	
		<ellipse transform="matrix(0.9033 0.429 -0.429 0.9033 287.3919 44.0684)" fill="#75CFEF" cx="45.9" cy="659.5" rx="27.5" ry="54.9"/>
	
		<ellipse transform="matrix(-0.7688 0.6394 -0.6394 -0.7688 552.8621 422.2216)" fill="#FFD2F9" cx="200.1" cy="311" rx="15.1" ry="25.9"/>
	<path fill="#FFE473" d="M184.9,329.3c0,0-57.3,168.6-13.9,288.7l-114.9-6.4c0,0,35.8-217.1,33.2-311.7c4.3-43.5-9.7-88.7,1.3-131.4
		c9.3-36,38.8-59.1,75.8-60.5c36.6-1.4,56.9,15.2,71.5,49.8c12.8,30.2,23.8,51,57.8,56.5v92.9c0,0-58.1,0.3-97.1-17.6
		c0,0,6.1,24.3,29,39.6C227.7,329.3,231.8,345.9,184.9,329.3z"/>
	<path fill="#8DDCFF" d="M196.3,726.8c-0.9-34.8-3-73.6-22.4-103.7c-13-20.2-35.1-33.2-58.9-35.2c-26.4-2.2-47.2,6.5-63.6,27.1
		c-8.7,10.9-15.4,22.9-20.3,35.7c-10.4,26.7-13.4,55.6-13.4,84.1c0.1,31.9,5.3,62.8,8.6,93.8h160.8
		C190.9,794.5,197.2,761.1,196.3,726.8z"/>
	<polygon fill="#FFE473" points="115,54.8 134.1,48.7 148.4,120.3 132.5,122 	"/>
	<circle fill="#EA9139" cx="121.8" cy="44.3" r="24.3"/>
	<path fill="#FFC269" d="M272,260.3c0,25.4,8.3,46.9,20.5,46.9s23.6-21.5,23.6-46.9s-9.9-46-22-46S272,234.9,272,260.3z"/>
	<path fill="#F49C3B" d="M81,489.8c2.7-7.9,23.7-24.3,23.5-6.6c0,4.5-2.5,8.5-4.4,12.6c-2.1,4.7-3.4,9.9-3.8,15
		c-0.2,3-0.1,6.1,1.3,8.8c1,1.8,2.5,3.3,3.9,4.8c3.9,4.1,7.4,8.9,9.2,14.3c2.9,8.9,0.1,19.3-8.6,23.9c-7.8,4.2-31.9,3.6-31.5-9.2
		c0.2-7.9,2.4-15.7,6.3-22.6c1.5-2.7,3.3-5.3,4-8.3c0.7-3,0.2-6-0.3-9C79.4,505.6,78.4,497.3,81,489.8z"/>
	<path fill="#F49C3B" d="M153.4,150.7c3,17.9-4.9,51.1-24.7,44.2c-13-4.5-12.4-20.9-9.1-31.8c2.3-7.5,0.9-18.6,5.3-25.7
		c8.4-13.5,20.6-5.5,26.5,6.6C152.3,145.8,153,148.1,153.4,150.7z"/>
	<path fill="#825933" d="M177.6,87.7c0,0-45.9-43.7-78.9,11.7l34.6,46.4c0,0,9.5-23.4,48.5-21.8L177.6,87.7z"/>
	<path fill="#FFE473" d="M169.5,128.6c-2.1,0-4.1,0.4-5.9,1l14.9-86.8l23.9,18.2l-22.7,70.8C176.9,129.8,173.3,128.6,169.5,128.6z"
		/>
	<circle fill="#F49C3B" cx="196" cy="38.1" r="28.7"/>
	<g>
		<ellipse fill="#FFFFFF" cx="220.6" cy="194.2" rx="12.5" ry="29.4"/>
		<path fill="#FFC269" d="M220.7,176.1c4.2,0,8.1,2.2,11.2,5.8c-2-10.1-6.3-17-11.4-17c-5.1,0-9.5,7.2-11.4,17.5
			C212.3,178.4,216.3,176.1,220.7,176.1z"/>
		<path fill="#424242" d="M210,178.4c-1.6-1.8-3.7-5.5-2.6-11.5c0,0-2.7,5.9,0.1,11.2c-2.2-2.5-4.9-7.3-4.5-15.7
			c0,0-3.5,13,6.1,19.9c0.7-0.9,1.5-1.8,2.4-2.5l0,0C211.5,179.8,210.8,179.4,210,178.4z"/>
		<path fill="#353535" d="M220.6,189.5c-6.1,0-11.1,7.6-11.3,17.1c2,10,6.3,17,11.3,17s9.4-7,11.3-17
			C231.6,197.1,226.7,189.5,220.6,189.5z"/>
		<ellipse fill="#FFFFFF" cx="225.6" cy="208.6" rx="3.4" ry="5.6"/>
	</g>
	<ellipse fill="#FFD2F9" cx="301.6" cy="261.6" rx="7" ry="14.1"/>
	<path fill="#F49C3B" d="M152.3,268.6c-3.7-5.3-7.4-10.3-9.9-14.6c-3-5.1-8.2-9.9-14.1-9.1c-8,1.1-11.2,11.3-9.5,19.2
		s6.2,15.1,6.8,23.1c0.3,4.3-0.6,8.7,0.2,12.9c3,17.2,27.4,23,35.8,9.9C170,296.6,161.2,281.5,152.3,268.6z"/>
	<path fill="#F49C3B" d="M156.1,476.5c-15.3,5.4-31.2-10.9-17-24.1c1.5-1.4,3.3-2.6,4.3-4.4c1.3-2.5,0.5-5.7-1-8.2
		c-1.4-2.5-3.4-4.6-4.7-7.2c-1.6-3.3-2-7.1-1.6-10.7c0.3-3.4,1.4-7.1,4.2-9c2.6-1.8,6.1-1.7,9.3-1.5c4.7,0.3,8.8-0.1,13.5,0.9
		c0.4,0.1,0.7,0.2,1.1,0.3C160.8,432.2,157.8,453.9,156.1,476.5z"/>
	<g>
		<path fill="#FFF364" d="M170.9,765.7c0.4-0.6,0.6-1.4,0.6-2.2c0-2.4-2-4.4-4.4-4.4c-0.8,0-1.5,0.2-2.1,0.5
			c-0.6-1.8-2.2-3.1-4.2-3.1c-2.4,0-4.4,2-4.4,4.4c0,0.3,0,0.7,0.1,1c-0.2,0-0.5-0.1-0.8-0.1c-2.4,0-4.4,2-4.4,4.4
			c0,1.5,0.8,2.8,1.9,3.6c-0.2,0.5-0.3,1.1-0.3,1.7c0,2.4,2,4.4,4.4,4.4c1.1,0,2-0.4,2.8-1c0.6,1.7,2.2,2.9,4.1,2.9
			c2.2,0,4.1-1.7,4.4-3.8c0.2,0,0.4,0.1,0.7,0.1c2.4,0,4.4-2,4.4-4.4C173.7,767.9,172.5,766.3,170.9,765.7z M161.4,770.2
			c-0.3-0.9-0.9-1.6-1.6-2.1c0.2-0.5,0.3-1.1,0.3-1.7c0-0.3,0-0.7-0.1-1c0.2,0,0.5,0.1,0.8,0.1c0.8,0,1.5-0.2,2.1-0.5
			c0.4,1.3,1.4,2.3,2.6,2.7c-0.3,0.5-0.5,1-0.5,1.6c-0.2,0-0.4-0.1-0.7-0.1C163.2,769.2,162.2,769.5,161.4,770.2z"/>
		<circle fill="#FF5A5A" cx="162.6" cy="767.8" r="3.6"/>
	</g>
	<g>
		<path fill="#FFF364" d="M78.9,637.3c0.4-0.6,0.6-1.4,0.6-2.2c0-2.4-2-4.4-4.4-4.4c-0.8,0-1.5,0.2-2.1,0.5
			c-0.6-1.8-2.2-3.1-4.2-3.1c-2.4,0-4.4,2-4.4,4.4c0,0.3,0,0.7,0.1,1c-0.2,0-0.5-0.1-0.8-0.1c-2.4,0-4.4,2-4.4,4.4
			c0,1.5,0.8,2.8,1.9,3.6c-0.2,0.5-0.3,1.1-0.3,1.7c0,2.4,2,4.4,4.4,4.4c1.1,0,2-0.4,2.8-1c0.6,1.7,2.2,2.9,4.1,2.9
			c2.2,0,4.1-1.7,4.4-3.8c0.2,0,0.4,0.1,0.7,0.1c2.4,0,4.4-2,4.4-4.4C81.7,639.5,80.6,638,78.9,637.3z M69.5,641.8
			c-0.3-0.9-0.9-1.6-1.6-2.1c0.2-0.5,0.3-1.1,0.3-1.7c0-0.3,0-0.7-0.1-1c0.2,0,0.5,0.1,0.8,0.1c0.8,0,1.5-0.2,2.1-0.5
			c0.4,1.3,1.4,2.3,2.6,2.7c-0.3,0.5-0.5,1-0.5,1.6c-0.2,0-0.4-0.1-0.7-0.1C71.2,640.8,70.2,641.2,69.5,641.8z"/>
		<circle fill="#FF5A5A" cx="70.6" cy="639.4" r="3.6"/>
	</g>
	<g>
		<path fill="#FFF364" d="M161.3,643.1c0.4-0.6,0.6-1.4,0.6-2.2c0-2.4-2-4.4-4.4-4.4c-0.8,0-1.5,0.2-2.1,0.5
			c-0.6-1.8-2.2-3.1-4.2-3.1c-2.4,0-4.4,2-4.4,4.4c0,0.3,0,0.7,0.1,1c-0.2,0-0.5-0.1-0.8-0.1c-2.4,0-4.4,2-4.4,4.4
			c0,1.5,0.8,2.8,1.9,3.6c-0.2,0.5-0.3,1.1-0.3,1.7c0,2.4,2,4.4,4.4,4.4c1.1,0,2-0.4,2.8-1c0.6,1.7,2.2,2.9,4.1,2.9
			c2.2,0,4.1-1.7,4.4-3.8c0.2,0,0.4,0.1,0.7,0.1c2.4,0,4.4-2,4.4-4.4C164.1,645.3,162.9,643.7,161.3,643.1z M151.9,647.5
			c-0.3-0.9-0.9-1.6-1.6-2.1c0.2-0.5,0.3-1.1,0.3-1.7c0-0.3,0-0.7-0.1-1c0.2,0,0.5,0.1,0.8,0.1c0.8,0,1.5-0.2,2.1-0.5
			c0.4,1.3,1.4,2.3,2.6,2.7c-0.3,0.5-0.5,1-0.5,1.6c-0.2,0-0.4-0.1-0.7-0.1C153.6,646.5,152.6,646.9,151.9,647.5z"/>
		<circle fill="#FF5A5A" cx="153" cy="645.2" r="3.6"/>
	</g>
	<g>
		<path fill="#FFF364" d="M124.9,694.8c0.4-0.6,0.6-1.4,0.6-2.2c0-2.4-2-4.4-4.4-4.4c-0.8,0-1.5,0.2-2.1,0.5
			c-0.6-1.8-2.2-3.1-4.2-3.1c-2.4,0-4.4,2-4.4,4.4c0,0.3,0,0.7,0.1,1c-0.2,0-0.5-0.1-0.8-0.1c-2.4,0-4.4,2-4.4,4.4
			c0,1.5,0.8,2.8,1.9,3.6c-0.2,0.5-0.3,1.1-0.3,1.7c0,2.4,2,4.4,4.4,4.4c1.1,0,2-0.4,2.8-1c0.6,1.7,2.2,2.9,4.1,2.9
			c2.2,0,4.1-1.7,4.4-3.8c0.2,0,0.4,0.1,0.7,0.1c2.4,0,4.4-2,4.4-4.4C127.7,697,126.5,695.4,124.9,694.8z M115.5,699.3
			c-0.3-0.9-0.9-1.6-1.6-2.1c0.2-0.5,0.3-1.1,0.3-1.7c0-0.3,0-0.7-0.1-1c0.2,0,0.5,0.1,0.8,0.1c0.8,0,1.5-0.2,2.1-0.5
			c0.4,1.3,1.4,2.3,2.6,2.7c-0.3,0.5-0.5,1-0.5,1.6c-0.2,0-0.4-0.1-0.7-0.1C117.2,698.3,116.2,698.6,115.5,699.3z"/>
		<circle fill="#FF5A5A" cx="116.6" cy="696.9" r="3.6"/>
	</g>
	<g>
		<path fill="#FFF364" d="M67.4,736.9c0.4-0.6,0.6-1.4,0.6-2.2c0-2.4-2-4.4-4.4-4.4c-0.8,0-1.5,0.2-2.1,0.5
			c-0.6-1.8-2.2-3.1-4.2-3.1c-2.4,0-4.4,2-4.4,4.4c0,0.3,0,0.7,0.1,1c-0.2,0-0.5-0.1-0.8-0.1c-2.4,0-4.4,2-4.4,4.4
			c0,1.5,0.8,2.8,1.9,3.6c-0.2,0.5-0.3,1.1-0.3,1.7c0,2.4,2,4.4,4.4,4.4c1.1,0,2-0.4,2.8-1c0.6,1.7,2.2,2.9,4.1,2.9
			c2.2,0,4.1-1.7,4.4-3.8c0.2,0,0.4,0.1,0.7,0.1c2.4,0,4.4-2,4.4-4.4C70.2,739.2,69.1,737.6,67.4,736.9z M58,741.4
			c-0.3-0.9-0.9-1.6-1.6-2.1c0.2-0.5,0.3-1.1,0.3-1.7c0-0.3,0-0.7-0.1-1c0.2,0,0.5,0.1,0.8,0.1c0.8,0,1.5-0.2,2.1-0.5
			c0.4,1.3,1.4,2.3,2.6,2.7c-0.3,0.5-0.5,1-0.5,1.6c-0.2,0-0.4-0.1-0.7-0.1C59.7,740.4,58.7,740.8,58,741.4z"/>
		<circle fill="#FF5A5A" cx="59.1" cy="739" r="3.6"/>
	</g>
	<g>
		<path fill="#FFE473" d="M175.2,666.3c1.2-1.2,2.8-2.3,4.2-3.3c19.1-15.2,38.2-30.4,57.3-45.6c9.2-7.3,18.4-14.6,27.6-22
			c9.9-7.9,15.9-16.7,23.5-26.8c7.1-9.4,14.2-18.9,21.3-28.3c9.2-12.3,18.4-24.5,27.7-36.8c9-9.1,9-23.9-0.1-33
			c-9.1-9-23.9-9-33,0.1c-24.8,34.2-45.9,76.4-80.3,102c-23.7,17.6-47.2,35.4-70.9,53c-3.3,2.5-7.4,4.8-10.3,7.7
			c-9,9.1-9,23.9,0.1,33C151.4,675.4,166.2,675.4,175.2,666.3z"/>
		<path fill="#75CFEF" d="M175.2,666.3c-9,9.1-23.9,9.2-33,0.1c-9.1-9-9.2-23.9-0.1-33c2.9-2.9,7-5.2,10.3-7.7
			c7.5-5.6,14.9-11.2,22.4-16.8c0.8,11.5,5,30.6,22.6,39.7c-6,4.8-12,9.6-18,14.3C178.1,664,176.5,665,175.2,666.3z"/>
		<path fill="#F49C3B" d="M237.3,601c-1.5,1.4-3.3,2.2-5.8,1.8c-11.3-2-3.3-17.5-0.5-23.4c2.8-5.7,7.4-10.9,13.6-12.7
			c2.1-0.6,5.4-0.5,7.3-1.7c1.8-1.1,2.2-4,3.9-4.9c3.8-1.9,5.2-1.8,7.6,2.6c1.9,3.5,3,9.5,2.7,13.5c-0.5,5.2-4.2,10.5-9.4,10.9
			c-1.8,0.1-3.6-0.3-5.5-0.2C243.2,587.3,241.6,596.9,237.3,601z"/>
		<path fill="#F49C3B" d="M326.4,495.8c0-0.1,0-0.1-0.1-0.2c-2.8-6.9-0.6-10.9,5.2-15.5c6.9-5.4,10.7-5,11.8,4.3
			c0.8,7-1.6,14.2-6.6,19.2c-2.2,3-4.5,6-6.7,9C333,508.6,328,499.5,326.4,495.8z"/>
	</g>
	<path fill="#825933" d="M123.8,301.8c4.3-43.5-9.7-88.7,1.3-131.4c0.9-3.3,1.9-6.5,3.1-9.6l-31.3-22.3c-0.8,2.6-1.6,5.3-2.1,8.2
		c-0.6,3.6-1,7.5-1,11.3c0,8.2,2.7,14.2,2.5,22.5c-0.2,7.3-1.3,15.6-3.4,21.9c-1.1,3.6-2.6,6.9-3.7,10.5c-1.1,3.4-1.9,7-2.6,10.7
		c0,0,0,0.1,0,0.1c-0.1,2.3-0.1,4.7,0,7.1c0.1,4.7,1.4,9.4,1.8,14.2c0.4,5.5,0.3,11.7-0.5,17.1c-1.6,10.7-6.7,18.6-8.5,29.2
		c-0.6,3.6-1,7.5-1,11.3c0,8.2,2.7,14.2,2.5,22.5c-0.2,7.3-1.3,15.6-3.4,21.9c-1.1,3.6-2.6,6.9-3.7,10.5c-1.1,3.4-1.9,7-2.6,10.7
		c-0.4,2.4-0.6,4.8-0.7,7.3c0.4,3.9,1.3,7.9,1.6,11.9c0.4,5.5,0.3,11.7-0.5,17.1c-1.6,10.6-6.5,18.4-8.4,28.8l-1.1,10.6
		c0,0.4,0,0.8,0,1.1c0,1.6,0.1,3.1,0.3,4.5l45.4,47.8C116.4,430.4,125.1,350.1,123.8,301.8z"/>
	<path fill="#825933" d="M107.7,518.6l-49-4.6c0,0.2-0.1,0.4-0.1,0.6c-0.6,3.6-1,7.5-1,11.3c0,8.2,2.6,14.2,2.4,22.5
		c-0.2,7.3-1.3,15.6-3.4,21.9c-1.1,3.3-2.4,6.4-3.5,9.8l-0.2,2.8l44.9,4.2C100.6,569,104.1,545.2,107.7,518.6z"/>
	<g>
		<circle fill="#F93D3D" cx="150.7" cy="504.6" r="12.5"/>
		<circle fill="#F93D3D" cx="125.8" cy="506.5" r="12.5"/>
		<circle fill="#F93D3D" cx="76" cy="502.7" r="12.5"/>
		<circle fill="#F93D3D" cx="100.9" cy="506.5" r="12.5"/>
	</g>
	<path fill="#F9D27A" d="M174.7,128.6c-0.2-0.1-0.3-0.2-0.3-0.4c-0.9-1.9,3.1-7.1,4-8.6c3.1-5.2,6.5-12,11-16.2
		c10.3-9.5,32-4.8,32.6,11.7c0.3,7.4-5.1,13.6-10.3,18.3c-2.7,2.5-5.5,5.3-8.7,4.9c-3.2-0.5-8.1-4-11.6-5
		C191.5,131.5,177.2,130.6,174.7,128.6z"/>
	<path fill="#F49C3B" d="M252.8,196c2.6,1.4,5.5,2.3,8.4,2.6c-10.2-10-16.5-23.9-23.7-40.7c-1.3-3-2.6-5.8-4-8.6
		c-0.1,0.9-0.2,1.9-0.3,2.8c-0.7,10.9,2,22,7.6,31.4C243.8,188.5,247.7,193.1,252.8,196z"/>
</g>
<g>
</g>
<g>
</g>
<g>
</g>
<g>
</g>
<g>
</g>
<g>
</g>
<g>
</g>
<g>
</g>
<g>
</g>
<g>
</g>
<g>
</g>
<g>
</g>
<g>
</g>
<g>
</g>
<g>
</g>
</svg>
