<?xml version="1.0" encoding="utf-8"?>
<!-- Generator: Adobe Illustrator 18.0.0, SVG Export Plug-In . SVG Version: 6.00 Build 0)  -->
<!DOCTYPE svg PUBLIC "-//W3C//DTD SVG 1.1//EN" "http://www.w3.org/Graphics/SVG/1.1/DTD/svg11.dtd">
<svg version="1.1" id="Calque_1" xmlns="http://www.w3.org/2000/svg" xmlns:xlink="http://www.w3.org/1999/xlink" x="0px" y="0px"
	 viewBox="0 0 898.2 705.5" enable-background="new 0 0 898.2 705.5" xml:space="preserve">
<g>
	<path fill="#BC6F37" stroke="#A05D30" stroke-width="15" stroke-miterlimit="10" d="M852.2,688.9H50.3c-16.5,0-30-13.5-30-30V46.3
		c0-16.5,13.5-30,30-30h801.9c16.5,0,30,13.5,30,30v612.6C882.1,675.4,868.6,688.9,852.2,688.9z"/>
	<g>
		<g>
			<path fill="#FFFFFF" stroke="#8C8C8C" stroke-width="0.6539" stroke-miterlimit="10" d="M534.2,225.5l-225.2-0.6
				c-6.2,0-11.3-5.1-11.2-11.3l0.4-153.9c0-6.2,5.1-11.3,11.3-11.2L534.6,49c6.2,0,11.3,5.1,11.2,11.3l-0.4,153.9
				C545.4,220.5,540.4,225.5,534.2,225.5z"/>
			<g id="layer1_9_">
				<path id="path2417_9_" fill="#FF0000" d="M378.7,169.4c-2-2.5-7.2-7.5-11.4-11c-12.5-10.4-14.2-11.9-19.2-17
					c-8-8.1-13.8-19.3-15.6-31c-1.3-8.6-1.8-20.6,5.1-26.7c7.9-7.1,25.9-5,34.1,0c4.5,2.7,9.2,8.6,10.1,12.7l0.6,2.6l1.5-3.5
					c8.4-19.9,34.9-19.5,44.1,0.6c8.1,17.7-0.3,30.3-11.3,42.4c-11.8,13-26.1,18.5-34,35.5C381.7,175.8,382.5,174.2,378.7,169.4z"/>
				<g id="g2221_9_" transform="translate(129.28571,-64.285714)">
				</g>
			</g>
			<g id="layer1_8_">
				<path id="path2417_8_" fill="#FF0000" d="M483.5,196.7c-8.2-10.6-22.4-19.5-24-34.4c-0.8-7.8,1.6-14.5,8.9-15.8
					c1-0.2,8.7,1,13.6,2.9c3,1.1,6.4,0.8,9.2-0.9c10.6-6.7,20.2,8.6,17.7,22.1c-2.5,13.3-16.8,18.4-23.4,28.9
					C484.9,198.5,484.2,197.6,483.5,196.7z"/>
				<g id="g2221_8_" transform="translate(129.28571,-64.285714)">
				</g>
			</g>
		</g>
		<circle fill="#898989" cx="423" cy="63.9" r="5"/>
	</g>
	<g>
		<path fill="#FFFFFF" stroke="#8C8C8C" stroke-width="0.6539" stroke-miterlimit="10" d="M817.2,415.5l-225.2-0.6
			c-6.2,0-11.3-5.1-11.2-11.3l0.4-153.9c0-6.2,5.1-11.3,11.3-11.2l225.2,0.6c6.2,0,11.3,5.1,11.2,11.3l-0.4,153.9
			C828.4,410.5,823.4,415.5,817.2,415.5z"/>
		<circle fill="#898989" cx="706" cy="253.9" r="5"/>
		<g>
			<path fill="#2D2D2D" d="M673.9,393.7c0,0-0.4-0.2-1.1-0.5c-0.7-0.3-1.8-0.8-3.2-1.6c-1.4-0.7-3-1.7-4.9-3
				c-1.9-1.3-3.9-2.9-6.1-4.7c-2.2-1.9-4.7-3.9-7.2-6.4c-2.5-2.5-5.1-5.3-7.3-8.8c-1.1-1.7-2.2-3.6-3.1-5.6c-0.2-0.5-0.4-1-0.7-1.6
				c-0.2-0.5-0.4-1-0.6-1.5c-0.4-1-0.8-2.2-1.1-3.3c-1.3-4.5-1.9-9.3-2.2-14.3c-0.3-5-0.3-10.2-0.2-15.6c0.1-5.3,0.2-10.9,1-16.7
				c0.2-1.4,0.5-2.9,0.8-4.3c0.2-0.7,0.3-1.4,0.5-2.2l0.1-0.2l0-0.1l0.1-0.3l0.2-0.5l0.3-1c0.2-0.7,0.5-1.4,0.7-2.1
				c0.3-0.7,0.6-1.4,0.9-2.1c0.3-0.7,0.6-1.4,0.9-2.1c0.4-0.7,0.8-1.3,1.1-2c3.1-5.4,7.5-10.1,13-13.6c5.4-3.5,11.5-5.9,17.8-7.5
				c6.3-1.6,12.8-2.4,19.3-2.9c6.5-0.5,13.1-0.9,19.7-1c3.3-0.1,6.6-0.1,9.9-0.1c3.3,0,6.7,0.2,10.1,0.6c3.4,0.5,6.7,1.2,10,2.4
				c1.6,0.6,3.2,1.4,4.7,2.3c0.7,0.5,1.5,0.9,2.1,1.5l0.5,0.4l0.3,0.2l0.1,0.1c0,0,0.2,0.1,0.2,0.2l0.9,0.9c0.3,0.3,0.6,0.6,0.9,0.9
				l0.9,1c0.3,0.3,0.6,0.7,0.9,1l0.8,1.1c0.5,0.7,1,1.4,1.4,2.2c0.5,0.7,0.8,1.5,1.2,2.3c1.5,3.1,2.6,6.3,3.5,9.5
				c1.7,6.4,2.5,12.9,3.7,19.1c1.1,6.3,1.9,12.6,2.3,18.9c0.7,12.5-0.8,25-5.7,35.7c-1.2,2.6-2.6,5.2-4.1,7.6
				c-1.6,2.4-3.3,4.6-5.2,6.6c-1.9,2-3.9,3.8-6,5.5c-1.1,0.8-2.2,1.6-3.3,2.2l-0.8,0.5l-0.2,0.1l-0.2,0.1l-0.4,0.2
				c-0.6,0.3-1.1,0.6-1.7,0.9c-4.7,2.2-9.3,3.7-13.9,4.5c-4.5,0.8-8.8,1.2-12.9,1.5c-8.1,0.6-15.2,0.7-21,0.1
				c-2.9-0.3-5.5-0.7-7.7-1.1c-2.2-0.4-4-1-5.5-1.4c-1.5-0.5-2.6-0.9-3.3-1.2C674.2,393.8,673.9,393.7,673.9,393.7z M673.9,393.7
				c0,0,0.4,0.2,1.1,0.4c0.7,0.3,1.9,0.7,3.3,1.2c3,0.9,7.4,1.9,13.2,2.1c5.8,0.2,12.7-0.5,20.7-1.7c4-0.6,8.2-1.2,12.5-2.2
				c2.2-0.5,4.4-1,6.6-1.7c2.2-0.7,4.4-1.5,6.5-2.6c8.7-4.1,16.1-12.2,20.7-22.3c1.1-2.5,2.1-5.2,2.9-7.9c0.2-0.7,0.4-1.3,0.6-2
				c0.2-0.7,0.3-1.4,0.5-2.1c0.3-1.4,0.6-2.8,0.8-4.3c0.9-5.8,1.1-11.8,0.7-17.9c-0.3-6.1-1.1-12.3-2.2-18.6
				c-1.1-6.3-2-12.7-3.6-18.9c-0.8-3.1-1.9-6.1-3.3-8.9c-0.4-0.7-0.7-1.4-1.1-2.1c-0.4-0.7-0.8-1.3-1.3-2l-0.7-0.9
				c-0.2-0.3-0.5-0.6-0.7-0.9l-0.7-0.9c-0.3-0.3-0.6-0.6-0.9-0.9l-0.9-0.9l-0.8-0.7c-0.6-0.5-1.3-0.9-1.9-1.3
				c-1.3-0.8-2.7-1.5-4.2-2.1c-2.9-1.2-6.1-1.8-9.2-2.3c-3.2-0.4-6.4-0.6-9.7-0.6c-3.3,0-6.6,0-9.8,0.1c-6.6,0.1-13.1,0.5-19.5,1
				c-6.5,0.5-12.8,1.3-18.9,2.9c-6.1,1.5-11.8,3.8-16.9,7.1c-5.1,3.2-9.2,7.6-12,12.6c-0.4,0.6-0.7,1.2-1.1,1.9
				c-0.3,0.6-0.6,1.3-0.8,1.9c-0.3,0.6-0.6,1.3-0.8,1.9c-0.2,0.7-0.5,1.4-0.7,2.1c-0.2,0.7-0.4,1.3-0.6,2c-0.2,0.7-0.4,1.4-0.5,2
				c-0.3,1.4-0.6,2.7-0.8,4.1c-0.8,5.5-0.9,11-1,16.3c-0.1,5.3-0.1,10.5,0.2,15.3c0.3,4.9,1.1,9.5,2.1,13.8c0.2,1.1,0.5,2.1,0.8,3.1
				c0.2,0.5,0.3,1,0.5,1.6c0.2,0.5,0.3,1,0.5,1.4c0.7,1.9,1.6,3.8,2.5,5.5c1.9,3.4,4.2,6.4,6.4,9.1c2.3,2.6,4.5,4.9,6.6,6.9
				c4.1,4,7.9,6.6,10.6,8.1c1.4,0.8,2.4,1.3,3.1,1.6C673.5,393.5,673.9,393.7,673.9,393.7z"/>
		</g>
		<path fill="#2D2D2D" d="M706.1,397.3c-0.6-22.8-21.7-42.6-44.7-41.4c-2,0.1-19.5,2.1-19.8,5.1c3.7,10.1,11.5,17.8,19.6,24.7
			c4.1,3.5,8.3,6.1,12.7,7.9C683.8,397.9,694.4,398.3,706.1,397.3z"/>
		<path fill="#2D2D2D" d="M640.1,303.8c-1.7,6.2-2.1,12.6-2.3,19c8.6,2.6,17.3,4.8,26.2,4.3c10.1-0.5,20.6-5.1,25.8-13.8
			c2.3-3.9,3.4-8.4,4.3-12.8c2-9.9,2.9-21-1.6-29.8c-0.9,0.1-1.9,0.1-2.8,0.2C667.7,272.9,646.5,280.3,640.1,303.8z"/>
		<path fill="#2D2D2D" d="M764,354.9c2.9-13.9,1.5-28.4-1-42.5c-0.8-4.6-1.6-9.7-2.7-14.7c-2.2,0.1-4.4,0.3-6.6,0.6
			c-3.6,0.4-7.3,0.9-10.9,1.3c-7.2,0.9-14.6,1.8-21.3,4.7c-6.7,2.9-12.8,8.1-15.1,15c-1.8,5.4-1,11.3-0.3,16.9
			c1.6,11.3,3.4,22.7,8.5,32.9c4.7,9.3,12,17.2,21,22.5c0,0,0.1,0.1,0.1,0.1c1.7-0.7,3.5-1.5,5.1-2.4
			C753.2,382.3,761,368.8,764,354.9z"/>
	</g>
	<g>
		<path fill="#FFFFFF" stroke="#8C8C8C" stroke-width="0.6539" stroke-miterlimit="10" d="M511.2,676.5l-225.2-0.6
			c-6.2,0-11.3-5.1-11.2-11.3l0.4-153.9c0-6.2,5.1-11.3,11.3-11.2l225.2,0.6c6.2,0,11.3,5.1,11.2,11.3l-0.4,153.9
			C522.4,671.5,517.4,676.5,511.2,676.5z"/>
		<circle fill="#898989" cx="400" cy="514.9" r="5"/>
		<g>
			<g>
				<circle fill="#FFAB66" cx="398.4" cy="550.7" r="19.5"/>
				<path fill="#FFAB66" d="M377.2,529.1l4.2,15.2l9.1-10.3l-12.1-5.9C377.7,527.8,376.9,528.4,377.2,529.1z"/>
				<path fill="#FFAB66" d="M420.5,529.1l-4.2,15.2l-9.1-10.3l12.1-5.9C420,527.8,420.7,528.4,420.5,529.1z"/>
			</g>
			<rect x="392.3" y="562.8" fill="#FFAB66" width="13.6" height="15.3"/>
			<path fill="#FFAB66" d="M390.5,586l-0.5,0.5c-1.3,1.3-3.5,1.3-4.8,0l-20.9-21.3c-1.3-1.3-1.3-3.5,0-4.8l0.5-0.5
				c1.3-1.3,3.5-1.3,4.8,0l20.9,21.3C391.8,582.5,391.8,584.7,390.5,586z"/>
			<path fill="#FFAB66" d="M381,663.8l-1-0.2c-2.4-0.4-3.9-2.7-3.5-5.1l7-37.8c0.4-2.4,2.7-3.9,5.1-3.5l1,0.2
				c2.4,0.4,3.9,2.7,3.5,5.1l-7,37.8C385.6,662.7,383.3,664.3,381,663.8z"/>
			<path fill="#FFAB66" d="M417.2,663.8l1-0.2c2.4-0.4,3.9-2.7,3.5-5.1l-7-37.8c-0.4-2.4-2.7-3.9-5.1-3.5l-1,0.2
				c-2.4,0.4-3.9,2.7-3.5,5.1l7,37.8C412.5,662.7,414.8,664.3,417.2,663.8z"/>
			<path fill="#FFAB66" d="M408.5,586l0.5,0.5c1.3,1.3,3.5,1.3,4.8,0l20.9-21.3c1.3-1.3,1.3-3.5,0-4.8l-0.5-0.5
				c-1.3-1.3-3.5-1.3-4.8,0l-20.9,21.3C407.1,582.5,407.1,584.7,408.5,586z"/>
			<path fill="#6EE574" d="M371.6,621.9l16.1-47.8c0.6-1.8,2.3-3.1,4.2-3.1h15.7c2,0,3.8,1.4,4.3,3.4l14.5,47.8
				c0.6,2.7-1.5,5.4-4.3,5.4h-46.3C372.9,627.6,370.7,624.8,371.6,621.9z"/>
		</g>
	</g>
	<g>
		<path fill="#A9E5FF" d="M802.1,556.9c0-14.9-13.4-27-30-27c-3.5,0-6.9,0.5-10,1.5c-7.8-5.9-19-9.5-31.5-9.5
			c-7.7,0-14.8,1.4-21,3.8c-6.6-8.9-17.6-14.8-30-14.8c-18.8,0-34.2,13.4-36.3,30.7c-8.7,5.8-14.2,14.3-14.2,23.8
			c0,14.6,12.9,26.8,30.3,30.4c2.2,12.5,16.2,22.1,33.2,22.1c14,0,26-6.5,31-15.8c4.8,1.8,10.2,2.8,16,2.8c17.5,0,31.9-9.2,33.4-21
			C789.1,583.5,802.1,571.6,802.1,556.9z"/>
		<circle fill="#898989" cx="720" cy="533.9" r="5"/>
	</g>
</g>
<g>
</g>
<g>
</g>
<g>
</g>
<g>
</g>
<g>
</g>
<g>
</g>
<g>
</g>
<g>
</g>
<g>
</g>
<g>
</g>
<g>
</g>
<g>
</g>
<g>
</g>
<g>
</g>
<g>
</g>
</svg>
