<?xml version="1.0" encoding="utf-8"?>
<!-- Generator: Adobe Illustrator 18.0.0, SVG Export Plug-In . SVG Version: 6.00 Build 0)  -->
<!DOCTYPE svg PUBLIC "-//W3C//DTD SVG 1.1//EN" "http://www.w3.org/Graphics/SVG/1.1/DTD/svg11.dtd">
<svg version="1.1" id="Calque_1" xmlns="http://www.w3.org/2000/svg" xmlns:xlink="http://www.w3.org/1999/xlink" x="0px" y="0px"
	 viewBox="0 0 156.4 63.6" enable-background="new 0 0 156.4 63.6" xml:space="preserve">
<g>
	<path fill="#543127" d="M142,29.7c0-9.7-29.3-17.7-66.1-18.2c-5.3-2.1-12.4-3.3-20.2-3.3c-12,0-22.4,3-27,7.3
		C12.8,18.9,2.7,24,2.7,29.7c0,6.9,14.6,12.8,36,15.9c0.1,5.3,11.2,9.5,24.9,9.5c10.2,0,19-2.4,22.8-5.7c4,0.7,8.5,1.1,13.2,1.1
		c16.7,0,30.3-4.9,31.1-11C137.9,36.8,142,33.4,142,29.7z"/>
	<ellipse fill="#543127" cx="144.4" cy="40.3" rx="7.3" ry="3"/>
</g>
<g>
</g>
<g>
</g>
<g>
</g>
<g>
</g>
<g>
</g>
<g>
</g>
<g>
</g>
<g>
</g>
<g>
</g>
<g>
</g>
<g>
</g>
<g>
</g>
<g>
</g>
<g>
</g>
<g>
</g>
</svg>
