<?xml version="1.0" encoding="utf-8"?>
<!-- Generator: Adobe Illustrator 18.0.0, SVG Export Plug-In . SVG Version: 6.00 Build 0)  -->
<!DOCTYPE svg PUBLIC "-//W3C//DTD SVG 1.1//EN" "http://www.w3.org/Graphics/SVG/1.1/DTD/svg11.dtd">
<svg version="1.1" id="Calque_1" xmlns="http://www.w3.org/2000/svg" xmlns:xlink="http://www.w3.org/1999/xlink" x="0px" y="0px"
	 viewBox="0 0 94.7 94.7" enable-background="new 0 0 94.7 94.7" xml:space="preserve">
<g>
	<path fill="#B7B7B7" d="M78.3,48.4c0.6-1.9,0.9-3.9,0.9-5.9c0-12-10.2-21.8-22.9-21.8c-8.3,0-15.6,4.2-19.6,10.5
		c-5.6,2-10,6.2-11.6,11.3c-7.4,1.5-13.1,8.4-13.1,16.3l0,0c0,9,7.3,16.6,16.3,16.6h37.1c9,0,16.3-7.6,16.3-16.6l0,0
		C81.8,54.9,80.5,51.1,78.3,48.4z"/>
	<path fill="#A3A3A3" d="M59.9,25.2c2.8,0.2,5.5,1.3,7.6,3.1c3.4,2.9,7,8.1,7.9,12.6c0.4,2-0.3,5.4-3,5.5c-2.1,0.1-3.2-3.3-3.4-5
		c-0.4-3.9-0.4-6.4-3-9.7C65.1,30.3,61.6,25.3,59.9,25.2z"/>
</g>
<g>
</g>
<g>
</g>
<g>
</g>
<g>
</g>
<g>
</g>
<g>
</g>
<g>
</g>
<g>
</g>
<g>
</g>
<g>
</g>
<g>
</g>
<g>
</g>
<g>
</g>
<g>
</g>
<g>
</g>
</svg>
