<?xml version="1.0" encoding="utf-8"?>
<!-- Generator: Adobe Illustrator 18.0.0, SVG Export Plug-In . SVG Version: 6.00 Build 0)  -->
<!DOCTYPE svg PUBLIC "-//W3C//DTD SVG 1.1//EN" "http://www.w3.org/Graphics/SVG/1.1/DTD/svg11.dtd">
<svg version="1.1" id="Calque_1" xmlns="http://www.w3.org/2000/svg" xmlns:xlink="http://www.w3.org/1999/xlink" x="0px" y="0px"
	 viewBox="0 0 136.8 132.2" enable-background="new 0 0 136.8 132.2" xml:space="preserve">
<g>
	<g>
		<path fill="#92BE05" d="M99.9,25.2c-16.5-27.9-46.5-27.9-63,0c-0.6,1.7-1.9,2.9-3.1,2.6l0,0c-1.1-0.3-1.6-2.2-0.9-4.1
			c17.8-31.5,53.1-31.5,70.9,0c0.7,1.9,0.2,3.8-0.9,4.1l0,0C101.9,28,100.5,26.8,99.9,25.2z"/>
	</g>
	<path fill="#E6511E" d="M120.9,132.2H15.6c-8.6,0-15.6-7-15.6-15.6V36c0-8.6,7-15.6,15.6-15.6h105.3c8.6,0,15.6,7,15.6,15.6v80.6
		C136.5,125.2,129.5,132.2,120.9,132.2z"/>
	<path fill="#D30150" d="M120.9,20.3H15.6c-8.6,0-14.7,6.8-14.7,15v36h136v-36C136.8,27.1,129.5,20.3,120.9,20.3z"/>
	<path fill="#92BE05" d="M70.7,89.4L70.7,89.4c-3.8,0-6.9-3.1-6.9-6.9V69.2c0-3.8,3.1-6.9,6.9-6.9h0c3.8,0,6.9,3.1,6.9,6.9v13.3
		C77.6,86.3,74.5,89.4,70.7,89.4z"/>
	<g>
		<path fill="#D30150" d="M47.7,119.6H17.5c-4.2,0-7.6-3.4-7.6-7.6V91.5c0-4.2,3.4-7.6,7.6-7.6h30.1c4.2,0,7.6,3.4,7.6,7.6v20.4
			C55.3,116.1,51.9,119.6,47.7,119.6z"/>
		<path fill="#D30150" d="M119.4,119.6H89.3c-4.2,0-7.6-3.4-7.6-7.6V91.5c0-4.2,3.4-7.6,7.6-7.6h30.1c4.2,0,7.6,3.4,7.6,7.6v20.4
			C127.1,116.1,123.6,119.6,119.4,119.6z"/>
	</g>
</g>
<g>
</g>
<g>
</g>
<g>
</g>
<g>
</g>
<g>
</g>
<g>
</g>
<g>
</g>
<g>
</g>
<g>
</g>
<g>
</g>
<g>
</g>
<g>
</g>
<g>
</g>
<g>
</g>
<g>
</g>
</svg>
