<?xml version="1.0" encoding="utf-8"?>
<!-- Generator: Adobe Illustrator 18.0.0, SVG Export Plug-In . SVG Version: 6.00 Build 0)  -->
<!DOCTYPE svg PUBLIC "-//W3C//DTD SVG 1.1//EN" "http://www.w3.org/Graphics/SVG/1.1/DTD/svg11.dtd">
<svg version="1.1" id="Calque_1" xmlns="http://www.w3.org/2000/svg" xmlns:xlink="http://www.w3.org/1999/xlink" x="0px" y="0px"
	 viewBox="0 0 364.2 519.1" enable-background="new 0 0 364.2 519.1" xml:space="preserve">
<g>
	<ellipse opacity="0.1" fill="#141414" cx="216.9" cy="506.9" rx="89" ry="12.2"/>
	<g>
		<path fill="none" stroke="#444444" stroke-width="3.6278" stroke-linecap="round" stroke-miterlimit="10" d="M40.4,253.1
			c5.5,5.1-1.6,11.7-7.5,9.7c-5.6-1.9-5.6-10.9-1.3-14.1c6.1-4.5,16.2-3.2,20.2,3.2c3,4.9,1.5,12.1-1.7,16.6
			c-7.2,10-22.9,11.1-28.8-0.4c-3.2-6.2-4.3-14.9-1-21.2c5.8-11.2,20.1-17.1,31.7-19.9c24.5-5.8,52.7,10,62.9,32.3
			c6.9,15.1,6.3,31.3,8.2,47.4c1.1,9.5,6.9,22,16.1,26.4c7,3.3,15.4,0.6,21.5-3.4c5.5-3.6,14.3-12.2,16-18.6"/>
		<path fill="#BFBFBF" d="M169.3,388.3c-0.7,6.4-1.2,12.8-2,18.7c-1.8,14-3.8,28-5.1,42.1c-0.8,8.2-5.8,32.9,4.8,37.7
			c11,4.9,26.5-16.8,32.2-23c10-11.1,19.7-22.5,29.7-33.7c11.3-12.8,24.4-22.7,30.5-39.4c0.8-2.3,1.6-4.8,1.6-7.3
			c0.1-3.8-1.4-7.6-3.4-10.9c-6.3-10.2-17.5-16.3-28.7-20.7c-9.6-3.7-19.9-6.6-30.1-5.3c-10.2,1.2-20.4,7.2-24.2,16.8
			C171.7,370.9,170.3,379.6,169.3,388.3z"/>
		<path fill="#D8D5D2" d="M266.3,382.3c9.6-17.9,15.4-42.5,15.4-72.5c0-66.3-28.3-120.1-63.1-120.1s-63.1,53.8-63.1,120.1
			c0,30,5.8,54.6,15.4,72.5H266.3z"/>
		<path fill="#D8D5D2" d="M191.5,425.2c4,5.1,8.1,10,11.7,14.7c8.6,11.3,17,22.6,25.9,33.6c5.2,6.4,19,27.5,29.9,23.5
			c11.3-4.2,7.2-30.6,6.8-39c-0.6-14.9-1.7-29.9-2.5-44.8c-0.9-17.1,1.5-33.3-5.9-49.5c-1-2.3-2.2-4.5-3.9-6.3
			c-2.6-2.8-6.3-4.5-10-5.4c-11.6-2.9-23.9,0.6-34.9,5.4c-9.5,4.1-18.8,9.3-25.2,17.3c-6.4,8-9.5,19.4-5.4,28.9
			C181.1,411.2,186.2,418.4,191.5,425.2z"/>
		<path fill="#3A3A3A" d="M267,484.7c13.3-4.9,26.6-2,30.1,7.4l-48,17.8C245.6,500.5,253.7,489.6,267,484.7z"/>
		<path fill="#3A3A3A" d="M181.4,483.6c12.9,5.8,20.3,17.3,16.2,26.4l-46.7-21C155,479.8,168.5,477.8,181.4,483.6z"/>
		<path fill="#FFFFFF" d="M318.5,198.3c-2.2,0-4.3-0.2-6.3-0.7c0.5,8.8,3.1,15.6,6.3,15.6c3.2,0,5.9-6.7,6.3-15.6
			C322.8,198,320.7,198.3,318.5,198.3z"/>
		<path fill="#E872A2" d="M218.6,189.7c-34.9,0-63.1,53.4-63.1,119.7c0,7.2,0.3,14.2,1,20.2h124.3c0.6-6,1-13,1-20.2
			C281.7,243,253.4,189.7,218.6,189.7z"/>
		<g>
			<path fill="#D8D5D2" d="M242.4,77.6C242.4,77.6,242.3,77.6,242.4,77.6C242.2,77.6,242.4,77.6,242.4,77.6z"/>
			<path fill="#D8D5D2" d="M351.6,187.6c0.1-0.1,0.3-0.2,0.4-0.2l-0.6-0.2c-28.6-59.8-68.7-89.2-91.6-101.7
				c-5.4-3.2-11.2-5.9-17.4-8l0,0.1c-40.5-13-82.9,6.6-95,43.8c-12.1,37.2,10.9,78,51.2,91.2l0-0.1c6.3,2,12.6,3.3,18.8,3.8
				c17.5,2.3,45.8,3.2,80.4-6.5c-4.5-4-8.3-8.9-10.7-14.4c12.1,2.6,24.4,5.1,36.7,5.4c8.9-3.6,18-8,27.4-13.1l0.6,0.2
				C351.7,188,351.6,187.8,351.6,187.6z"/>
		</g>
		<g>
			<path fill="#D8D5D2" d="M200.9,94c-3.8-5.5-8-10.8-12.2-16c-9-11-18.5-21.7-29-31.3c-11.2-10.4-22.1-19.1-35.2-27.2
				c-10.9-6.8-22.3-13.3-34.8-16.7C64-4.1,32.6,1.2,16.7,24C8.1,36.3,4.4,50.9,2.2,65.4c-0.9,6-1.5,12.1-1.9,18.1
				c-0.7,11.6-0.4,23.3,0.9,34.9c2.3,20.4,8.4,45.2,23.2,60.3c8.9,9.1,14.9,14.1,27.8,17c12.6,2.8,25.6,2.5,38.2,0.4
				c15.6-2.5,30.1-7.5,45.1-12c13-3.9,24.8-8.3,37.1-14c2.1-1,14.3-5.3,14.7-7.4C187.4,162.7,200.9,94,200.9,94z"/>
			<path fill="#FFF5FF" d="M195.6,99.7c-5.6-8.8-17.3-20-24.3-27.7C155,54.3,135.8,38.6,114,28.3C91.1,17.4,56.6,5.2,36.6,27.1
				C12.5,53.6,8,98,13.6,131.7c3,18.3,10.4,33.8,26.6,43.8c17.3,10.7,36.8,10.4,56,6.9c0,0,70.3-13.4,82.2-29.7L195.6,99.7z"/>
		</g>
		<g>
			<path fill="#D34866" d="M233.1,63.5c3.8,17.4-27.3,22-39.7,23.5c-4.7,0.6,2.1-22.3,2.8-23.8c3-6.5,7.3-16.3,14.8-18.7
				C220.6,41.4,230.8,52.9,233.1,63.5z"/>
			<path fill="#D34866" d="M146.3,91.6c7.2,16.4,35,1.6,45.9-4.4c4.1-2.3-14.9-16.7-16.3-17.5c-6.2-3.5-15.5-8.9-23-6.4
				C143.4,66.4,141.9,81.6,146.3,91.6z"/>
			<ellipse fill="#BA2048" cx="191" cy="83.8" rx="5.8" ry="5.8"/>
		</g>
		<g>
			<ellipse fill="#FFFFFF" cx="245.4" cy="126.5" rx="13.6" ry="21"/>
			<path fill="#D1CAC3" d="M245.5,113.5c4.6,0,8.9,1.6,12.2,4.2c-2.2-7.2-6.9-12.2-12.4-12.2c-5.6,0-10.3,5.1-12.4,12.5
				C236.3,115.2,240.7,113.5,245.5,113.5z"/>
			<path fill="#424242" d="M233.9,115.2c-1.7-1.3-4.1-3.9-2.8-8.3c0,0-3,4.2,0.2,8c-2.4-1.8-5.3-5.2-4.9-11.2c0,0-3.9,9.3,6.6,14.3
				c0.8-0.7,1.7-1.3,2.6-1.8l0,0C235.5,116.2,234.8,115.9,233.9,115.2z"/>
			<path fill="#353535" d="M245.4,123.1c-6.6,0-12.1,5.4-12.4,12.3c2.2,7.2,6.9,12.2,12.4,12.2s10.2-5,12.4-12.2
				C257.4,128.6,252,123.1,245.4,123.1z"/>
			<ellipse fill="#FFFFFF" cx="239.9" cy="131.3" rx="3.7" ry="4"/>
		</g>
		<circle fill="#FFF5FF" cx="351.4" cy="187.5" r="12.8"/>
		<g>
			<g>
				<path fill="#606060" d="M293.5,176c0,0-0.5-0.2-1.3-0.6c-0.9-0.3-2.2-0.8-3.9-1.4c-0.8-0.3-1.8-0.6-2.8-0.9
					c-1-0.3-2.1-0.6-3.3-0.9c-1.2-0.3-2.5-0.6-3.8-0.9c-0.7-0.2-1.4-0.3-2.1-0.5c-0.7-0.2-1.4-0.3-2.2-0.4c-1.5-0.3-3-0.6-4.6-0.9
					c-1.6-0.2-3.3-0.5-5-0.8c-1.7-0.3-3.5-0.5-5.3-0.7c-1.8-0.2-3.7-0.4-5.5-0.6c-1.9-0.1-3.8-0.3-5.7-0.4c-1-0.1-1.9-0.1-2.9-0.2
					c-1-0.1-2-0.1-3-0.1c-4-0.1-8-0.4-12-0.2c-2,0-4,0-6,0c-2,0-4,0.1-6,0.2c-4,0.2-7.9,0.2-11.7,0.6c-3.8,0.3-7.4,0.5-10.9,0.9
					c-3.5,0.4-6.7,0.7-9.7,1.1c-1.5,0.2-3,0.3-4.3,0.5c-1.4,0.2-2.7,0.4-3.9,0.5c-2.4,0.3-4.6,0.6-6.3,0.9c-3.5,0.5-5.5,0.7-5.5,0.7
					s2-0.4,5.5-1.1c1.7-0.4,3.9-0.8,6.3-1.3c1.2-0.2,2.5-0.5,3.9-0.8c1.4-0.2,2.8-0.4,4.3-0.7c3-0.5,6.3-0.9,9.7-1.5
					c3.5-0.4,7.1-0.8,10.9-1.2c3.8-0.4,7.7-0.6,11.7-0.8c2-0.1,4-0.3,6-0.2c2,0,4.1,0,6.1,0c4.1-0.1,8.1,0.2,12.1,0.3
					c1,0,2,0.1,3,0.1c1,0.1,2,0.2,3,0.3c2,0.2,3.9,0.4,5.8,0.5c1.9,0.2,3.8,0.5,5.6,0.7c1.8,0.3,3.6,0.5,5.3,0.8
					c1.7,0.3,3.4,0.6,5,0.9c1.6,0.4,3.1,0.7,4.6,1.1c1.5,0.3,2.9,0.7,4.2,1.1c1.3,0.4,2.6,0.7,3.8,1.1c1.2,0.4,2.3,0.8,3.3,1.1
					c1,0.4,1.9,0.7,2.8,1c0.8,0.3,1.6,0.6,2.2,0.9c0.6,0.3,1.2,0.5,1.6,0.7C293.1,175.7,293.5,176,293.5,176z"/>
			</g>
			<g>
				<path fill="#606060" d="M292.7,182c0,0-0.4-0.1-1.3-0.2c-0.8-0.2-2.1-0.3-3.7-0.5c-0.8-0.1-1.7-0.1-2.6-0.2c-1,0-2-0.1-3.1-0.1
					c-1.1-0.1-2.3,0-3.5,0c-1.2,0-2.6,0-3.9,0.1c-1.4,0.1-2.8,0.2-4.2,0.3c-1.5,0.2-3,0.3-4.5,0.5c-0.8,0.1-1.6,0.2-2.4,0.3
					c-0.8,0.1-1.6,0.3-2.4,0.4c-1.6,0.3-3.3,0.5-5,0.8c-1.7,0.4-3.4,0.7-5.1,1.1c-1.7,0.4-3.5,0.7-5.2,1.2c-3.4,1-7,1.8-10.4,3
					c-1.7,0.6-3.5,1.1-5.2,1.7l-1.3,0.4l-1.3,0.5c-0.8,0.3-1.7,0.7-2.5,1c-3.3,1.3-6.7,2.5-9.8,3.9c-3.1,1.4-6.2,2.7-9,4
					c-2.8,1.4-5.5,2.7-7.9,3.9c-1.2,0.6-2.4,1.2-3.5,1.7c-1.1,0.6-2.1,1.2-3.1,1.7c-2,1.1-3.7,2-5.1,2.8c-2.8,1.5-4.4,2.4-4.4,2.4
					s1.5-1,4.2-2.7c1.4-0.9,3-1.9,4.9-3.1c0.9-0.6,1.9-1.2,3-1.9c1.1-0.6,2.2-1.3,3.4-1.9c2.4-1.3,5-2.8,7.8-4.3
					c2.8-1.4,5.8-2.8,9-4.3c3.1-1.5,6.4-2.8,9.8-4.1c0.8-0.3,1.7-0.7,2.5-1l1.3-0.5l1.3-0.4c1.7-0.6,3.5-1.2,5.2-1.7
					c3.5-1.2,7.1-2.1,10.6-3c1.7-0.5,3.5-0.8,5.3-1.2c1.7-0.3,3.5-0.7,5.2-1c1.7-0.2,3.4-0.5,5-0.7c0.8-0.1,1.6-0.2,2.4-0.3
					c0.8-0.1,1.6-0.1,2.4-0.2c1.6-0.1,3.1-0.3,4.6-0.3c1.5,0,2.9,0,4.3-0.1c1.4-0.1,2.7,0,4,0.1c1.3,0.1,2.4,0.1,3.6,0.2
					c1.1,0.1,2.2,0.2,3.1,0.3c1,0.1,1.8,0.3,2.6,0.4c0.8,0.1,1.5,0.3,2.1,0.4c0.6,0.1,1.1,0.2,1.5,0.4
					C292.3,181.9,292.7,182,292.7,182z"/>
			</g>
		</g>
		<path fill="#D34866" d="M297.4,399.3c-0.7-3.3-1.4-6.7-2.1-10c-1.8-8.6-3.6-17.1-5.3-25.7c-2.8-13.4-5.6-26.2-8.3-39.6
			c-0.1-0.3-0.1-0.6-0.2-0.6h-58c0,0-1.8,0-4.8,0c-3.1,0-5,0-5,0h-58c-0.1,0-0.1,0.2-0.2,0.6c-2.8,13.4-5.6,26.5-8.3,39.9
			c-1.8,8.6-3.6,17-5.3,25.6c-0.7,3.3-1.4,6.7-2.1,10c-0.3,1.5-3.5,12.7-3.2,12.7c0,0,0,0,0,0c0,0,0-0.1,0.1-0.1
			c4.9-0.2,9.8,0.6,14.6,2c4.5,1.3,8.8,5.3,13.3,7.2c5.2,2.1,11.3,3.5,16.9,2.9c11-1.1,20.2-10.4,31.1-12c3.7-0.5,7.7-0.5,11.3,0.4
			c8,1.8,13,9.2,21.2,10.6c7.2,1.3,15.6,0.7,22.4-2.3c3.8-1.7,7.5-4.1,11.4-5.8c3.7-1.6,7.4-2.7,11.2-3.2c3.6-0.5,7,0.2,10.6,0.2
			C300.9,412,297.7,400.8,297.4,399.3z"/>
		<path fill="#D8D5D2" d="M324.8,328.7c-10.2-3.7-20.1-8.3-30-12.8c-7-3.1-14-6.3-21-9.4c-8.1-3.6-14.1-7.7-21.1-13.3
			c-5.7-4.6-11.5-9.1-17.2-13.7c-7.8-6.2-15.5-12.3-23.3-18.5c-7.1-4.3-9.4-13.7-5.1-20.8c4.3-7.1,13.7-9.4,20.8-5.1
			c9.3,5.6,17.6,15.3,25.7,22.5c5.8,5.1,11.6,10.1,17.4,15.2c6.2,5.4,12,8.2,19.6,11.6c6.8,3,13.6,6,20.4,8.9
			c9.3,4.1,18.5,8.1,27.8,12.2c7.1,4.3,10.8,11.6,6.5,18.7C340.4,332.3,332.4,331.5,324.8,328.7z"/>
	</g>
</g>
<g>
</g>
<g>
</g>
<g>
</g>
<g>
</g>
<g>
</g>
<g>
</g>
<g>
</g>
<g>
</g>
<g>
</g>
<g>
</g>
<g>
</g>
<g>
</g>
<g>
</g>
<g>
</g>
<g>
</g>
</svg>
