<?xml version="1.0" encoding="utf-8"?>
<!-- Generator: Adobe Illustrator 18.0.0, SVG Export Plug-In . SVG Version: 6.00 Build 0)  -->
<!DOCTYPE svg PUBLIC "-//W3C//DTD SVG 1.1//EN" "http://www.w3.org/Graphics/SVG/1.1/DTD/svg11.dtd">
<svg version="1.1" id="Calque_1" xmlns="http://www.w3.org/2000/svg" xmlns:xlink="http://www.w3.org/1999/xlink" x="0px" y="0px"
	 viewBox="0 0 357.8 526.6" enable-background="new 0 0 357.8 526.6" xml:space="preserve">
<g>
	<ellipse opacity="0.1" fill="#141414" cx="215.1" cy="514.4" rx="89" ry="12.2"/>
	<g>
		<path fill="#D8D5D2" d="M265.5,389.8c9.6-17.9,15.4-42.5,15.4-72.5c0-66.3-28.3-120.1-63.1-120.1s-63.1,53.8-63.1,120.1
			c0,30,5.8,54.6,15.4,72.5H265.5z"/>
		<g>
			<path fill="#BFBFBF" d="M190.7,432.7c4,5.1,8.1,10,11.7,14.7c8.6,11.3,17,22.6,25.9,33.6c5.2,6.4,19,27.5,29.9,23.5
				c11.3-4.2,7.2-30.6,6.8-39c-0.6-14.9-1.7-29.9-2.5-44.8c-0.9-17.1,1.5-33.3-5.9-49.5c-1-2.3-2.2-4.5-3.9-6.3
				c-2.6-2.8-6.3-4.5-10-5.4c-11.6-2.9-23.9,0.6-34.9,5.4c-9.5,4.1-18.8,9.3-25.2,17.3c-6.4,8-9.5,19.4-5.4,28.9
				C180.3,418.7,185.4,425.8,190.7,432.7z"/>
			<path fill="#3A3A3A" d="M266.2,492.2c13.3-4.9,26.6-2,30.1,7.4l-48,17.8C244.8,508,252.9,497.1,266.2,492.2z"/>
		</g>
		<g>
			<path fill="#D8D5D2" d="M168.5,395.7c-0.7,6.4-1.2,12.8-2,18.7c-1.8,14-3.8,28-5.1,42.1c-0.8,8.2-5.8,32.9,4.8,37.7
				c11,4.9,26.5-16.8,32.2-23c10-11.1,19.7-22.5,29.7-33.7c11.3-12.8,24.4-22.7,30.5-39.4c0.8-2.3,1.6-4.8,1.6-7.3
				c0.1-3.8-1.4-7.6-3.4-10.9c-6.3-10.2-17.5-16.3-28.7-20.7c-9.6-3.7-19.9-6.6-30.1-5.3c-10.2,1.2-20.4,7.2-24.2,16.8
				C170.8,378.4,169.5,387.1,168.5,395.7z"/>
			<path fill="#3A3A3A" d="M180.5,491c12.9,5.8,20.3,17.3,16.2,26.4l-46.7-21C154.1,487.3,167.6,485.2,180.5,491z"/>
		</g>
		<path fill="#E872A2" d="M217.8,197.1c-34.9,0-63.1,53.7-63.1,120.1c0,7.2,0.3,14.5,1,20.5h124.3c0.6-6,1-13.4,1-20.5
			C280.9,250.8,252.6,197.1,217.8,197.1z"/>
		<path fill="none" stroke="#444444" stroke-width="3.6278" stroke-linecap="round" stroke-miterlimit="10" d="M59.6,226.2
			c3,6.9-6.2,10-10.8,5.8c-4.3-4-0.7-12.2,4.5-13.4c7.4-1.7,16.1,3.6,17.1,11.1c0.8,5.7-3.5,11.7-8.3,14.4
			c-10.6,6.2-25.4,0.9-26.2-12.1c-0.4-6.9,2.1-15.3,7.7-19.8c9.9-7.9,25.3-7.5,37.1-5.3c24.8,4.7,44.1,30.5,44.4,55.1
			c0.2,16.6-6.9,31.2-11.7,46.7c-2.8,9.1-2.6,23,4,30.7c5,5.9,13.8,6.8,21,5.6c6.5-1.1,18-5.4,22.2-10.5"/>
		<g>
			<path fill="#FFFFFF" d="M311.5,214.6c-2.2-0.1-4.3-0.5-6.3-1.1c-0.1,8.8,2.1,15.7,5.3,16s6.3-6.3,7.4-15.1
				C315.8,214.6,313.7,214.7,311.5,214.6z"/>
			<g>
				<path fill="#D8D5D2" d="M243.5,89.2C243.5,89.2,243.5,89.1,243.5,89.2C243.4,89.1,243.5,89.2,243.5,89.2z"/>
				<path fill="#D8D5D2" d="M345.2,206.1c0.1-0.1,0.3-0.2,0.4-0.2l-0.5-0.2c-24.5-61.6-62.7-93.6-84.7-107.5
					c-5.1-3.6-10.8-6.7-16.9-9.1l-0.1,0.1c-39.5-15.7-83.2,1.1-97.7,37.4c-14.5,36.3,5.7,78.5,45.1,94.4l0.1-0.1
					c6.1,2.4,12.3,4.1,18.5,5c17.3,3.4,45.5,6.2,80.7-1.2c-4.3-4.2-7.6-9.4-9.7-15.1c11.9,3.4,24,6.8,36.3,7.9
					c9.1-3,18.5-6.8,28.2-11.3l0.5,0.2C345.3,206.5,345.3,206.3,345.2,206.1z"/>
			</g>
			<g>
				<path fill="#D8D5D2" d="M201,102.8c-3.4-5.7-7.3-11.3-11.1-16.7c-8.2-11.6-17.1-22.8-26.8-33.2c-10.5-11.1-20.8-20.5-33.4-29.5
					c-10.5-7.5-21.4-14.8-33.7-19C71-4.2,39.2-0.9,21.8,20.8c-9.3,11.6-14,26-17.2,40.3C3.4,67,2.4,73,1.6,79
					c-1.4,11.5-2,23.2-1.4,34.9c1,20.5,5.3,45.6,19.1,61.7c8.3,9.7,13.9,15.1,26.6,18.8c12.4,3.6,25.4,4.1,38.1,3
					c15.8-1.5,30.5-5.5,45.8-9c13.3-3.1,25.3-6.7,37.9-11.5c2.2-0.8,14.6-4.3,15.2-6.4C183,170.4,201,102.8,201,102.8z"/>
				<path fill="#FFF5FF" d="M195.3,108.1c-5-9.2-15.9-21.1-22.4-29.2c-15.1-18.8-33.1-35.7-54.3-47.5C96.5,19,63,4.6,41.5,25.2
					C15.7,49.9,8.3,94,11.6,127.9c1.8,18.5,8.2,34.4,23.6,45.5c16.5,11.8,36.1,12.8,55.4,10.5c0,0,71-8.7,84-24.2L195.3,108.1z"/>
			</g>
			<g>
				<path fill="#D34866" d="M235.2,74.5c2.7,17.7-28.7,20.1-41.1,20.8c-4.7,0.3,3.6-22.1,4.4-23.5c3.4-6.3,8.4-15.8,16-17.7
					C224.2,51.6,233.6,63.7,235.2,74.5z"/>
				<path fill="#D34866" d="M146.8,96.8c6.1,16.8,34.8,3.9,46.1-1.4c4.3-2-13.7-17.7-15.1-18.6c-6-3.9-14.9-9.9-22.5-7.9
					C145.5,71.4,143,86.5,146.8,96.8z"/>
				
					<ellipse transform="matrix(0.9978 6.609775e-02 -6.609775e-02 0.9978 6.4945 -12.479)" fill="#BA2048" cx="191.8" cy="91.9" rx="5.8" ry="5.8"/>
			</g>
			<g>
				
					<ellipse transform="matrix(0.9978 6.609775e-02 -6.609775e-02 0.9978 9.6618 -15.7778)" fill="#FFFFFF" cx="243.3" cy="138.1" rx="13.6" ry="21"/>
				<path fill="#D1CAC3" d="M244.3,125.2c4.6,0.3,8.7,2.1,11.9,5c-1.7-7.3-6.1-12.6-11.5-13c-5.5-0.4-10.6,4.4-13.2,11.7
					C235,126.2,239.5,124.8,244.3,125.2z"/>
				<path fill="#424242" d="M232.6,126.1c-1.6-1.4-3.8-4.2-2.3-8.4c0,0-3.3,4-0.4,8c-2.3-2-4.9-5.6-4.2-11.5c0,0-4.5,9,5.6,14.7
					c0.9-0.6,1.8-1.1,2.7-1.6l0,0C234.1,127.2,233.4,126.8,232.6,126.1z"/>
				<path fill="#353535" d="M243.5,134.7c-6.6-0.4-12.4,4.6-13.1,11.4c1.7,7.3,6.1,12.6,11.5,13c5.5,0.4,10.5-4.3,13.1-11.3
					C255.2,141,250.1,135.2,243.5,134.7z"/>
				
					<ellipse transform="matrix(0.9978 6.609775e-02 -6.609775e-02 0.9978 9.9434 -15.3832)" fill="#FFFFFF" cx="237.5" cy="142.6" rx="3.7" ry="4"/>
			</g>
			<circle fill="#FFF5FF" cx="345" cy="206" r="12.8"/>
			<g>
				<g>
					<path fill="#606060" d="M288,190.6c0,0-0.4-0.2-1.3-0.6c-0.9-0.4-2.1-1-3.8-1.6c-0.8-0.3-1.7-0.7-2.7-1.1
						c-1-0.3-2.1-0.7-3.3-1.1c-1.2-0.4-2.4-0.7-3.7-1.2c-0.7-0.2-1.3-0.4-2-0.6c-0.7-0.2-1.4-0.4-2.1-0.6c-1.5-0.4-3-0.8-4.6-1.2
						c-1.6-0.4-3.2-0.7-4.9-1.1c-1.7-0.4-3.4-0.7-5.2-1c-1.8-0.3-3.6-0.6-5.5-1c-1.9-0.3-3.8-0.5-5.7-0.8c-1-0.1-1.9-0.3-2.9-0.4
						c-1-0.1-2-0.2-2.9-0.3c-4-0.4-8-0.9-12-1c-2-0.1-4-0.3-6-0.4c-2-0.2-4-0.1-6-0.2c-4-0.1-7.9-0.3-11.7-0.2
						c-3.8,0.1-7.4,0-10.9,0.1c-3.5,0.2-6.8,0.3-9.8,0.4c-1.5,0.1-3,0.1-4.4,0.2c-1.4,0.1-2.7,0.2-3.9,0.3c-2.5,0.2-4.6,0.3-6.4,0.5
						c-3.5,0.2-5.6,0.4-5.6,0.4s2-0.3,5.5-0.8c1.8-0.2,3.9-0.5,6.3-0.9c1.2-0.2,2.5-0.3,3.9-0.5c1.4-0.1,2.8-0.3,4.3-0.4
						c3-0.3,6.3-0.5,9.8-0.8c3.5-0.2,7.2-0.3,11-0.4c3.8-0.2,7.7-0.1,11.7,0c2,0.1,4,0,6,0.2c2,0.1,4.1,0.2,6.1,0.4
						c4.1,0.2,8.1,0.7,12.1,1.1c1,0.1,2,0.2,3,0.3c1,0.2,2,0.3,2.9,0.5c1.9,0.3,3.9,0.6,5.7,0.9c1.9,0.4,3.7,0.7,5.5,1.1
						c1.8,0.4,3.6,0.7,5.2,1.2c1.7,0.4,3.3,0.9,4.9,1.3c1.6,0.5,3.1,0.9,4.6,1.4c1.5,0.4,2.8,0.9,4.1,1.4c1.3,0.5,2.6,0.9,3.7,1.4
						c1.1,0.5,2.2,0.9,3.2,1.3c1,0.4,1.9,0.9,2.7,1.2c0.8,0.4,1.5,0.7,2.1,1.1c0.6,0.3,1.1,0.6,1.5,0.8
						C287.6,190.4,288,190.6,288,190.6z"/>
				</g>
				<g>
					<path fill="#606060" d="M286.8,196.6c0,0-0.4-0.1-1.3-0.3c-0.8-0.2-2.1-0.4-3.6-0.7c-0.8-0.1-1.7-0.2-2.6-0.4
						c-1-0.1-2-0.2-3.1-0.3c-1.1-0.1-2.3-0.1-3.5-0.2c-1.2,0-2.5-0.2-3.9-0.1c-1.4,0-2.8,0-4.3,0c-1.5,0.1-3,0.1-4.5,0.2
						c-0.8,0-1.6,0.1-2.4,0.1c-0.8,0.1-1.6,0.2-2.4,0.2c-1.6,0.2-3.3,0.3-5,0.5c-1.7,0.3-3.4,0.5-5.1,0.8c-1.7,0.3-3.5,0.5-5.2,0.9
						c-3.5,0.7-7.1,1.3-10.6,2.4c-1.8,0.4-3.5,0.9-5.3,1.3l-1.3,0.3l-1.3,0.4c-0.9,0.3-1.7,0.5-2.6,0.8c-3.4,1.1-6.8,2-10,3.3
						c-3.2,1.2-6.3,2.2-9.3,3.4c-2.9,1.2-5.6,2.3-8.2,3.4c-1.3,0.5-2.5,1-3.6,1.5c-1.1,0.5-2.2,1-3.2,1.5c-2,0.9-3.8,1.7-5.2,2.4
						c-2.9,1.3-4.6,2.1-4.6,2.1s1.6-0.9,4.4-2.5c1.4-0.8,3.1-1.7,5.1-2.8c1-0.5,2-1.1,3.1-1.7c1.1-0.6,2.3-1.1,3.6-1.7
						c2.5-1.2,5.2-2.4,8.1-3.8c2.9-1.3,6-2.4,9.2-3.7c3.2-1.3,6.6-2.4,10-3.5c0.9-0.3,1.7-0.6,2.6-0.8l1.3-0.4l1.3-0.3
						c1.8-0.5,3.6-0.9,5.3-1.4c3.5-1,7.2-1.6,10.7-2.3c1.8-0.4,3.6-0.6,5.3-0.8c1.8-0.2,3.5-0.5,5.2-0.7c1.7-0.1,3.4-0.2,5.1-0.4
						c0.8-0.1,1.6-0.1,2.5-0.2c0.8,0,1.6,0,2.4,0c1.6,0,3.1-0.1,4.6,0c1.5,0.1,2.9,0.1,4.3,0.2c1.4,0,2.7,0.2,3.9,0.3
						c1.2,0.2,2.4,0.2,3.5,0.5c1.1,0.2,2.1,0.4,3.1,0.5c0.9,0.2,1.8,0.4,2.6,0.6c0.8,0.2,1.5,0.4,2.1,0.5c0.6,0.2,1.1,0.3,1.5,0.5
						C286.4,196.5,286.8,196.6,286.8,196.6z"/>
				</g>
			</g>
		</g>
		<path fill="#D34866" d="M296.5,406.8c-0.7-3.3-1.4-6.7-2.1-10c-1.8-8.6-3.6-17.1-5.3-25.7c-2.8-13.4-5.6-25.8-8.3-39.2
			c-0.1-0.3-0.1-0.2-0.2-0.2h-58c0,0-1.8,0-4.8,0c-3.1,0-5,0-5,0h-58c-0.1,0-0.1-0.1-0.2,0.2c-2.8,13.4-5.6,26.3-8.3,39.7
			c-1.8,8.6-3.6,16.9-5.3,25.5c-0.7,3.3-1.4,6.6-2.1,9.9c-0.3,1.5-3.5,12.7-3.2,12.7c0,0,0,0,0,0c0,0,0-0.1,0.1-0.1
			c4.9-0.2,9.8,0.6,14.6,2c4.5,1.3,8.8,5.3,13.3,7.2c5.2,2.1,11.3,3.5,16.9,2.9c11-1.1,20.2-10.4,31.1-12c3.7-0.5,7.7-0.5,11.3,0.4
			c8,1.8,13,9.2,21.2,10.6c7.2,1.3,15.6,0.7,22.4-2.3c3.8-1.7,7.5-4.1,11.4-5.8c3.7-1.6,7.4-2.7,11.2-3.2c3.6-0.5,7,0.2,10.6,0.2
			C300.1,419.5,296.9,408.3,296.5,406.8z"/>
		<path fill="#D8D5D2" d="M246.2,384.6c-5.2-9.5-9.7-19.5-14.2-29.3c-3.2-7-6.4-13.9-9.7-20.9c-3.7-8.1-5.5-15.1-7.2-23.9
			c-1.3-7.2-2.7-14.4-4-21.6c-1.8-9.7-3.6-19.5-5.4-29.2c-2.5-7.9,1.9-16.5,9.8-19c7.9-2.5,16.5,1.9,19,9.8
			c3.3,10.3,3.2,23.1,4.7,33.8c1.1,7.6,2.1,15.2,3.2,22.9c1.1,8.1,3.7,14.1,7.2,21.6c3.2,6.7,6.4,13.4,9.5,20.1
			c4.3,9.1,8.6,18.3,13,27.4c2.5,7.9,0.6,15.9-7.3,18.4C255.5,397.6,250.1,391.8,246.2,384.6z"/>
	</g>
</g>
<g>
</g>
<g>
</g>
<g>
</g>
<g>
</g>
<g>
</g>
<g>
</g>
<g>
</g>
<g>
</g>
<g>
</g>
<g>
</g>
<g>
</g>
<g>
</g>
<g>
</g>
<g>
</g>
<g>
</g>
</svg>
